<?xml version="1.0" encoding="UTF-8" standalone="no"?>
<!-- Generator: Adobe Illustrator 15.1.0, SVG Export Plug-In . SVG Version: 6.00 Build 0) -->
<svg xmlns:dc="http://purl.org/dc/elements/1.1/" xmlns:cc="http://creativecommons.org/ns#" xmlns:rdf="http://www.w3.org/1999/02/22-rdf-syntax-ns#" xmlns:svg="http://www.w3.org/2000/svg" xmlns="http://www.w3.org/2000/svg" xmlns:sodipodi="http://sodipodi.sourceforge.net/DTD/sodipodi-0.dtd" xmlns:inkscape="http://www.inkscape.org/namespaces/inkscape" x="0px" y="0px" width="488.2395" height="187.06776" viewBox="0 0 488.23948 187.06777" xml:space="preserve" id="svg4348" inkscape:version="0.91 r13725" sodipodi:docname="logo_aktivista-logo_yh_20150402.svg"> <metadata id="metadata4514"/> <defs id="defs4512"/> <g id="svg2" sodipodi:docname="logo-6-paths.svg" inkscape:version="0.91 r13725" transform="translate(-61.573,-157.84915)"> <path id="path4235" d="m 112.673,302.399 c -7.5,-22.5 -15.9,-53.6 -15.9,-53.6 l -0.8,0 -6.3,1.7 -19.5,51.1 c -2.2,5.601 -4.1,7.3 -7.8,7.7 l -0.8,4.7 c 0,0 6.2,-0.3 11,-0.3 6.6,0 13.9,0.699 13.9,0.699 l 0.6,-4.3 -0.2,-0.399 -5.7,0 c -4.2,0 -6,-1.2 -6,-4.101 0,-0.899 0.3,-2.1 0.9,-3.899 l 3.7,-10.4 c 2.3,-0.3 7,-0.8 10.9,-0.8 2.8,0 8,0 10.4,0.1 l 3.3,10.9 c 0.6,1.899 0.9,3.5 0.9,4.8 0,2.4 -2,3.3 -8.9,3.8 l -0.4,3.9 0.3,0.7 c 0,0 7.2,-1 14.9,-1 3.4,0 10.6,0.3 10.6,0.3 l 0.7,-4.101 -0.2,-0.399 c -5.799,-0.499 -8,-2.1 -9.6,-7.1 z m -21.6,-42.699 0.7,0 7.9,26.199 c -2.3,0.2 -6.6,0.5 -9.3,0.5 l -8.8,0 9.5,-26.699 z" inkscape:connector-curvature="0" style="fill:#010202"/> <path id="path4237" d="m 123.686,314.3 c 0,0 5.7,-0.6 9.9,-0.6 3.7,0 9.1,0.3 9.1,0.3 l 0.9,-4.3 -0.2,-0.4 c 0,0 -2.3,0.2 -3.5,0.2 -2.6,0 -3.6,-1.5 -3.6,-5.601 0,-30 1.4,-60.899 2.8,-63.1 l -0.6,-1.3 c 0,0 -7.9,2 -14.8,2.899 l -0.2,1.9 c -0.1,0.6 -0.2,1.2 -0.2,1.8 0,0 1.4,-0.399 2.5,-0.399 2.5,0 3.7,1.699 3.7,5.399 l 0,49.102 c 0,6.699 0.1,9.199 -5.3,10 l -0.5,4.1 z m 26.9,-7.701 c 3,4.3 4.9,6.4 7,7.5 1,0.5 2.2,1 3.5,1 1.5,0 7.4,-1.6 7.4,-1.6 l 0.6,-2.9 -0.3,-0.5 c -4.1,0 -7.5,-2.3 -12.1,-8.2 l -10.5,-13.5 c 6.6,-6.399 14.1,-14.8 21.3,-16.899 l 0.8,-3.101 -0.3,-0.5 c 0,0 -5.7,0.601 -9.5,0.601 -3.6,0 -9.8,-0.2 -9.8,-0.2 l -0.9,2.9 0.3,0.5 c 3.9,0 5.5,0.6 5.5,2.1 0,1 -0.6,1.8 -2.4,3.5 l -12.2,11.2 -0.2,1.399 11.8,16.7 z" inkscape:connector-curvature="0" style="fill:#010202"/> <path id="path4239" d="m 178.195,302.8 c 0,8.8 3.3,12.1 12.4,12.1 2.4,0 10.1,-6 10.1,-6 l -1,-2.6 c 0,0 -3.5,1.8 -6.8,1.8 -5.7,0 -7.8,-2.5 -7.8,-9.3 0,-10.3 0.3,-18.7 0.7,-25 l 14.5,0.3 0.9,-5.3 -0.3,-0.3 -14.7,0.3 c 0.4,-4.9 0.8,-7.5 0.8,-7.5 l -2,-0.8 c 0,0 -5.9,5.899 -12.4,9.1 l -0.5,3 0.4,0.601 c 4.4,0.199 5.7,1.399 5.7,5 l 0,24.599 z" inkscape:connector-curvature="0" style="fill:#010202"/> <path id="path4241" d="m 215.903,253.5 c 3.3,0 5.9,-2.601 5.9,-5.9 0,-3 -2.1,-5.1 -4.9,-5.1 -3.3,0 -5.9,2.6 -5.9,5.899 0,3 2,5.101 4.9,5.101 z m -8.9,61.399 c 0,0 6.1,-1.199 10.3,-1.199 3.7,0 8.9,0.3 8.9,0.3 l 0.8,-4.3 -0.2,-0.4 c 0,0 -2.3,0.2 -3.5,0.2 -2.5,0 -3.5,-1.7 -3.5,-5.601 0,-15.699 1.1,-32.6 2.3,-35.399 l -0.5,-1.2 c 0,0 -7.7,1.9 -14.4,2.9 l -0.4,3.699 c 0,0 1.4,-0.399 2.5,-0.399 2.5,0 3.7,1.7 3.7,5.399 l 0,25.4 c 0,3.5 -1.6,5.4 -5.6,6.5 l -0.4,4.1 z" inkscape:connector-curvature="0" style="fill:#010202"/> <path id="path4243" d="m 264.928,274.5 c 0,2.399 -4.7,12.7 -12.1,31.1 l -0.4,0 c 0,0 -8.5,-28.7 -8.5,-31.6 0,-1.8 1.3,-2.4 5.9,-2.601 l 0.6,-3.1 -0.2,-0.5 c 0,0 -5.9,0.7 -12,0.7 -2.3,0 -8.3,-0.101 -8.3,-0.101 l -0.6,3.301 0.2,0.399 c 3.4,0.101 5.7,1.8 6.8,5 2.9,8.601 12.2,38.3 12.2,38.3 l 5.4,-1.699 14.5,-34.101 c 2.5,-5.8 3.6,-7.1 6.4,-7.5 l 0.7,-3.7 c 0,0 -4.7,0.101 -8.2,0.101 -4.9,0 -10.4,-0.101 -10.4,-0.101 l -0.5,3.101 0.4,0.6 3.8,0 c 3.2,0 4.3,0.601 4.3,2.401 z" inkscape:connector-curvature="0" style="fill:#010202"/> <path id="path4245" d="m 287.759,253.5 c 3.3,0 5.9,-2.601 5.9,-5.9 0,-3 -2.1,-5.1 -4.9,-5.1 -3.3,0 -5.9,2.6 -5.9,5.899 0,3 2,5.101 4.9,5.101 z m -8.9,61.399 c 0,0 6.1,-1.199 10.3,-1.199 3.7,0 8.9,0.3 8.9,0.3 l 0.8,-4.3 -0.2,-0.4 c 0,0 -2.3,0.2 -3.5,0.2 -2.5,0 -3.5,-1.7 -3.5,-5.601 0,-15.699 1.1,-32.6 2.3,-35.399 l -0.5,-1.2 c 0,0 -7.7,1.9 -14.4,2.9 l -0.4,3.699 c 0,0 1.4,-0.399 2.5,-0.399 2.5,0 3.7,1.7 3.7,5.399 l 0,25.4 c 0,3.5 -1.6,5.4 -5.6,6.5 l -0.4,4.1 z" inkscape:connector-curvature="0" style="fill:#010202"/> <path id="path4247" d="m 319.284,314.899 c 9.801,0 18.301,-6.699 18.301,-14.399 0,-5 -3.201,-8.2 -14,-13.9 -6.201,-3.2 -8.701,-5.8 -8.701,-9 0,-3 3.601,-5.5 8.101,-5.5 5.7,0 8.2,2.101 8.2,6.9 0,0.899 -0.2,2.899 -0.2,2.899 l 3.7,-0.3 c 0.5,-6.6 1.9,-12.2 1.9,-12.2 l -0.201,-0.5 c 0,0 -4.6,-1.6 -10,-1.6 -10.5,0 -18.399,6.1 -18.399,14.3 0,4.8 3.3,8.5 10.899,12.4 9.201,4.899 11.601,7 11.601,10.3 0,3.3 -4,5.9 -9,5.9 -7.101,0 -9.7,-3.2 -9.7,-12 l -3.5,0.5 c -0.1,3.3 -0.8,11.3 -1.199,13.399 l 0.299,0.7 c -10e-4,0.002 4.599,2.101 11.899,2.101 z" inkscape:connector-curvature="0" style="fill:#010202"/> <path id="path4249" d="m 350.219,302.8 c 0,8.8 3.3,12.1 12.399,12.1 2.4,0 10.101,-6 10.101,-6 l -1,-2.6 c 0,0 -3.5,1.8 -6.8,1.8 -5.7,0 -7.801,-2.5 -7.801,-9.3 0,-10.3 0.301,-18.7 0.701,-25 l 14.5,0.3 0.899,-5.3 -0.3,-0.3 -14.7,0.3 c 0.399,-4.9 0.8,-7.5 0.8,-7.5 l -2,-0.8 c 0,0 -5.9,5.899 -12.4,9.1 l -0.5,3 0.4,0.601 c 4.4,0.199 5.7,1.399 5.7,5 l 0,24.599 z" inkscape:connector-curvature="0" style="fill:#010202"/> <path id="path4251" d="m 423.927,302.399 c -7.5,-22.5 -15.9,-53.6 -15.9,-53.6 l -0.8,0 -6.3,1.7 -19.5,51.1 c -2.2,5.601 -4.1,7.3 -7.801,7.7 l -0.799,4.7 c 0,0 6.199,-0.3 11,-0.3 6.6,0 13.899,0.699 13.899,0.699 l 0.601,-4.3 -0.201,-0.399 -5.699,0 c -4.2,0 -6,-1.2 -6,-4.101 0,-0.899 0.3,-2.1 0.9,-3.899 l 3.699,-10.4 c 2.301,-0.3 7,-0.8 10.9,-0.8 2.8,0 8,0 10.4,0.1 l 3.299,10.9 c 0.601,1.899 0.9,3.5 0.9,4.8 0,2.4 -2,3.3 -8.9,3.8 l -0.399,3.9 0.3,0.7 c 0,0 7.2,-1 14.9,-1 3.399,0 10.6,0.3 10.6,0.3 l 0.7,-4.101 -0.2,-0.399 c -5.799,-0.499 -8,-2.1 -9.599,-7.1 z m -21.6,-42.699 0.699,0 7.9,26.199 c -2.301,0.2 -6.6,0.5 -9.301,0.5 l -8.799,0 9.501,-26.699 z" inkscape:connector-curvature="0" style="fill:#010202"/> </g> <path inkscape:connector-curvature="0" style="fill:#79338a" d="m 387.22513,164.62032 c -0.59053,0.78645 -1.20362,1.55316 -1.83503,2.30577 -0.17195,0.20577 -0.35094,0.40591 -0.52571,0.61028 -0.4792,0.55529 -0.96543,1.10214 -1.46295,1.63912 -0.21705,0.23255 -0.43973,0.46088 -0.6596,0.69061 -0.48483,0.50033 -0.97672,0.99503 -1.47987,1.47987 -0.2255,0.21704 -0.451,0.4369 -0.68215,0.65113 -0.54261,0.50457 -1.0951,0.99645 -1.65603,1.47987 -0.19732,0.16913 -0.389,0.34249 -0.58913,0.50738 -0.76108,0.63846 -1.53766,1.26282 -2.33255,1.859 l 22.44746,0 c -4.25075,-3.19229 -8.03075,-6.97511 -11.22444,-11.22303 z" id="path4409-7"/> <path inkscape:connector-curvature="0" style="fill:#79338a" d="m 312.39886,26.1894 0,57.29479 c 2.10845,-1.33329 4.31135,-2.52846 6.59739,-3.57424 0.13952,-0.0648 0.27764,-0.12684 0.41718,-0.18885 1.51651,-0.67933 3.06825,-1.29383 4.65241,-1.83927 0.29175,-0.10006 0.58208,-0.20013 0.87524,-0.29597 0.42423,-0.13812 0.84846,-0.27201 1.27551,-0.40027 0.40167,-0.1212 0.80617,-0.23255 1.21066,-0.34389 0.50739,-0.13953 1.01618,-0.27343 1.53061,-0.39886 0.54825,-0.1353 1.09792,-0.26496 1.65322,-0.38195 0.32416,-0.069 0.65114,-0.13248 0.97953,-0.1959 0.53698,-0.1043 1.07819,-0.20154 1.6194,-0.28893 0.26919,-0.0451 0.5398,-0.0916 0.8104,-0.13248 0.15785,-0.0254 0.31711,-0.0465 0.47497,-0.069 -2.19443,-6.00543 -3.39101,-12.49007 -3.39101,-19.25517 0,-11.00739 3.18242,-21.26639 8.65792,-29.92995 l -27.36343,0 z" id="path4411-6"/> <path inkscape:connector-curvature="0" style="fill:#79338a" d="m 434.68937,26.1894 c 5.47551,8.66356 8.65793,18.92396 8.65793,29.92994 0,6.76793 -1.1994,13.25397 -3.39524,19.26223 8.04061,1.12329 15.53014,3.94912 22.10216,8.10262 l 0,-57.29479 -27.36485,0 z" id="path4413-8"/> <path inkscape:connector-curvature="0" style="fill:#010202" d="M 434.68937,26.1894 C 424.74609,10.45631 407.21319,0 387.22513,0 c -19.98665,0 -37.52096,10.45631 -47.46284,26.1894 -5.4755,8.66356 -8.65792,18.92396 -8.65792,29.92994 0,6.76511 1.19799,13.24974 3.39101,19.25518 0.63563,-0.0888 1.27409,-0.16772 1.91536,-0.23678 0.21,-0.0212 0.42564,-0.0366 0.63706,-0.0564 0.65395,-0.062 1.31214,-0.11134 1.97174,-0.14939 0.24523,-0.0155 0.49047,-0.0296 0.73712,-0.0394 0.85127,-0.0381 1.70818,-0.0648 2.56933,-0.0648 18.3588,0 34.65847,8.81718 44.89491,22.44745 10.23927,-13.63027 26.53753,-22.44745 44.89632,-22.44745 2.65953,0 5.26833,0.19872 7.8292,0.5553 2.19725,-6.00826 3.39524,-12.4943 3.39524,-19.26222 0.004,-11.00739 -3.17819,-21.2678 -8.65229,-29.93136 z" id="path4421-6"/> <path inkscape:connector-curvature="0" style="fill:#808080" d="m 462.0528,83.48419 c -6.572,-4.1535 -14.06154,-6.97933 -22.10215,-8.10262 -2.55946,-0.35658 -5.16967,-0.55531 -7.8292,-0.55531 -18.35879,0 -34.65846,8.81718 -44.89632,22.44746 3.27262,4.35504 5.92792,9.20195 7.83061,14.41108 2.19725,6.00825 3.39383,12.4943 3.39383,19.26222 0,1.06832 -0.0353,2.12678 -0.0944,3.1796 -0.0197,0.33967 -0.0521,0.6751 -0.0775,1.01054 -0.0521,0.71738 -0.11275,1.43053 -0.19308,2.13946 -0.0423,0.38618 -0.0944,0.77094 -0.14658,1.15571 -0.0888,0.6596 -0.18745,1.31496 -0.29738,1.96751 -0.0662,0.38477 -0.13249,0.76953 -0.20578,1.15289 -0.12825,0.66665 -0.2706,1.32765 -0.42282,1.98725 -0.0803,0.3453 -0.15221,0.69061 -0.23818,1.0345 -0.19732,0.79066 -0.41577,1.57006 -0.64691,2.34664 -0.0592,0.19873 -0.10712,0.39886 -0.16772,0.59477 -0.30161,0.9753 -0.62859,1.93792 -0.98095,2.89067 -0.0832,0.22268 -0.17617,0.44255 -0.26214,0.66523 -0.27765,0.72302 -0.56376,1.439 -0.87101,2.14652 -0.1353,0.31288 -0.27906,0.61872 -0.42,0.92878 -0.27905,0.61591 -0.56658,1.22477 -0.86678,1.82799 -0.16067,0.31994 -0.32274,0.63705 -0.49046,0.95417 -0.31148,0.59617 -0.63564,1.18389 -0.96827,1.76597 -0.1663,0.29456 -0.3312,0.58771 -0.50315,0.87524 -0.38335,0.64691 -0.78503,1.28254 -1.19376,1.91113 -0.13529,0.20577 -0.26215,0.41859 -0.39744,0.62014 -0.56518,0.84564 -1.14867,1.67437 -1.75753,2.48618 -0.006,0.007 -0.01,0.0127 -0.0141,0.0197 -0.004,0.004 -0.009,0.009 -0.0112,0.0127 3.19369,4.24934 6.97369,8.03074 11.22443,11.22303 9.37954,7.04557 21.03806,11.22443 33.6733,11.22443 30.99263,0 56.11935,-25.12531 56.11935,-56.11935 0.003,-19.98806 -10.45349,-37.52236 -26.18659,-47.46424 z" id="path4437-7"/> </svg>