<?xml version="1.0" encoding="UTF-8" standalone="no"?>
<!-- Created with Inkscape (http://www.inkscape.org/) -->
<svg xmlns:dc="http://purl.org/dc/elements/1.1/" xmlns:cc="http://creativecommons.org/ns#" xmlns:rdf="http://www.w3.org/1999/02/22-rdf-syntax-ns#" xmlns:svg="http://www.w3.org/2000/svg" xmlns="http://www.w3.org/2000/svg" xmlns:sodipodi="http://sodipodi.sourceforge.net/DTD/sodipodi-0.dtd" xmlns:inkscape="http://www.inkscape.org/namespaces/inkscape" width="66.359802mm" height="54.865879mm" viewBox="0 0 235.13316 194.40666" id="svg4289" version="1.1" inkscape:version="0.91 r13725" sodipodi:docname="logo_text_als_pfade.svg">
  <defs id="defs4291">
    <clipPath clipPathUnits="userSpaceOnUse" id="clipPath4266-4-7-3-3-3-3">
      <path id="path4268-7-5-9-9-1-7" style="opacity:1;fill:none;fill-opacity:1;stroke:#000000;stroke-width:1.77165353;stroke-linejoin:round;stroke-miterlimit:4;stroke-dasharray:none;stroke-opacity:1" d="m 377.2342,193.40785 c -0.95995,-5.81428 -3.29878,-9.42235 -3.15561,-17.16708 13.56503,6.5421 24.85436,-7.05267 20.00373,-19.83074 -3.19007,-8.40363 -19.74663,-13.70201 -23.72992,-29.15038 -3.98329,15.44837 -20.53985,20.74675 -23.72992,29.15038 -4.85063,12.77807 6.4387,26.37284 20.00373,19.83074 0.14317,7.74473 -2.19566,11.3528 -3.15561,17.16708 l 6.8818,0.0355 z" inkscape:connector-curvature="0" sodipodi:nodetypes="ccscscccc"/>
    </clipPath>
    <clipPath clipPathUnits="userSpaceOnUse" id="clipPath4266-42-3-2-5-5-2">
      <path id="path4268-8-31-6-7-8-8" style="opacity:1;fill:none;fill-opacity:1;stroke:#000000;stroke-width:1.77165353;stroke-linejoin:round;stroke-miterlimit:4;stroke-dasharray:none;stroke-opacity:1" d="m 377.2342,193.40785 c -0.95995,-5.81428 -3.29878,-9.42235 -3.15561,-17.16708 13.56503,6.5421 24.85436,-7.05267 20.00373,-19.83074 -3.19007,-8.40363 -19.74663,-13.70201 -23.72992,-29.15038 -3.98329,15.44837 -20.53985,20.74675 -23.72992,29.15038 -4.85063,12.77807 6.4387,26.37284 20.00373,19.83074 0.14317,7.74473 -2.19566,11.3528 -3.15561,17.16708 l 6.8818,0.0355 z" inkscape:connector-curvature="0" sodipodi:nodetypes="ccscscccc"/>
    </clipPath>
    <clipPath clipPathUnits="userSpaceOnUse" id="clipPath4266-42-4-4-3-8-2-3">
      <path id="path4268-8-3-2-3-5-2-8" style="opacity:1;fill:none;fill-opacity:1;stroke:#000000;stroke-width:1.77165353;stroke-linejoin:round;stroke-miterlimit:4;stroke-dasharray:none;stroke-opacity:1" d="m 377.2342,193.40785 c -0.95995,-5.81428 -3.29878,-9.42235 -3.15561,-17.16708 13.56503,6.5421 24.85436,-7.05267 20.00373,-19.83074 -3.19007,-8.40363 -19.74663,-13.70201 -23.72992,-29.15038 -3.98329,15.44837 -20.53985,20.74675 -23.72992,29.15038 -4.85063,12.77807 6.4387,26.37284 20.00373,19.83074 0.14317,7.74473 -2.19566,11.3528 -3.15561,17.16708 l 6.8818,0.0355 z" inkscape:connector-curvature="0" sodipodi:nodetypes="ccscscccc"/>
    </clipPath>
    <clipPath clipPathUnits="userSpaceOnUse" id="clipPath4419-6-9-6-7-9-7-9-8">
      <path id="path4421-6-7-2-2-4-3-8-4" style="opacity:1;fill:none;fill-opacity:1;stroke:#000000;stroke-width:2.13555264;stroke-linejoin:round;stroke-miterlimit:4;stroke-dasharray:none;stroke-opacity:1" d="m 341.78337,159.75634 c -7.44644,-18.72048 16.25698,-44.14734 34.75559,-24.41889 18.49863,-19.72845 42.20205,5.69841 34.75562,24.41889 -7.53286,18.93777 -23.8026,15.48662 -34.75562,34.62299 -10.953,-19.13637 -27.22273,-15.68522 -34.75559,-34.62299 z" inkscape:connector-curvature="0" sodipodi:nodetypes="scscs"/>
    </clipPath>
    <clipPath clipPathUnits="userSpaceOnUse" id="clipPath4419-6-9-2-6-2-5-2-0-1">
      <path id="path4421-6-7-4-6-00-4-7-9-4" style="opacity:1;fill:none;fill-opacity:1;stroke:#000000;stroke-width:2.13555264;stroke-linejoin:round;stroke-miterlimit:4;stroke-dasharray:none;stroke-opacity:1" d="m 341.78337,159.75634 c -7.44644,-18.72048 16.25698,-44.14734 34.75559,-24.41889 18.49863,-19.72845 42.20205,5.69841 34.75562,24.41889 -7.53286,18.93777 -23.8026,15.48662 -34.75562,34.62299 -10.953,-19.13637 -27.22273,-15.68522 -34.75559,-34.62299 z" inkscape:connector-curvature="0" sodipodi:nodetypes="scscs"/>
    </clipPath>
    <clipPath clipPathUnits="userSpaceOnUse" id="clipPath4419-6-9-2-6-4-6-5-2-5-7">
      <path id="path4421-6-7-4-6-0-9-2-6-7-2" style="opacity:1;fill:none;fill-opacity:1;stroke:#000000;stroke-width:2.13555264;stroke-linejoin:round;stroke-miterlimit:4;stroke-dasharray:none;stroke-opacity:1" d="m 341.78337,159.75634 c -7.44644,-18.72048 16.25698,-44.14734 34.75559,-24.41889 18.49863,-19.72845 42.20205,5.69841 34.75562,24.41889 -7.53286,18.93777 -23.8026,15.48662 -34.75562,34.62299 -10.953,-19.13637 -27.22273,-15.68522 -34.75559,-34.62299 z" inkscape:connector-curvature="0" sodipodi:nodetypes="scscs"/>
    </clipPath>
  </defs>
  <sodipodi:namedview id="base" pagecolor="#ffffff" bordercolor="#666666" borderopacity="1.0" inkscape:pageopacity="0.0" inkscape:pageshadow="2" inkscape:zoom="1.4" inkscape:cx="46.161791" inkscape:cy="35.308731" inkscape:document-units="px" inkscape:current-layer="g6454-8-7-8" showgrid="false" fit-margin-top="0" fit-margin-left="0" fit-margin-right="0" fit-margin-bottom="0" inkscape:window-width="1315" inkscape:window-height="723" inkscape:window-x="51" inkscape:window-y="23" inkscape:window-maximized="1"/>
  <metadata id="metadata4294">
    <rdf:RDF>
      <cc:Work rdf:about="">
        <dc:format>image/svg+xml</dc:format>
        <dc:type rdf:resource="http://purl.org/dc/dcmitype/StillImage"/>
        <dc:title/>
      </cc:Work>
    </rdf:RDF>
  </metadata>
  <g inkscape:label="Ebene 1" inkscape:groupmode="layer" id="layer1" transform="translate(-65.290565,-60.873156)">
    <g id="g12008" transform="matrix(0.67427455,-0.08876993,0.08876993,0.67427455,129.23038,101.79375)">
      <g transform="matrix(0.96592583,0.25881904,-0.25881904,0.96592583,-302.38597,-212.16857)" id="g6528-2-6-6">
        <rect style="opacity:1;fill:#ffffff;fill-opacity:1;stroke:#000000;stroke-width:1.77165353;stroke-linejoin:round;stroke-miterlimit:4;stroke-dasharray:none;stroke-opacity:1" id="rect4136-5-8-3-7-8" width="168.57143" height="234.28572" x="423.76596" y="54.994419" ry="14.483733"/>
        <g transform="matrix(1.5591928,0,0,1.5591928,-110.91042,-29.044978)" id="g4285-4-8-0-6-7-5">
          <g transform="translate(26.15068,-30.668601)" clip-path="url(#clipPath4266-4-7-3-3-3-3)" id="g4204-3-51-3-1-3-1">
            <rect style="opacity:1;fill:#000000;fill-opacity:1;stroke:none;stroke-width:1.77165353;stroke-linejoin:round;stroke-miterlimit:4;stroke-dasharray:none;stroke-opacity:1" id="rect4160-83-6-3-9-9-9" width="96.798164" height="16.546694" x="326.52145" y="127.031" ry="0"/>
            <rect style="opacity:1;fill:#a3a3a3;fill-opacity:1;stroke:none;stroke-width:1.77165353;stroke-linejoin:round;stroke-miterlimit:4;stroke-dasharray:none;stroke-opacity:1" id="rect4160-2-8-7-1-4-3-8" width="96.798164" height="16.546694" x="326.52145" y="143.5777" ry="0"/>
            <rect style="opacity:1;fill:#ffffff;fill-opacity:1;stroke:none;stroke-width:1.77165353;stroke-linejoin:round;stroke-miterlimit:4;stroke-dasharray:none;stroke-opacity:1" id="rect4160-8-88-6-2-5-3-0" width="96.798164" height="16.546694" x="326.52145" y="160.12439" ry="0"/>
            <rect style="opacity:1;fill:#940b92;fill-opacity:1;stroke:none;stroke-width:1.77165353;stroke-linejoin:round;stroke-miterlimit:4;stroke-dasharray:none;stroke-opacity:1" id="rect4160-7-7-0-7-2-1-6" width="96.798164" height="16.546694" x="326.52145" y="176.67108" ry="0"/>
          </g>
          <path sodipodi:nodetypes="ccscscccc" inkscape:connector-curvature="0" d="m 403.38488,161.62785 c -0.95995,-5.81428 -3.29878,-9.42235 -3.15561,-17.16708 13.56503,6.5421 24.85436,-7.05267 20.00373,-19.83074 -3.19007,-8.40363 -19.74663,-13.70201 -23.72992,-29.150382 -3.98329,15.448372 -20.53985,20.746752 -23.72992,29.150382 -4.85063,12.77807 6.4387,26.37284 20.00373,19.83074 0.14317,7.74473 -2.19566,11.3528 -3.15561,17.16708 l 6.8818,0.0355 z" style="opacity:1;fill:none;fill-opacity:1;stroke:#000000;stroke-width:1.77165353;stroke-linejoin:round;stroke-miterlimit:4;stroke-dasharray:none;stroke-opacity:1" id="use4156-7-8-7-6-6-2-4-7"/>
        </g>
        <g id="g6454-8-7-8" transform="translate(4,0)">
          <g style="font-style:normal;font-weight:normal;font-size:15px;line-height:125%;font-family:sans-serif;letter-spacing:0px;word-spacing:0px;fill:#000000;fill-opacity:1;stroke:none;stroke-width:1px;stroke-linecap:butt;stroke-linejoin:miter;stroke-opacity:1" id="text4138-1-0-4-7-5">
            <path d="m 434.76913,86.220116 0,-1.624756 1.63819,0 7.54638,-18.422852 3.20923,0 7.55982,18.422852 1.90674,0 0,1.624756 -9.38599,0 0,-1.624756 1.96045,0 -1.65161,-4.095459 -7.53296,0 -1.67847,4.095459 2.39014,0 0,1.624756 -5.96192,0 z m 5.90821,-7.344971 6.21704,0 -3.08838,-7.667236 -3.12866,7.667236 z" style="font-style:normal;font-variant:normal;font-weight:bold;font-stretch:normal;font-size:27.5px;font-family:serif;-inkscape-font-specification:'serif Bold'" id="path3420"/>
            <path d="m 471.81625,81.762108 q -0.51025,2.443848 -2.09472,3.652344 -1.57105,1.195068 -4.28345,1.195068 -3.81348,0 -5.9082,-1.973877 -2.09473,-1.973877 -2.09473,-5.559082 0,-3.544922 2.06787,-5.532227 2.06787,-1.987304 5.74707,-1.987304 1.49048,0 3.00781,0.281982 1.51734,0.281983 3.08838,0.845947 l 0,3.961182 -1.5039,0 q -0.21485,-1.812744 -1.06079,-2.685547 -0.84595,-0.88623 -2.37671,-0.88623 -1.98731,0 -2.83326,1.342773 -0.83251,1.342774 -0.83251,4.659424 0,3.236084 0.81909,4.632568 0.81909,1.383057 2.67212,1.383057 1.43676,0 2.29614,-0.859375 0.8728,-0.859375 1.06079,-2.470703 l 2.229,0 z" style="font-style:normal;font-variant:normal;font-weight:bold;font-stretch:normal;font-size:27.5px;font-family:serif;-inkscape-font-specification:'serif Bold'" id="path3422"/>
            <path d="m 484.0892,78.163475 q 0,-2.819824 -0.52368,-3.947754 -0.52368,-1.141357 -1.78589,-1.141357 -1.22192,0 -1.75903,1.114502 -0.52368,1.114502 -0.52368,3.73291 l 0,0.241699 4.59228,0 z m 5.22339,1.5979 -9.81567,0 0,0.107422 q 0,2.766114 0.83252,4.001465 0.83252,1.221924 2.68554,1.221924 1.54419,0 2.49756,-0.819092 0.95337,-0.819092 1.22193,-2.376709 l 2.229,0 q -0.57739,2.43042 -2.29614,3.571778 -1.71875,1.141357 -4.80713,1.141357 -3.70606,0 -5.69336,-1.947022 -1.97388,-1.960449 -1.97388,-5.585937 0,-3.544922 2.02759,-5.532227 2.02759,-1.987304 5.63965,-1.987304 3.54492,0 5.43823,2.094726 1.89331,2.081299 2.01416,6.109619 z" style="font-style:normal;font-variant:normal;font-weight:bold;font-stretch:normal;font-size:27.5px;font-family:serif;-inkscape-font-specification:'serif Bold'" id="path3424"/>
            <path d="m 491.86386,85.803856 0,-3.988037 1.51734,0 q 0.18798,1.5979 1.19506,2.443847 1.00708,0.83252 2.73926,0.83252 1.4502,0 2.21558,-0.496826 0.77881,-0.510254 0.77881,-1.450196 0,-0.859375 -0.49683,-1.329345 -0.4834,-0.469971 -1.89331,-0.819092 l -1.96045,-0.496826 q -2.21558,-0.550537 -3.20923,-1.571045 -0.99365,-1.033936 -0.99365,-2.779541 0,-2.322998 1.61133,-3.450928 1.61133,-1.141357 4.96826,-1.141357 1.26221,0 2.68555,0.214843 1.43676,0.201416 3.16894,0.644532 l 0,3.598633 -1.51733,0 q -0.12085,-1.463624 -1.04737,-2.202149 -0.91308,-0.738525 -2.63183,-0.738525 -1.4502,0 -2.20215,0.46997 -0.73853,0.456543 -0.73853,1.342774 0,0.725098 0.42969,1.141357 0.42969,0.41626 1.54419,0.698242 l 1.94702,0.496827 q 2.8064,0.71167 3.88062,1.759033 1.07422,1.047363 1.07422,2.913818 0,2.416992 -1.73218,3.571778 -1.71875,1.141357 -5.35767,1.141357 -1.32934,0 -2.81982,-0.201416 -1.49048,-0.201416 -3.15552,-0.604248 z" style="font-style:normal;font-variant:normal;font-weight:bold;font-stretch:normal;font-size:27.5px;font-family:serif;-inkscape-font-specification:'serif Bold'" id="path3426"/>
          </g>
          <g id="g4285-8-5-8-2-8-0" transform="matrix(0.38790908,0,0,0.38790908,292.33343,58.346234)">
            <g id="g4204-5-9-7-9-0-8" clip-path="url(#clipPath4266-42-3-2-5-5-2)" transform="translate(26.15068,-30.668601)">
              <rect ry="0" y="127.031" x="326.52145" height="16.546694" width="96.798164" id="rect4160-4-2-5-9-2-5" style="opacity:1;fill:#000000;fill-opacity:1;stroke:none;stroke-width:1.77165353;stroke-linejoin:round;stroke-miterlimit:4;stroke-dasharray:none;stroke-opacity:1"/>
              <rect ry="0" y="143.5777" x="326.52145" height="16.546694" width="96.798164" id="rect4160-2-1-2-1-9-2-9" style="opacity:1;fill:#a3a3a3;fill-opacity:1;stroke:none;stroke-width:1.77165353;stroke-linejoin:round;stroke-miterlimit:4;stroke-dasharray:none;stroke-opacity:1"/>
              <rect ry="0" y="160.12439" x="326.52145" height="16.546694" width="96.798164" id="rect4160-8-1-2-6-0-7-3" style="opacity:1;fill:#ffffff;fill-opacity:1;stroke:none;stroke-width:1.77165353;stroke-linejoin:round;stroke-miterlimit:4;stroke-dasharray:none;stroke-opacity:1"/>
              <rect ry="0" y="176.67108" x="326.52145" height="16.546694" width="96.798164" id="rect4160-7-2-3-3-4-2-7" style="opacity:1;fill:#940b92;fill-opacity:1;stroke:none;stroke-width:1.77165353;stroke-linejoin:round;stroke-miterlimit:4;stroke-dasharray:none;stroke-opacity:1"/>
            </g>
            <path id="use4156-7-8-5-0-2-6-7-3" style="opacity:1;fill:none;fill-opacity:1;stroke:#000000;stroke-width:1.77165353;stroke-linejoin:round;stroke-miterlimit:4;stroke-dasharray:none;stroke-opacity:1" d="m 403.38488,161.62785 c -0.95995,-5.81428 -3.29878,-9.42235 -3.15561,-17.16708 13.56503,6.5421 24.85436,-7.05267 20.00373,-19.83074 -3.19007,-8.40363 -19.74663,-13.70201 -23.72992,-29.150382 -3.98329,15.448372 -20.53985,20.746752 -23.72992,29.150382 -4.85063,12.77807 6.4387,26.37284 20.00373,19.83074 0.14317,7.74473 -2.19566,11.3528 -3.15561,17.16708 l 6.8818,0.0355 z" inkscape:connector-curvature="0" sodipodi:nodetypes="ccscscccc"/>
          </g>
        </g>
        <g id="g6465-3-1-1" transform="translate(-4,0)">
          <text transform="scale(-1,-1)" sodipodi:linespacing="125%" id="text4138-4-4-8-9-8-1" y="-258.05444" x="-581.11938" style="font-style:normal;font-weight:normal;font-size:15px;line-height:125%;font-family:sans-serif;letter-spacing:0px;word-spacing:0px;fill:#000000;fill-opacity:1;stroke:none;stroke-width:1px;stroke-linecap:butt;stroke-linejoin:miter;stroke-opacity:1" xml:space="preserve"><tspan style="font-style:normal;font-variant:normal;font-weight:bold;font-stretch:normal;font-size:27.5px;font-family:serif;-inkscape-font-specification:'serif Bold'" y="-258.05444" x="-581.11938" id="tspan4140-0-9-1-2-4-4" sodipodi:role="line">A</tspan></text>
          <g id="g4285-8-32-7-2-4-5-3" transform="matrix(-0.38790908,0,0,-0.38790908,723.76993,285.92832)">
            <g id="g4204-5-41-2-0-5-2-7" clip-path="url(#clipPath4266-42-4-4-3-8-2-3)" transform="translate(26.15068,-30.668601)">
              <rect ry="0" y="127.031" x="326.52145" height="16.546694" width="96.798164" id="rect4160-4-5-7-7-8-8-0" style="opacity:1;fill:#000000;fill-opacity:1;stroke:none;stroke-width:1.77165353;stroke-linejoin:round;stroke-miterlimit:4;stroke-dasharray:none;stroke-opacity:1"/>
              <rect ry="0" y="143.5777" x="326.52145" height="16.546694" width="96.798164" id="rect4160-2-1-73-0-5-9-5-3" style="opacity:1;fill:#a3a3a3;fill-opacity:1;stroke:none;stroke-width:1.77165353;stroke-linejoin:round;stroke-miterlimit:4;stroke-dasharray:none;stroke-opacity:1"/>
              <rect ry="0" y="160.12439" x="326.52145" height="16.546694" width="96.798164" id="rect4160-8-1-5-3-7-7-3-8" style="opacity:1;fill:#ffffff;fill-opacity:1;stroke:none;stroke-width:1.77165353;stroke-linejoin:round;stroke-miterlimit:4;stroke-dasharray:none;stroke-opacity:1"/>
              <rect ry="0" y="176.67108" x="326.52145" height="16.546694" width="96.798164" id="rect4160-7-2-7-8-0-8-6-5" style="opacity:1;fill:#940b92;fill-opacity:1;stroke:none;stroke-width:1.77165353;stroke-linejoin:round;stroke-miterlimit:4;stroke-dasharray:none;stroke-opacity:1"/>
            </g>
            <path id="use4156-7-8-5-1-1-6-8-8-1" style="opacity:1;fill:none;fill-opacity:1;stroke:#000000;stroke-width:1.77165353;stroke-linejoin:round;stroke-miterlimit:4;stroke-dasharray:none;stroke-opacity:1" d="m 403.38488,161.62785 c -0.95995,-5.81428 -3.29878,-9.42235 -3.15561,-17.16708 13.56503,6.5421 24.85436,-7.05267 20.00373,-19.83074 -3.19007,-8.40363 -19.74663,-13.70201 -23.72992,-29.150382 -3.98329,15.448372 -20.53985,20.746752 -23.72992,29.150382 -4.85063,12.77807 6.4387,26.37284 20.00373,19.83074 0.14317,7.74473 -2.19566,11.3528 -3.15561,17.16708 l 6.8818,0.0355 z" inkscape:connector-curvature="0" sodipodi:nodetypes="ccscscccc"/>
          </g>
        </g>
      </g>
      <g transform="matrix(0.96592583,-0.25881904,0.25881904,0.96592583,-713.21028,107.7398)" id="g6498-8-3-2">
        <rect style="opacity:1;fill:#ffffff;fill-opacity:1;stroke:#000000;stroke-width:1.77165353;stroke-linejoin:round;stroke-miterlimit:4;stroke-dasharray:none;stroke-opacity:1" id="rect4136-6-3-5-7-6-2" width="168.57143" height="234.28572" x="621.76599" y="54.994423" ry="14.483733"/>
        <g transform="matrix(1.2341887,0,0,1.2341887,142.73053,119.26335)" id="g4423-2-4-7-9-7-4-9-2">
          <g clip-path="url(#clipPath4419-6-9-6-7-9-7-9-8)" id="g4204-1-0-0-3-9-4-9-0-3-8" transform="translate(79.891346,-119.51324)">
            <rect style="opacity:1;fill:#000000;fill-opacity:1;stroke:none;stroke-width:1.77165353;stroke-linejoin:round;stroke-miterlimit:4;stroke-dasharray:none;stroke-opacity:1" id="rect4160-3-4-7-6-1-8-7-7-2-8" width="96.798164" height="16.546694" x="326.52145" y="127.031" ry="0"/>
            <rect style="opacity:1;fill:#a3a3a3;fill-opacity:1;stroke:none;stroke-width:1.77165353;stroke-linejoin:round;stroke-miterlimit:4;stroke-dasharray:none;stroke-opacity:1" id="rect4160-2-7-0-5-3-6-6-0-7-3-5" width="96.798164" height="16.546694" x="326.52145" y="143.5777" ry="0"/>
            <rect style="opacity:1;fill:#ffffff;fill-opacity:1;stroke:none;stroke-width:1.77165353;stroke-linejoin:round;stroke-miterlimit:4;stroke-dasharray:none;stroke-opacity:1" id="rect4160-8-8-0-5-0-7-9-2-6-2-7" width="96.798164" height="16.546694" x="326.52145" y="160.12439" ry="0"/>
            <rect style="opacity:1;fill:#940b92;fill-opacity:1;stroke:none;stroke-width:1.77165353;stroke-linejoin:round;stroke-miterlimit:4;stroke-dasharray:none;stroke-opacity:1" id="rect4160-7-3-0-4-7-7-1-4-1-7-4" width="96.798164" height="16.546694" x="326.52145" y="176.67108" ry="0"/>
          </g>
          <path sodipodi:nodetypes="scscs" inkscape:connector-curvature="0" d="m 421.67472,41.310872 c -7.44644,-18.720474 16.25698,-44.1473317 34.75559,-24.418886 18.49863,-19.7284457 42.20205,5.698412 34.75562,24.418886 -7.53286,18.937777 -23.8026,15.486627 -34.75562,34.622997 -10.953,-19.13637 -27.22273,-15.68522 -34.75559,-34.622997 z" style="opacity:1;fill:none;fill-opacity:1;stroke:#000000;stroke-width:2.13555264;stroke-linejoin:round;stroke-miterlimit:4;stroke-dasharray:none;stroke-opacity:1" id="use4353-89-2-3-3-7-2-6-1-5"/>
        </g>
        <g id="g6487-6-6-5" transform="translate(4,0)">
          <g style="font-style:normal;font-weight:normal;font-size:15px;line-height:125%;font-family:sans-serif;letter-spacing:0px;word-spacing:0px;fill:#000000;fill-opacity:1;stroke:none;stroke-width:1px;stroke-linecap:butt;stroke-linejoin:miter;stroke-opacity:1" id="text4138-0-4-9-3-0-0">
            <path d="m 632.76917,86.220123 0,-1.624756 1.63818,0 7.54639,-18.422851 3.20922,0 7.55982,18.422851 1.90674,0 0,1.624756 -9.38599,0 0,-1.624756 1.96045,0 -1.65161,-4.095459 -7.53296,0 -1.67847,4.095459 2.39014,0 0,1.624756 -5.96191,0 z m 5.9082,-7.34497 6.21704,0 -3.08838,-7.667237 -3.12866,7.667237 z" style="font-style:normal;font-variant:normal;font-weight:bold;font-stretch:normal;font-size:27.5px;font-family:serif;-inkscape-font-specification:'serif Bold'" id="path3405"/>
            <path d="m 670.99792,74.282867 q 0.99366,-1.423339 2.14844,-2.067871 1.15479,-0.657959 2.69898,-0.657959 2.45727,0 3.66577,1.396485 1.22192,1.383056 1.22192,4.189453 l 0,7.452392 2.04102,0 0,1.624756 -8.49976,0 0,-1.624756 1.70532,0 0,-6.740722 q 0,-2.672119 -0.41626,-3.370362 -0.40283,-0.698242 -1.51733,-0.698242 -1.26221,0 -1.96045,0.980225 -0.69824,0.966797 -0.69824,2.766113 l 0,7.062988 1.70532,0 0,1.624756 -8.16406,0 0,-1.624756 1.70532,0 0,-6.740722 q 0,-2.672119 -0.41626,-3.370362 -0.41626,-0.698242 -1.51733,-0.698242 -1.27564,0 -1.97388,0.980225 -0.69824,0.966797 -0.69824,2.766113 l 0,7.062988 1.70532,0 0,1.624756 -8.48633,0 0,-1.624756 2.02759,0 0,-11.024169 -2.02759,0 0,-1.624756 6.78101,0 0,2.01416 q 0.83252,-1.248779 1.90674,-1.826172 1.07422,-0.577393 2.55127,-0.577393 1.7456,0 2.83325,0.671387 1.08764,0.657959 1.67846,2.054443 z" style="font-style:normal;font-variant:normal;font-weight:bold;font-stretch:normal;font-size:27.5px;font-family:serif;-inkscape-font-specification:'serif Bold'" id="path3407"/>
            <path d="m 698.56506,77.451813 0,7.143554 2.04102,0 0,1.624756 -6.79443,0 0,-1.812744 q -0.93995,1.12793 -2.09473,1.665039 -1.15479,0.53711 -2.63184,0.53711 -2.18872,0 -3.37036,-1.168213 -1.16821,-1.181641 -1.16821,-3.370362 0,-2.403564 1.67847,-3.598632 1.69189,-1.195069 5.08911,-1.195069 l 2.49756,0 0,-0.845947 q 0,-1.732178 -0.8191,-2.55127 -0.81909,-0.832519 -2.53784,-0.832519 -1.42334,0 -2.20215,0.59082 -0.76538,0.577393 -1.08764,1.906738 l -1.51734,0 0,-3.074951 q 1.27564,-0.456543 2.64527,-0.684814 1.36963,-0.228272 2.88696,-0.228272 3.8269,0 5.59936,1.42334 1.78589,1.42334 1.78589,4.471436 z m -4.75341,4.283447 0,-2.860107 -1.78589,0 q -1.32935,0 -2.04102,0.725097 -0.71167,0.725098 -0.71167,2.081299 0,1.356201 0.51026,2.027588 0.52368,0.671387 1.58447,0.671387 1.10107,0 1.77246,-0.725098 0.67139,-0.725098 0.67139,-1.920166 z" style="font-style:normal;font-variant:normal;font-weight:bold;font-stretch:normal;font-size:27.5px;font-family:serif;-inkscape-font-specification:'serif Bold'" id="path3409"/>
            <path d="m 702.21741,86.220123 0,-1.624756 8.19092,-11.07788 -6.16333,0 0,2.443847 -1.59791,0 0,-4.014892 13.29346,0 0,1.5979 -8.20434,11.077881 6.60644,0 0,-2.578125 1.5979,0 0,4.176025 -13.72314,0 z" style="font-style:normal;font-variant:normal;font-weight:bold;font-stretch:normal;font-size:27.5px;font-family:serif;-inkscape-font-specification:'serif Bold'" id="path3411"/>
            <path d="m 719.40491,67.904694 q 0,-1.087647 0.75195,-1.826172 0.75195,-0.751953 1.8396,-0.751953 1.06079,0 1.79932,0.751953 0.75195,0.738525 0.75195,1.826172 0,1.060791 -0.75195,1.812744 -0.73853,0.738525 -1.79932,0.738525 -1.08765,0 -1.8396,-0.738525 -0.75195,-0.738526 -0.75195,-1.812744 z m 5.19653,16.690673 2.04102,0 0,1.624756 -8.82203,0 0,-1.624756 2.02759,0 0,-11.024169 -2.02759,0 0,-1.624756 6.78101,0 0,12.648925 z" style="font-style:normal;font-variant:normal;font-weight:bold;font-stretch:normal;font-size:27.5px;font-family:serif;-inkscape-font-specification:'serif Bold'" id="path3413"/>
            <path d="m 728.29407,86.220123 0,-1.624756 2.02759,0 0,-11.024169 -2.02759,0 0,-1.624756 6.781,0 0,2.01416 q 0.85938,-1.275635 1.96045,-1.8396 1.10108,-0.563965 2.77954,-0.563965 2.40357,0 3.62549,1.42334 1.23535,1.409912 1.23535,4.162598 l 0,7.452392 2.04102,0 0,1.624756 -8.52661,0 0,-1.624756 1.73218,0 0,-7.586669 q 0,-1.812745 -0.46998,-2.510987 -0.45654,-0.71167 -1.5979,-0.71167 -1.43676,0 -2.10815,1.060791 -0.67139,1.047364 -0.67139,3.343506 l 0,6.405029 1.74561,0 0,1.624756 -8.52661,0 z" style="font-style:normal;font-variant:normal;font-weight:bold;font-stretch:normal;font-size:27.5px;font-family:serif;-inkscape-font-specification:'serif Bold'" id="path3415"/>
            <path d="m 763.89099,73.571198 0,12.460937 q 0,3.007813 -2.14844,4.645996 -2.13501,1.651611 -6.04248,1.651611 -1.42334,0 -2.88696,-0.228271 -1.46362,-0.214844 -3.00781,-0.657959 l 0,-3.410645 1.51733,0 q 0.20142,1.409913 1.12793,2.094727 0.93994,0.684814 2.67212,0.684814 2.20215,0 3.10181,-1.060791 0.91308,-1.047363 0.91308,-3.719482 l 0,-1.624756 q -0.60424,1.114502 -1.63818,1.665039 -1.02051,0.53711 -2.52441,0.53711 -3.03467,0 -4.78028,-2.014161 -1.73218,-2.01416 -1.73218,-5.518798 0,-3.518067 1.73218,-5.518799 1.74561,-2.000733 4.78028,-2.000733 1.5039,0 2.52441,0.550537 1.03394,0.53711 1.63818,1.651612 l 0,-1.812744 6.78101,0 0,1.624756 -2.02759,0 z m -4.75342,4.807128 q 0,-2.497558 -0.64453,-3.61206 -0.64453,-1.114502 -2.05444,-1.114502 -1.47705,0 -2.0813,1.181641 -0.59082,1.168212 -0.59082,4.243164 0,3.074951 0.60425,4.256591 0.60425,1.181641 2.06787,1.181641 1.40991,0 2.05444,-1.114502 0.64453,-1.114502 0.64453,-3.61206 l 0,-1.409913 z" style="font-style:normal;font-variant:normal;font-weight:bold;font-stretch:normal;font-size:27.5px;font-family:serif;-inkscape-font-specification:'serif Bold'" id="path3417"/>
          </g>
          <g id="g4423-2-4-3-6-04-7-3-7-1" transform="matrix(0.29985374,0,0,0.29985374,507.07295,95.374286)">
            <g transform="translate(79.891346,-119.51324)" id="g4204-1-0-0-3-6-2-7-6-4-1-9" clip-path="url(#clipPath4419-6-9-2-6-2-5-2-0-1)">
              <rect ry="0" y="127.031" x="326.52145" height="16.546694" width="96.798164" id="rect4160-3-4-7-6-2-9-2-1-7-9-9" style="opacity:1;fill:#000000;fill-opacity:1;stroke:none;stroke-width:1.77165353;stroke-linejoin:round;stroke-miterlimit:4;stroke-dasharray:none;stroke-opacity:1"/>
              <rect ry="0" y="143.5777" x="326.52145" height="16.546694" width="96.798164" id="rect4160-2-7-0-5-3-0-8-1-4-0-7-2" style="opacity:1;fill:#a3a3a3;fill-opacity:1;stroke:none;stroke-width:1.77165353;stroke-linejoin:round;stroke-miterlimit:4;stroke-dasharray:none;stroke-opacity:1"/>
              <rect ry="0" y="160.12439" x="326.52145" height="16.546694" width="96.798164" id="rect4160-8-8-0-5-0-3-0-1-5-1-9-1" style="opacity:1;fill:#ffffff;fill-opacity:1;stroke:none;stroke-width:1.77165353;stroke-linejoin:round;stroke-miterlimit:4;stroke-dasharray:none;stroke-opacity:1"/>
              <rect ry="0" y="176.67108" x="326.52145" height="16.546694" width="96.798164" id="rect4160-7-3-0-4-7-8-0-8-8-9-6-1" style="opacity:1;fill:#940b92;fill-opacity:1;stroke:none;stroke-width:1.77165353;stroke-linejoin:round;stroke-miterlimit:4;stroke-dasharray:none;stroke-opacity:1"/>
            </g>
            <path id="use4353-89-2-3-8-3-3-2-5-6-2" style="opacity:1;fill:none;fill-opacity:1;stroke:#000000;stroke-width:2.13555264;stroke-linejoin:round;stroke-miterlimit:4;stroke-dasharray:none;stroke-opacity:1" d="m 421.67472,41.310872 c -7.44644,-18.720474 16.25698,-44.1473317 34.75559,-24.418886 18.49863,-19.7284457 42.20205,5.698412 34.75562,24.418886 -7.53286,18.937777 -23.8026,15.486627 -34.75562,34.622997 -10.953,-19.13637 -27.22273,-15.68522 -34.75559,-34.622997 z" inkscape:connector-curvature="0" sodipodi:nodetypes="scscs"/>
          </g>
        </g>
        <g id="g6476-7-6-5" transform="translate(-4,0)">
          <text transform="scale(-1,-1)" sodipodi:linespacing="125%" id="text4138-4-2-5-3-5-4-3" y="-258.05444" x="-779.11938" style="font-style:normal;font-weight:normal;font-size:15px;line-height:125%;font-family:sans-serif;letter-spacing:0px;word-spacing:0px;fill:#000000;fill-opacity:1;stroke:none;stroke-width:1px;stroke-linecap:butt;stroke-linejoin:miter;stroke-opacity:1" xml:space="preserve"><tspan style="font-style:normal;font-variant:normal;font-weight:bold;font-stretch:normal;font-size:27.5px;font-family:serif;-inkscape-font-specification:'serif Bold'" y="-258.05444" x="-779.11938" id="tspan4140-0-3-3-6-7-5-9" sodipodi:role="line">A</tspan></text>
          <g id="g4423-2-4-3-6-3-7-8-0-4-6" transform="matrix(-0.29985374,0,0,-0.29985374,903.652,248.90027)">
            <g transform="translate(79.891346,-119.51324)" id="g4204-1-0-0-3-6-2-6-1-8-0-4-6" clip-path="url(#clipPath4419-6-9-2-6-4-6-5-2-5-7)">
              <rect ry="0" y="127.031" x="326.52145" height="16.546694" width="96.798164" id="rect4160-3-4-7-6-2-9-1-6-3-3-3-7" style="opacity:1;fill:#000000;fill-opacity:1;stroke:none;stroke-width:1.77165353;stroke-linejoin:round;stroke-miterlimit:4;stroke-dasharray:none;stroke-opacity:1"/>
              <rect ry="0" y="143.5777" x="326.52145" height="16.546694" width="96.798164" id="rect4160-2-7-0-5-3-0-8-5-94-8-2-3-3" style="opacity:1;fill:#a3a3a3;fill-opacity:1;stroke:none;stroke-width:1.77165353;stroke-linejoin:round;stroke-miterlimit:4;stroke-dasharray:none;stroke-opacity:1"/>
              <rect ry="0" y="160.12439" x="326.52145" height="16.546694" width="96.798164" id="rect4160-8-8-0-5-0-3-0-3-0-6-0-3-9" style="opacity:1;fill:#ffffff;fill-opacity:1;stroke:none;stroke-width:1.77165353;stroke-linejoin:round;stroke-miterlimit:4;stroke-dasharray:none;stroke-opacity:1"/>
              <rect ry="0" y="176.67108" x="326.52145" height="16.546694" width="96.798164" id="rect4160-7-3-0-4-7-8-0-1-0-1-8-1-3" style="opacity:1;fill:#940b92;fill-opacity:1;stroke:none;stroke-width:1.77165353;stroke-linejoin:round;stroke-miterlimit:4;stroke-dasharray:none;stroke-opacity:1"/>
            </g>
            <path id="use4353-89-2-3-8-3-9-24-1-7-0-3" style="opacity:1;fill:none;fill-opacity:1;stroke:#000000;stroke-width:2.13555264;stroke-linejoin:round;stroke-miterlimit:4;stroke-dasharray:none;stroke-opacity:1" d="m 421.67472,41.310872 c -7.44644,-18.720474 16.25698,-44.1473317 34.75559,-24.418886 18.49863,-19.7284457 42.20205,5.698412 34.75562,24.418886 -7.53286,18.937777 -23.8026,15.486627 -34.75562,34.622997 -10.953,-19.13637 -27.22273,-15.68522 -34.75559,-34.622997 z" inkscape:connector-curvature="0" sodipodi:nodetypes="scscs"/>
          </g>
        </g>
      </g>
    </g>
  </g>
</svg>