<?xml version="1.0" encoding="UTF-8" standalone="no"?>
<svg
   xmlns:dc="http://purl.org/dc/elements/1.1/"
   xmlns:cc="http://creativecommons.org/ns#"
   xmlns:rdf="http://www.w3.org/1999/02/22-rdf-syntax-ns#"
   xmlns:svg="http://www.w3.org/2000/svg"
   xmlns="http://www.w3.org/2000/svg"
   xmlns:sodipodi="http://sodipodi.sourceforge.net/DTD/sodipodi-0.dtd"
   xmlns:inkscape="http://www.inkscape.org/namespaces/inkscape"
   id="orig2"
   x="0"
   y="0"
   version="1.1"
   viewBox="0 0 195.2025 109.536"
   xml:space="preserve"
   sodipodi:docname="logo_orig2_mono.svg"
   inkscape:version="0.92.2 5c3e80d, 2017-08-06"><metadata
     id="metadata209"><rdf:RDF><cc:Work
         rdf:about=""><dc:format>image/svg+xml</dc:format><dc:type
           rdf:resource="http://purl.org/dc/dcmitype/StillImage" /><dc:title></dc:title></cc:Work></rdf:RDF></metadata><sodipodi:namedview
     pagecolor="#ffffff"
     bordercolor="#666666"
     borderopacity="1"
     objecttolerance="10"
     gridtolerance="10"
     guidetolerance="10"
     inkscape:pageopacity="0"
     inkscape:pageshadow="2"
     inkscape:window-width="1638"
     inkscape:window-height="1005"
     id="namedview207"
     showgrid="false"
     inkscape:snap-global="false"
     inkscape:zoom="7.2789965"
     inkscape:cx="88.476443"
     inkscape:cy="65.083326"
     inkscape:window-x="42"
     inkscape:window-y="1"
     inkscape:window-maximized="1"
     inkscape:current-layer="orig2"
     inkscape:measure-start="0,0"
     inkscape:measure-end="0,0"
     units="mm" /><defs
     id="defs191"><filter
       id="filterShadow"
       color-interpolation-filters="sRGB"><feFlood
         id="feFlood1277"
         flood-color="#000"
         flood-opacity=".498"
         result="flood" /><feComposite
         id="feComposite1279"
         in="flood"
         in2="SourceGraphic"
         operator="in"
         result="composite1" /><feGaussianBlur
         id="feGaussianBlur1281"
         in="composite1"
         result="blur"
         stdDeviation="1.5" /><feOffset
         id="feOffset1283"
         dx="3"
         dy="3.4"
         result="offset" /><feComposite
         id="finalComposite"
         in="SourceGraphic"
         in2="offset"
         operator="over"
         result="composite2"
         k4="0"
         k3="1"
         k2="0"
         k1="0" /></filter></defs><linearGradient
     id="L00"
     x1="229.3883"
     x2="244.648"
     y1="18.3596"
     y2="53.8551"
     gradientUnits="userSpaceOnUse"
     gradientTransform="matrix(0.9806,0,0,0.9806,-173.43452,38.948056)"><stop
       id="stop4"
       offset="0"
       stop-color="#F48FBF" /><stop
       id="stop1773"
       offset=".5"
       stop-color="#EC3E90" /><stop
       id="stop6"
       offset="1"
       stop-color="#BE1363" /></linearGradient><linearGradient
     id="L01"
     x1="249.7042"
     x2="232.9516"
     y1="29.1336"
     y2="46.052"
     gradientUnits="userSpaceOnUse"
     gradientTransform="matrix(0.9806,0,0,0.9806,-170.16562,40.743356)"><stop
       id="stop10"
       offset="0"
       stop-color="#F48FBF" /><stop
       id="stop1778"
       offset=".5"
       stop-color="#EC3E90" /><stop
       id="stop12"
       offset="1"
       stop-color="#BE1363" /></linearGradient><linearGradient
     id="E30"
     x1="480.3744"
     x2="501.1071"
     y1="17.4293"
     y2="49.1808"
     gradientUnits="userSpaceOnUse"><stop
       id="stop16"
       offset="0"
       stop-color="#6B6B6B" /><stop
       id="stop1783"
       offset=".5"
       stop-color="#363636" /><stop
       id="stop18"
       offset="1"
       stop-color="#000000" /></linearGradient><linearGradient
     id="E31"
     x1="493.9286"
     x2="485.5195"
     y1="41.5532"
     y2="21.8354"
     gradientUnits="userSpaceOnUse"><stop
       id="stop22"
       offset="0"
       stop-color="#6B6B6B" /><stop
       id="stop1788"
       offset=".5"
       stop-color="#363636" /><stop
       id="stop24"
       offset="1"
       stop-color="#000000" /></linearGradient><linearGradient
     id="D00"
     x1="471.2181"
     x2="445.6357"
     y1="41.2834"
     y2="30.3918"
     gradientUnits="userSpaceOnUse"><stop
       id="stop28"
       offset="0"
       stop-color="#6B6B6B" /><stop
       id="stop1793"
       offset=".5"
       stop-color="#363636" /><stop
       id="stop30"
       offset="1"
       stop-color="#000000" /></linearGradient><linearGradient
     id="D01"
     x1="441.0465"
     x2="463.8716"
     y1="32.437"
     y2="32.437"
     gradientUnits="userSpaceOnUse"><stop
       id="stop34"
       offset="0"
       stop-color="#6B6B6B" /><stop
       id="stop1798"
       offset=".5"
       stop-color="#363636" /><stop
       id="stop36"
       offset="1"
       stop-color="#000000" /></linearGradient><linearGradient
     id="P00"
     x1="428.4555"
     x2="435.8497"
     y1="41.3233"
     y2="50.4573"
     gradientUnits="userSpaceOnUse"><stop
       id="stop40"
       offset="0"
       stop-color="#6B6B6B" /><stop
       id="stop1803"
       offset=".5"
       stop-color="#363636" /><stop
       id="stop42"
       offset="1"
       stop-color="#000000" /></linearGradient><linearGradient
     id="R11"
     x1="418.2066"
     x2="397.782"
     y1="20.7083"
     y2="30.5745"
     gradientUnits="userSpaceOnUse"
     gradientTransform="matrix(0.9806,0,0,0.9806,-238.31299,39.81603)"><stop
       id="stop46"
       offset="0"
       stop-color="#93D3FB" /><stop
       id="stop1808"
       offset=".5"
       stop-color="#3FB2F8" /><stop
       id="stop48"
       offset="1"
       stop-color="#0889D9" /></linearGradient><linearGradient
     id="R10"
     x1="395.5869"
     x2="420.889"
     y1="17.8962"
     y2="53.1447"
     gradientUnits="userSpaceOnUse"
     gradientTransform="matrix(0.9806,0,0,0.9806,-241.58189,38.02073)"><stop
       id="stop52"
       offset="0"
       stop-color="#93D3FB" /><stop
       id="stop1813"
       offset=".5"
       stop-color="#3FB2F8" /><stop
       id="stop54"
       offset="1"
       stop-color="#0889D9" /></linearGradient><linearGradient
     id="A10"
     x1="373.5918"
     x2="372.9971"
     y1="15.2047"
     y2="41.3714"
     gradientUnits="userSpaceOnUse"
     gradientTransform="matrix(0.9806,0,0,0.9806,-232.97321,32.424347)"><stop
       id="stop58"
       offset="0"
       stop-color="#93D3FB" /><stop
       id="stop1818"
       offset=".5"
       stop-color="#3FB2F8" /><stop
       id="stop60"
       offset="1"
       stop-color="#0889D9" /></linearGradient><linearGradient
     id="A11"
     x1="355.0282"
     x2="391.6727"
     y1="48.0038"
     y2="40.4132"
     gradientUnits="userSpaceOnUse"><stop
       id="stop64"
       offset="0"
       stop-color="#93D3FB" /><stop
       id="stop1823"
       offset=".5"
       stop-color="#3FB2F8" /><stop
       id="stop66"
       offset="1"
       stop-color="#0889D9" /></linearGradient><linearGradient
     id="E21"
     x1="344.5523"
     x2="338.0107"
     y1="16.8403"
     y2="32.6989"
     gradientUnits="userSpaceOnUse"
     gradientTransform="matrix(0.9806,0,0,0.9806,-223.2332,38.2042)"><stop
       id="stop70"
       offset="0"
       stop-color="#FCEA89" /><stop
       id="stop1828"
       offset=".5"
       stop-color="#F9DA32" /><stop
       id="stop72"
       offset="1"
       stop-color="#CCAD06" /></linearGradient><linearGradient
     id="E20"
     x1="330.5862"
     x2="358.1406"
     y1="25.6537"
     y2="42.9"
     gradientUnits="userSpaceOnUse"
     gradientTransform="matrix(0.9806,0,0,0.9806,-223.2332,38.2042)"><stop
       id="stop76"
       offset="0"
       stop-color="#FCEA89" /><stop
       id="stop1833"
       offset=".5"
       stop-color="#F9DA32" /><stop
       id="stop78"
       offset="1"
       stop-color="#CCAD06" /></linearGradient><linearGradient
     id="Y00"
     x1="296.7784"
     x2="320.9246"
     y1="41.5219"
     y2="9.4734"
     gradientUnits="userSpaceOnUse"
     gradientTransform="matrix(0.9806,0,0,0.9806,-209.04823,31.965623)"><stop
       id="stop82"
       offset="0"
       stop-color="#FCEA89" /><stop
       id="stop1838"
       offset=".5"
       stop-color="#F9DA32" /><stop
       id="stop84"
       offset="1"
       stop-color="#CCAD06" /></linearGradient><linearGradient
     id="Y01"
     x1="297.5605"
     x2="315.4015"
     y1="32.7431"
     y2="30.3643"
     gradientUnits="userSpaceOnUse"
     gradientTransform="matrix(0.9806,0,0,0.9806,-205.77933,33.760923)"><stop
       id="stop88"
       offset="0"
       stop-color="#FCEA89" /><stop
       id="stop1843"
       offset=".5"
       stop-color="#F9DA32" /><stop
       id="stop90"
       offset="1"
       stop-color="#CCAD06" /></linearGradient><linearGradient
     id="L10"
     x1="277.5868"
     x2="252.8727"
     y1="26.9683"
     y2="42.0622"
     gradientUnits="userSpaceOnUse"
     gradientTransform="matrix(0.9806,0,0,0.9806,-191.83489,31.9755)"><stop
       id="stop94"
       offset="0"
       stop-color="#F48FBF" /><stop
       id="stop1848"
       offset=".5"
       stop-color="#EC3E90" /><stop
       id="stop96"
       offset="1"
       stop-color="#BE1363" /></linearGradient><linearGradient
     id="L11"
     x1="259.22"
     x2="265.6888"
     y1="39.9936"
     y2="18.0992"
     gradientUnits="userSpaceOnUse"
     gradientTransform="matrix(0.9806,0,0,0.9806,-188.03566,33.814994)"><stop
       id="stop100"
       offset="0"
       stop-color="#F48FBF" /><stop
       id="stop1853"
       offset=".5"
       stop-color="#EC3E90" /><stop
       id="stop102"
       offset="1"
       stop-color="#BE1363" /></linearGradient><linearGradient
     id="A00"
     x1="191.3555"
     x2="224.4228"
     y1="31.4688"
     y2="35.046"
     gradientUnits="userSpaceOnUse"
     gradientTransform="matrix(0.9806,0,0,0.9806,-164.44359,31.79203)"><stop
       id="stop106"
       offset="0"
       stop-color="#F48FBF" /><stop
       offset=".5"
       stop-color="#EC3E90"
       id="stop79" /><stop
       id="stop108"
       offset="1"
       stop-color="#BE1363" /></linearGradient><linearGradient
     id="A01"
     x1="226.263"
     x2="194.7483"
     y1="46.8056"
     y2="33.2046"
     gradientUnits="userSpaceOnUse"><stop
       id="stop112"
       offset="0"
       stop-color="#F48FBF" /><stop
       offset=".5"
       stop-color="#EC3E90"
       id="stop85" /><stop
       id="stop114"
       offset="1"
       stop-color="#BE1363" /></linearGradient><linearGradient
     id="R01"
     x1="176.7777"
     x2="146.2131"
     y1="47.9528"
     y2="28.1854"
     gradientUnits="userSpaceOnUse"><stop
       id="stop118"
       offset="0"
       stop-color="#93D3FB" /><stop
       offset=".5"
       stop-color="#3FB2F8"
       id="stop91" /><stop
       id="stop120"
       offset="1"
       stop-color="#0889D9" /></linearGradient><linearGradient
     id="R00"
     x1="144.1624"
     x2="164.3981"
     y1="18.1121"
     y2="40.8358"
     gradientUnits="userSpaceOnUse"
     gradientTransform="translate(-22.3699,-1.6118)"><stop
       id="stop124"
       offset="0"
       stop-color="#93D3FB" /><stop
       offset=".5"
       stop-color="#3FB2F8"
       id="stop97" /><stop
       id="stop126"
       offset="1"
       stop-color="#0889D9" /></linearGradient><linearGradient
     id="E11"
     x1="141.7942"
     x2="116.0169"
     y1="44.015"
     y2="31.8216"
     gradientUnits="userSpaceOnUse"><stop
       id="stop130"
       offset="0"
       stop-color="#FCEA89" /><stop
       offset=".5"
       stop-color="#F9DA32"
       id="stop103" /><stop
       id="stop132"
       offset="1"
       stop-color="#CCAD06" /></linearGradient><linearGradient
     id="E10"
     x1="138.9617"
     x2="116.8211"
     y1="24.1902"
     y2="42.0525"
     gradientUnits="userSpaceOnUse"><stop
       id="stop136"
       offset="0"
       stop-color="#FCEA89" /><stop
       offset=".5"
       stop-color="#F9DA32"
       id="stop109" /><stop
       id="stop138"
       offset="1"
       stop-color="#CCAD06" /></linearGradient><linearGradient
     id="E00"
     x1="90.6665"
     x2="114.917"
     y1="22.6194"
     y2="47.8994"
     gradientUnits="userSpaceOnUse"
     gradientTransform="translate(-10.1129,-2.1623)"><stop
       id="stop142"
       offset="0"
       stop-color="#FCEA89" /><stop
       offset=".5"
       stop-color="#F9DA32"
       id="stop115" /><stop
       id="stop144"
       offset="1"
       stop-color="#CCAD06" /></linearGradient><linearGradient
     id="E01"
     x1="87.2541"
     x2="102.811"
     y1="14.8513"
     y2="45.622"
     gradientUnits="userSpaceOnUse"
     gradientTransform="translate(-12.844,-0.367)"><stop
       id="stop148"
       offset="0"
       stop-color="#FCEA89" /><stop
       offset=".5"
       stop-color="#F9DA32"
       id="stop121" /><stop
       id="stop150"
       offset="1"
       stop-color="#CCAD06" /></linearGradient><linearGradient
     id="U00"
     x1="71.4533"
     x2="63.5509"
     y1="45.4328"
     y2="11.1892"
     gradientUnits="userSpaceOnUse"><stop
       id="stop154"
       offset=".2291"
       stop-color="#F48FBF" /><stop
       offset=".5"
       stop-color="#EC3E90"
       id="stop127" /><stop
       id="stop156"
       offset="1"
       stop-color="#BE1363" /></linearGradient><linearGradient
     id="U01"
     x1="80.4142"
     x2="53.4184"
     y1="28.6944"
     y2="43.6794"
     gradientUnits="userSpaceOnUse"><stop
       id="stop160"
       offset="0"
       stop-color="#F48FBF" /><stop
       offset=".5"
       stop-color="#EC3E90"
       id="stop133" /><stop
       id="stop162"
       offset="1"
       stop-color="#BE1363" /></linearGradient><linearGradient
     id="Q00"
     x1="30.2469"
     x2="42.3721"
     y1="47.6172"
     y2="21.6509"
     gradientUnits="userSpaceOnUse"
     gradientTransform="translate(8.2696,-1.7953)"><stop
       id="stop166"
       offset="0"
       stop-color="#F48FBF" /><stop
       offset=".5"
       stop-color="#EC3E90"
       id="stop139" /><stop
       id="stop168"
       offset="1"
       stop-color="#BE1363" /></linearGradient><linearGradient
     id="Q01"
     x1="48.9573"
     x2="30.1263"
     y1="24.4107"
     y2="44.2452"
     gradientUnits="userSpaceOnUse"
     gradientTransform="translate(8.2696,-1.7953)"><stop
       id="stop172"
       offset="0"
       stop-color="#F48FBF" /><stop
       id="stop176"
       offset=".589"
       stop-color="#EB3389" /><stop
       id="stop178"
       offset="1"
       stop-color="#BE1363" /></linearGradient><linearGradient
     id="Q02"
     x1="53.3646"
     x2="14.3579"
     y1="48.6701"
     y2="52.1018"
     gradientUnits="userSpaceOnUse"
     gradientTransform="translate(8.2696,-1.7953)"><stop
       id="stop182"
       offset="0"
       stop-color="#F48FBF" /><stop
       id="stop1896"
       offset=".5"
       stop-color="#EC3E90" /><stop
       id="stop184"
       offset="1"
       stop-color="#BE1363" /></linearGradient><path
     style="fill:#000000;fill-opacity:1;stroke:none;stroke-width:1.00001585;stroke-opacity:1"
     d="m 149.89062,59.224609 c -1.48176,-0.0092 -2.96416,-0.01152 -2.96874,0.01563 v 13.40625 l 6.63671,14.179688 h -6.63671 v 5.597656 h 8.52148 V 79.998047 h 2.63672 c 1.56896,0 2.70794,0.608234 3.43359,1.833984 l 5.7461,10.591797 h 9.51171 l -5.27539,-9.414062 c -0.74628,-1.233865 -2.30649,-3.584844 -2.89062,-4.525391 -1.94159,0.921764 -3.83662,1.400356 -6.04297,1.410156 -7.0211,0 -12.71875,-5.416404 -12.71875,-12.4375 0,-3.128114 1.13682,-5.990875 3.00977,-8.207031 0,0 -1.48112,-0.01615 -2.9629,-0.02539 z m 3.9629,0.08789 c -1.87295,2.216156 -3.38477,4.828917 -3.38477,7.957031 0,7.021096 5.44765,12.28125 12.46875,12.28125 3.92125,-0.394661 7.75153,-1.390105 10.19727,-4.392578 1.38265,-1.745468 2.07031,-3.864664 2.07031,-6.375 0,-3.294816 -1.01118,-5.815119 -3.04102,-7.550781 -2.02004,-1.745468 -5.35258,-1.919922 -9.37304,-1.919922 z m 1.86718,5.841797 h 6.01953 c 1.91217,0 3.28564,0.304097 4.11915,0.921875 0.8335,0.607972 1.24609,1.609541 1.24609,2.992187 0,1.353228 -0.41258,2.323709 -1.24609,2.921875 -0.83351,0.598166 -2.20698,0.892578 -4.11915,0.892578 h -6.01953 v -0.0098 z"
     id="path1914"
     inkscape:connector-curvature="0" /><path
     style="fill:#000000;fill-opacity:1;stroke:none;stroke-width:1.00001585;stroke-opacity:1"
     d="m 131.15234,53.642578 -5.79296,12.414063 v 0.01563 h 0.14648 v 0.0098 h -0.14648 v 0.01953 h -0.0215 l -2.94141,6.304688 h 2.02149 v 3.78125 c 2.91409,-1.683691 6.28081,-2.672505 9.875,-2.726562 h -4.17969 l 4.56055,-10.638672 4.56836,10.638672 h -4.32617 c 6.90079,0.104292 12.9615,3.630662 16.57421,8.953124 -3.66745,-5.403104 -9.85581,-7.990234 -16.88671,-7.990234 -3.71109,0 -7.18723,0.728911 -10.18555,2.207031 v 2.384766 h 0.14648 v 0.0098 h -0.14648 v 0.01953 h -1.12695 c -0.0366,-0.0057 -0.0728,-0.01368 -0.10938,-0.01953 h -2.42578 c -1.13468,0.968045 -2.15053,2.088954 -3.02148,3.373047 -0.008,0.01205 -0.0173,0.02308 -0.0254,0.03516 l -1.62304,3.466797 h 8.67578 0.0137 l 2.5625,-5.947266 h 14.68359 l 2.95704,6.863281 h 0.006 l 0.004,0.0098 h 8.57031 L 138.02734,53.642578 Z m -13.41796,28.75586 c 0.83283,-1.229077 1.80195,-2.356742 2.87695,-3.373047 h -1.30274 z"
     id="path1919"
     inkscape:connector-curvature="0" /><path
     style="fill:#000000;fill-opacity:1;stroke:none;stroke-width:1.00001585;stroke-opacity:1"
     d="m 111.26367,59.414062 -6.67383,8.761719 c 3.73793,5.531568 10.80152,9.515382 18.26758,10.791016 -8.05608,-0.616288 -14.90943,-4.7628 -18.40234,-10.617188 l -2.4668,3.240235 v 14.777344 h -0.0645 v 6.210937 0.0098 h 23.58203 v -6.6875 H 110.3457 v -6.875 h 12.83594 c 0.0365,0.0058 0.0728,0.01381 0.10938,0.01953 h 1.12695 v -0.01953 h 0.14648 v -0.0098 h -0.14648 V 72.40625 h -14.21875 v -6.304688 h 15.16016 v -0.01953 h 0.14648 v -0.0098 h -0.14648 v -6.658204 z m -9.33984,14.939454 v 0.884765 c 0.005,-0.140774 0.0156,-0.27996 0.0156,-0.421875 0,-0.154575 -0.0114,-0.308379 -0.0156,-0.46289 z"
     id="path1924"
     inkscape:connector-curvature="0" /><path
     style="fill:#000000;fill-opacity:1;stroke:none;stroke-width:1.00001585;stroke-opacity:1"
     d="m 79.322266,53.183594 13.935546,18.40625 v 14.777344 h 1.273438 c 4.33425,-2.049454 7.13867,-6.50045 7.13867,-11.609376 0,-3.08889 -0.89092,-5.863962 -2.71484,-8.070312 L 97.542969,64.716797 89.070312,53.183594 Z m 26.853514,0 -8.525389,10.958984 1.617189,2.279297 c 1.82392,2.20635 2.67187,5.305641 2.67187,8.394531 0,5.108926 -3.01145,9.501328 -7.3457,11.550782 h 7.39453 V 71.589844 l 14.02149,-18.40625 z"
     id="path1929"
     inkscape:connector-curvature="0" /><path
     style="fill:#000000;fill-opacity:1;stroke:none;stroke-opacity:1"
     d="M 79.947266,19.347656 V 53.1875 53.1973 l 0.851562,0.0098 h 23.199222 v -6.818359 l -14.609378,-0.0293 c 0.07073,3.062551 -2.248684,6.374825 -8.201172,6.785156 5.85698,-0.41112 7.424566,-3.703719 7.349609,-6.767578 -0.08,-3.27 0,-17.628984 0,-20.208984 0,-2.547802 0.732784,-6.706946 7.337891,-6.810547 0.08347,-0.0013 0.156825,-0.0098 0.242188,-0.0098 z m 15.927734,0.0098 c -6.605107,0.103601 -6.486328,4.262745 -6.486328,6.810547 v 0.0098 h 14.609378 v -6.820312 z m -6.486328,13.25 c -0.09759,1.293292 0,6.769531 0,6.769531 h 13.648438 v -6.769531 z"
     id="path1961"
     inkscape:connector-curvature="0" /><path
     style="fill:#000000;fill-opacity:1;stroke:none;stroke-opacity:1"
     d="m 50.052734,14.953125 v 6.824219 c 2.243607,1.376215 3.99054,3.255669 5.236328,5.646484 1.36,2.61 2.041016,5.671406 2.041016,9.191406 0,0.99532 -0.06275,1.951813 -0.173828,2.876954 1.771412,1.281317 3.720854,2.22079 5.667969,2.65625 -1.005904,-0.314834 -1.843825,-0.863336 -2.501953,-1.654297 -1.09,-1.32 -1.628907,-3.189141 -1.628907,-5.619141 V 14.953125 Z m 21.300782,0 V 34.875 c 0,2.44 -0.54086,4.309141 -1.63086,5.619141 -0.68828,0.834858 -1.57644,1.402752 -2.660156,1.707031 6.375542,-1.417955 12.880691,-9.40668 12.980469,-14.828125 V 14.953125 Z m 8.816406,12.986328 c 0,5.71 -7.281719,14.410625 -14.011719,15.140625 -0.927269,0.05503 -2.056687,-0.04516 -2.779297,-0.128906 -2.162937,-0.399312 -4.342407,-1.443512 -6.296875,-2.898438 -0.308127,2.097453 -0.906171,4.011711 -1.8125,5.732422 -0.107625,0.20661 -0.224817,0.402596 -0.339843,0.601563 0.927542,0.707278 1.980695,1.281053 3.158203,1.722656 -0.293989,-0.110113 -0.580979,-0.226891 -0.859375,-0.353516 0.631581,0.288453 1.308647,0.528884 2.019531,0.732422 0.04798,0.01365 0.09619,0.02775 0.144531,0.04102 1.182561,0.326598 2.480735,0.528302 3.878906,0.623047 0.314215,0.02101 0.639631,0.02963 0.964844,0.03906 0.265228,0.0078 0.514652,0.0332 0.78711,0.0332 0.613852,0 1.201918,-0.02806 1.779296,-0.06836 0.561692,-0.0392 1.105606,-0.09656 1.632813,-0.173828 0.0097,-0.0014 0.0196,-0.0025 0.0293,-0.0039 0.0067,-9.91e-4 0.01279,-0.0029 0.01953,-0.0039 1.048726,-0.156339 2.031439,-0.386247 2.943359,-0.693359 0.04576,-0.01534 0.08935,-0.03311 0.134766,-0.04883 0.374315,-0.130132 0.736941,-0.273843 1.087891,-0.429688 0.102492,-0.04533 0.204185,-0.09115 0.304687,-0.138672 0.303098,-0.143854 0.595868,-0.299129 0.88086,-0.46289 -0.273704,0.156771 -0.55529,0.304935 -0.845704,0.443359 0.290491,-0.138466 0.571921,-0.286535 0.845704,-0.443359 0.0063,-0.0036 0.01325,-0.0062 0.01953,-0.0098 0.08145,-0.04684 0.16613,-0.0902 0.246093,-0.138672 4.65e-4,-2.81e-4 0.0015,2.82e-4 0.002,0 0.763575,-0.462994 1.461512,-0.998091 2.089843,-1.609375 2.58,-2.51 3.976563,-5.452656 3.976563,-10.222656 z m -7.572266,19.884766 c -0.289978,0.126822 -0.588717,0.244105 -0.894531,0.353515 0.305938,-0.109442 0.604435,-0.226645 0.894531,-0.353515 z m -14.486328,0.292969 c 0.340126,0.126887 0.693738,0.240872 1.054688,0.345703 -0.361137,-0.104748 -0.714386,-0.218913 -1.054688,-0.345703 z m 13.251953,0.183593 c -0.42282,0.139635 -0.858595,0.265496 -1.310547,0.373047 0.451863,-0.107527 0.887801,-0.233444 1.310547,-0.373047 z m -11.847656,0.257813 c 0.284477,0.07569 0.576091,0.142583 0.873047,0.205078 -0.297035,-0.06243 -0.588485,-0.129463 -0.873047,-0.205078 z m 10.345703,0.154297 c -0.396463,0.08967 -0.804174,0.167037 -1.222656,0.232421 0.418627,-0.06539 0.826064,-0.142728 1.222656,-0.232421 z m -9.15625,0.11914 c 0.389158,0.07462 0.789245,0.138759 1.199219,0.191407 -0.409768,-0.05257 -0.810217,-0.116917 -1.199219,-0.191407 z m 7.480469,0.175781 c -0.345633,0.04599 -0.698492,0.08328 -1.058594,0.113282 0.359806,-0.02998 0.713238,-0.06734 1.058594,-0.113282 z m -5.929688,0.05273 c 0.263456,0.02944 0.532871,0.05163 0.804688,0.07227 -0.271665,-0.0206 -0.541359,-0.04287 -0.804688,-0.07227 z m 4.355469,0.101562 c -0.513466,0.03133 -1.036342,0.05273 -1.578125,0.05273 0.541794,0 1.064664,-0.0214 1.578125,-0.05273 z"
     id="path1966"
     inkscape:connector-curvature="0" /><path
     style="fill:#000000;fill-opacity:1;stroke:none;stroke-opacity:1"
     d="m 40.429687,19.294922 c -2.13,0 -4.090859,0.270547 -5.880859,0.810547 7.08,1.44 14.151016,5.439531 14.041016,16.519531 0,1.07 -0.0807,2.05875 -0.220703,2.96875 -0.675229,3.755921 -2.846024,6.904965 -5.578125,9.251953 1.828254,0.646801 3.554976,1.360217 5.078125,2.099609 0.503535,0.242776 1.109885,0.52762 1.664062,0.791016 2.478445,-1.40482 4.396409,-3.378918 5.736328,-5.951172 1.38,-2.62 2.060547,-5.679922 2.060547,-9.169922 0,-3.52 -0.681014,-6.581406 -2.041016,-9.191406 -1.359999,-2.61 -3.309375,-4.619531 -5.859374,-6.019531 -2.540001,-1.41 -5.540001,-2.109375 -9.000001,-2.109375 z m -6.720703,1.164062 c -0.02644,-0.01752 -1.056379,0.281359 -2.269531,0.945313 -2.54,1.4 -4.498906,3.409531 -5.878906,6.019531 -1.37,2.61 -2.060547,5.671406 -2.060547,9.191406 0,3.52 0.680547,6.579454 2.060547,9.189454 4.688565,-0.477818 11.178475,0.798404 16.820312,2.859374 1.00001,-0.84998 1.923272,-1.806062 2.730469,-2.861328 -1.265741,0.945281 -2.820131,1.421875 -4.671875,1.421875 -2.56,0 -4.56,-0.899453 -6,-2.689453 -1.44,-1.79 -2.160156,-4.429922 -2.160156,-7.919922 0,-3.49 0.720156,-6.12039 2.160156,-7.90039 1.44,-1.77 3.44,-2.660158 6,-2.660156 2.53,-2e-6 4.520469,0.899453 5.980469,2.689453 0.429032,0.529632 0.79033,1.137951 1.091797,1.814453 C 47.277335,29.75954 46.98973,29.01811 46.658203,28.326172 43.900762,23.502618 38.596878,21.453132 33.708984,20.458984 Z M 28.40625,46.197266 c -0.872754,-0.01526 -1.707186,0.01375 -2.492188,0.09375 1.380001,2.61 2.985391,4.134453 5.525391,5.564453 0.949394,0.531421 1.971259,0.939824 3.046875,1.271484 -0.02204,0.0052 -0.04446,0.01273 -0.06641,0.01758 0.520764,0.163097 1.064686,0.28827 1.617187,0.400391 l 0.248047,-0.533203 h 6.875 l 1.208985,2.582031 c 0.883838,0.397296 1.843458,0.883996 2.935546,1.527344 l 10.345704,6.693359 0.0078,-0.0078 0.01172,0.0078 5.740234,-4.548828 -11.839844,-6.271484 c -1.31,-0.62 -2.581171,-1.219766 -3.701171,-1.759766 -5.4075,-2.625 -13.35361,-4.930276 -19.462891,-5.037109 z"
     id="path1971"
     inkscape:connector-curvature="0" /><path
     style="fill:#000000;fill-opacity:1;stroke:none;stroke-opacity:1"
     d="m 101.88672,12.761719 v 6.595703 h 2.11133 v 6.820312 h -2.11133 v 6.429688 h 1.15039 v 6.769531 h -1.15039 v 7.007813 l 1.9375,0.0039 c -0.003,0.0036 -0.009,0.01211 -0.0117,0.01563 0.41862,-0.0098 9.60005,0.383295 18.125,0.216797 v -6.81836 l -11.46094,-0.02148 c -0.029,-1.194398 -0.033,-3.967466 -0.0312,-6.990234 h 10.53125 V 26.021487 H 110.4571 c 0.009,-2.558994 0.0195,-5.583614 0.0195,-6.429687 h 11.4609 v -6.820316 h -4.12305 c 0.0835,-0.0013 0.15683,-0.0098 0.24219,-0.0098 z"
     id="path1034"
     inkscape:connector-curvature="0" /><path
     style="fill:#000000;fill-opacity:1;stroke:none;stroke-opacity:1"
     d="m 121,19.908203 v 10.189453 c -0.0299,-0.1419 -0.0488,-0.284149 -0.0488,-0.423828 l 0.0254,3.994141 -0.0117,1.449219 h 0.0195 l 0.0254,3.990234 c 2.36,1.11 5.21968,1.850156 8.67968,1.910156 h 2.69141 c 1.6,0 2.77,0.630859 3.5,1.88086 l 5.85937,10.849609 h 9.69922 c -3.56962,-5.533308 -5.11289,-9.284342 -8.30078,-13.558594 -1.47,-2.09 -3.85922,-5.298828 -7.94922,-5.298828 h -5.58984 c -3.79688,0.02812 -8.07572,-2.462521 -8.5957,-4.759766 -4.4e-4,-0.0019 4.3e-4,-0.0039 0,-0.0059 l 0.006,-0.857422 c 0,2.41 4.53984,5.131563 8.58984,5.101563 v -7.800782 h 6.14062 c 1.95,0 3.34922,0.319453 4.19922,0.939453 0.85,0.63 1.27149,1.640782 1.27149,3.050782 0,1.38 -0.42149,2.370469 -1.27149,2.980468 -0.79718,0.5721 -2.09656,0.859968 -3.86133,0.886719 3.58354,0.420928 5.93069,3.308112 7.29102,5.242188 l 0.0234,0.03906 c 1.62864,-0.679582 2.95191,-1.655945 3.9668,-2.939453 1.40997,-1.77 2.11132,-3.94 2.11132,-6.5 0,-3.36 -1.04156,-5.919219 -3.10156,-7.699219 -2.06,-1.77 -5.13828,-2.660156 -9.23828,-2.660156 z m 0.9375,20.160156 v 6.552735 h -0.92188 L 121,53.748047 h 8.68945 c -0.061,-4.128581 0.0695,-8.120919 -0.0703,-12.240235 -2.99724,-0.05198 -5.52498,-0.577863 -7.68164,-1.439453 z"
     id="path1951"
     inkscape:connector-curvature="0" /><path
     style="fill:#000000;fill-opacity:1;stroke:none;stroke-width:1.00001585;stroke-opacity:1"
     d="m 36.285156,53.011719 -7.568359,16.220703 c 1.802641,1.860728 4.094221,3.249856 6.689453,3.242187 l 4.398438,-10.285156 4.722656,10.191406 h 0.01367 c 3.011375,0 6.535033,-0.190451 9.447265,4.1875 0.185629,0.279056 0.372387,0.571195 0.552735,0.888672 -0.181364,-0.314657 -0.365266,-0.614778 -0.552735,-0.888672 -2.941283,-4.29723 -6.591848,-3.75 -9.603515,-3.75 h -9.128907 c -2.59859,0.0098 -4.892961,-1.381 -6.697265,-3.24414 l 0.158203,-0.341797 c 0,0 -0.0019,-0.002 -0.0019,-0.002 l -2.660206,5.705078 -0.673828,1.443359 c 2.176932,1.76508 4.589313,2.941406 7.089843,2.941406 h 14.689453 l 2.960938,6.874998 h 8.570312 l -3.490234,-7.472654 c -0.02717,-0.05803 -0.05664,-0.105201 -0.08398,-0.162109 -0.0033,-0.0069 -0.0065,-0.01265 -0.0098,-0.01953 L 43.160156,53.011719 Z M 25.068359,76.847656 20.800781,86.19531 h 8.708985 l 2.648437,-6.406248 c -2.50053,0 -4.912912,-1.176326 -7.089844,-2.941406 z"
     id="path1945"
     inkscape:connector-curvature="0" /><path
     style="fill:#000000;fill-opacity:1;stroke:none;stroke-width:1.00001585;stroke-opacity:1"
     d="m 51.671875,60.166016 v 11.033203 l 1.863281,3.982422 c 1.551104,-2.441191 3.957591,-4.280149 6.794922,-5.087891 v -9.927734 z m 8.720703,10.302734 c -2.936889,0.830869 -5.266365,2.623659 -6.693359,5.0625 l 1.408203,3.009766 c 0.0033,0.0069 0.0065,0.01263 0.0098,0.01953 0.02734,0.05691 0.05681,0.104079 0.08398,0.162109 l 3.490234,7.472656 h -5.599609 c 1.770114,4.181039 5.806357,7.060547 10.318359,7.060547 4.834358,0 8.339357,-2.263724 10.732422,-6.40039 l -13.8125,-0.01563 z m -8.720703,15.726562 v 7.363282 h 11.884766 c -4.942683,0 -9.181647,-3.038125 -10.972657,-7.363282 z m 11.884766,7.363282 h 10.894531 v -6.689453 h -0.238281 c -1.938063,3.955802 -5.966451,6.689453 -10.65625,6.689453 z"
     id="path1935"
     inkscape:connector-curvature="0" /><path
     style="fill:#000000;fill-opacity:1;stroke:none;stroke-width:1.00001585;stroke-opacity:1"
     d="m 60.199219,53.195312 v 7.148438 c 1.044339,-1.152205 2.319051,-2.094722 3.751953,-2.748047 0.716451,-0.326662 1.471341,-0.580922 2.257812,-0.753906 0.786472,-0.172984 1.604947,-0.263672 2.44336,-0.263672 0.07489,0 0.139532,0.009 0.205078,0.0098 v -3.392579 z m 8.408203,3.691407 c -3.353652,0 -5.665228,1.32059 -7.753906,3.625 l 0.125,15.060547 c 2.088678,2.314216 4.265448,3.474609 7.628906,3.474609 0.06864,0 0.136396,-0.0098 0.214844,-0.0098 V 56.896484 c -0.06864,0 -0.136396,-0.0098 -0.214844,-0.0098 z m -7.720703,19.205078 -0.0625,10.285156 H 82.978516 V 79.367188 H 68.857422 v -0.01953 c -0.07406,8.1e-4 -0.139552,0.0098 -0.205078,0.0098 -0.840865,0 -1.660334,-0.09145 -2.447266,-0.263672 -0.786931,-0.172218 -1.541974,-0.425904 -2.257812,-0.751953 -1.431676,-0.652099 -2.016208,-1.092892 -3.060547,-2.25 z"
     id="path1154"
     inkscape:connector-curvature="0" /><g
     style="display:none;stroke-width:2.80789995"
     transform="matrix(0.35614,0,0,0.35614,17.0053,55.6867)"
     id="wordDEthin"><g
       word-spacing="0"
       letter-spacing="0"
       style="font-style:normal;font-variant:normal;font-weight:300;font-stretch:normal;font-size:22.29870033px;line-height:1.25;font-family:'Gill Sans';-inkscape-font-specification:'Gill Sans, Light';font-variant-ligatures:normal;font-variant-caps:normal;font-variant-numeric:normal;font-feature-settings:normal;text-align:start;letter-spacing:0;word-spacing:0;writing-mode:lr-tb;text-anchor:start;fill:#000000;fill-opacity:1;stroke:none;stroke-width:10.62049961"
       font-weight="300"
       font-variant="normal"
       font-style="normal"
       font-stretch="normal"
       font-size="22.2987"
       aria-label=".de"
       id="text2941"><path
         inkscape:connector-curvature="0"
         d="m 447.84931,84.302406 v 2.166718 h -1.44811 v -2.166718 z"
         id="path3402" /><path
         inkscape:connector-curvature="0"
         d="m 459.12931,71.25855 v 15.210574 h -1.07792 v -0.783938 q -1.37189,0.979922 -2.96154,0.979922 -2.13406,0 -3.60394,-1.502547 -1.459,-1.513436 -1.459,-3.712818 0,-2.232045 1.43722,-3.712817 1.44811,-1.480772 3.62572,-1.480772 1.38278,0 2.96154,0.805714 V 71.25855 Z m -1.07792,13.446713 v -6.467488 q -1.43722,-0.93637 -2.91799,-0.93637 -1.7312,0 -2.85266,1.154131 -1.12147,1.143243 -1.12147,2.928879 0,1.818301 1.19768,3.026872 1.19769,1.208571 2.99421,1.208571 1.39367,0 2.70023,-0.914595 z"
         id="path3404" /><path
         inkscape:connector-curvature="0"
         d="m 470.39841,81.090438 h -7.89382 q -0.0327,0.261313 -0.0327,0.522626 0,1.676756 1.19768,2.841775 1.19768,1.165019 2.83089,1.165019 1.9054,0 3.7237,-1.49166 v 1.208571 q -1.7203,1.328339 -3.85436,1.328339 -2.16672,0 -3.58216,-1.502547 -1.41544,-1.502548 -1.41544,-3.821698 0,-2.199381 1.30656,-3.636601 1.30656,-1.448108 3.28819,-1.448108 1.86185,0 3.14664,1.306564 1.28478,1.295675 1.28478,3.52772 z m -7.75227,-0.860154 h 6.48926 q -0.56618,-2.928879 -3.16841,-2.928879 -1.23035,0 -2.13406,0.77305 -0.89282,0.762162 -1.18679,2.155829 z"
         id="path3406" /></g></g><g
     style="display:none;stroke-width:3.78239989"
     transform="matrix(0.26438,0,0,0.26438,62.8431,73.2805)"
     id="wordDE"><g
       transform="translate(-17.2115,6.8707)"
       id="letterE3"><path
         inkscape:connector-curvature="0"
         style="fill:url(#E30)"
         d="M 478.15,49.36 V 15.52 h 24.05 v 6.82 h -15.46 v 6.43 h 14.5 v 6.77 h -14.5 v 7.01 h 15.46 v 6.82 h -24.05 z"
         id="path10786" /><path
         inkscape:connector-curvature="0"
         style="fill:url(#E31)"
         d="m 486.74,42.36 v -6.82 h 14.5 v -6.77 h -14.5 v -6.24 c -4.86,0.72 -8.59,4.88 -8.59,9.92 0,5.04 3.73,9.18 8.59,9.91 z"
         id="path10788" /></g><g
       transform="translate(-7.5647)"
       id="letterD0"><path
         inkscape:connector-curvature="0"
         style="fill:url(#D00)"
         d="m 441.05,15.52 h 13.78 c 3.74,0 6.97,0.67 9.67,2.02 2.7,1.34 4.78,3.29 6.22,5.83 1.44,2.54 2.16,5.56 2.16,9.05 0,3.52 -0.71,6.55 -2.14,9.1 -1.43,2.55 -3.49,4.49 -6.19,5.83 -2.71,1.34 -5.95,2.02 -9.72,2.02 h -13.78 z m 13.15,26.73 c 3.33,0 5.81,-0.82 7.44,-2.45 1.63,-1.63 2.45,-4.1 2.45,-7.39 0,-3.3 -0.82,-5.75 -2.45,-7.37 -1.63,-1.62 -4.11,-2.42 -7.44,-2.42 h -4.32 v 19.63 z"
         id="path10792" /><path
         inkscape:connector-curvature="0"
         style="fill:url(#D01)"
         d="m 463.84,35.25 c -0.35,1.91 -1.08,3.44 -2.2,4.56 -1.63,1.63 -4.11,2.45 -7.44,2.45 h -4.32 V 22.62 h 4.32 c 3.33,0 5.81,0.81 7.44,2.42 1.16,1.15 1.9,2.73 2.23,4.72 -0.98,-6.64 -5.6,-12.08 -11.77,-14.25 h -11.05 v 33.84 h 10.83 c 6.21,-2.08 10.9,-7.48 11.96,-14.1 z"
         id="path10794" /></g><g
       id="letterP0"><path
         inkscape:connector-curvature="0"
         style="fill:url(#P00);stroke-width:3.78239989"
         d="m 426.98,40.62 h 8.88 v 8.74 h -8.88 z"
         id="path10798" /></g></g></svg>