<?xml version="1.0" encoding="UTF-8" standalone="no"?>
<!-- Generator: Adobe Illustrator 23.0.3, SVG Export Plug-In . SVG Version: 6.00 Build 0)  -->

<svg xmlns:dc="http://purl.org/dc/elements/1.1/" 
  xmlns:cc="http://creativecommons.org/ns#" 
  xmlns:rdf="http://www.w3.org/1999/02/22-rdf-syntax-ns#" 
  xmlns:svg="http://www.w3.org/2000/svg" 
  xmlns="http://www.w3.org/2000/svg" 
  xmlns:sodipodi="http://sodipodi.sourceforge.net/DTD/sodipodi-0.dtd" 
  xmlns:inkscape="http://www.inkscape.org/namespaces/inkscape" version="1.1" id="svgdocument" x="0px" y="0px" viewBox="0 0 523.71827 63.424006" xml:space="preserve" sodipodi:docname="logo_vert1_shadow.svg" inkscape:version="0.92.2 5c3e80d, 2017-08-06" width="523.71826" height="63.424004">
  <metadata id="metadata193">
    <rdf:RDF>
      <cc:Work rdf:about="">
        <dc:format>image/svg+xml</dc:format>
        <dc:type rdf:resource="http://purl.org/dc/dcmitype/StillImage" />
        <dc:title />
      </cc:Work>
    </rdf:RDF>
  </metadata>
  <defs id="defs191">
    <filter style="color-interpolation-filters:sRGB" inkscape:label="Drop Shadow" id="filterShadow">
      <feFlood flood-opacity="0.498039" flood-color="rgb(0,0,0)" result="flood" id="feFlood1277" />
      <feComposite in="flood" in2="SourceGraphic" operator="in" result="composite1" id="feComposite1279" />
      <feGaussianBlur in="composite1" stdDeviation="1.5" result="blur" id="feGaussianBlur1281" />
      <feOffset dx="3" dy="3.4" result="offset" id="feOffset1283" />
      <feComposite in="SourceGraphic" in2="offset" operator="over" result="composite2" id="finalComposite" />
    </filter>
  </defs>
  <sodipodi:namedview pagecolor="#ffffff" bordercolor="#666666" borderopacity="1" objecttolerance="10" gridtolerance="10" guidetolerance="10" inkscape:pageopacity="0" inkscape:pageshadow="2" inkscape:window-width="1638" inkscape:window-height="1005" id="namedview189" showgrid="false" inkscape:zoom="3.45" inkscape:cx="453.57461" inkscape:cy="16.098282" inkscape:window-x="42" inkscape:window-y="1" inkscape:window-maximized="1" inkscape:current-layer="g7019" inkscape:snap-global="false" fit-margin-left="5" fit-margin-top="5" fit-margin-right="5" fit-margin-bottom="5" units="px" showguides="true" inkscape:guide-bbox="true">
    <sodipodi:guide position="441.487,19.702603" orientation="0,1" id="guide7566" inkscape:locked="false" />
  </sodipodi:namedview>
  <style type="text/css" id="style2">
	.l00{fill:url(#L00);}
	.l01{fill:url(#L01);}
	.e30{fill:url(#E30);}
	.e31{fill:url(#E31);}
	.d00{fill:url(#D00);}
	.d01{fill:url(#D01);}
	.p00{fill:url(#P00);}
	.r11{fill:url(#R11);}
	.r10{fill:url(#R10);}
	.a10{fill:url(#A10);}
	.a11{fill:url(#A11);}
	.e21{fill:url(#E21);}
	.e20{fill:url(#E20);}
	.y00{fill:url(#Y00);}
	.y01{fill:url(#Y01);}
	.l10{fill:url(#L10);}
	.l11{fill:url(#L11);}
	.a00{fill:url(#A00);}
	.a01{fill:url(#A01);}
	.r01{fill:url(#R01);}
	.r00{fill:url(#R00);}
	.e01{fill:url(#E01);}
	.e00{fill:url(#E00);}
	.e10{fill:url(#E10);}
	.e11{fill:url(#E11);}
	.u00{fill:url(#U00);}
	.u01{fill:url(#U01);}
	.q00{fill:url(#Q00);}
	.q01{fill:url(#Q01);}
	.q02{fill:url(#Q02);}
  </style>
  <linearGradient id="L00" gradientUnits="userSpaceOnUse" x1="229.38831" y1="18.3596" x2="244.64799" y2="53.855099">
    <stop offset="0" style="stop-color:#FFFFFF" id="stop4" />
    <stop offset="0.5" style="stop-color:#808080" id="stop1773" />
    <stop offset="1" style="stop-color:#000000" id="stop6" />
  </linearGradient>
  <linearGradient id="L01" gradientUnits="userSpaceOnUse" x1="249.70419" y1="29.1336" x2="232.9516" y2="46.051998">
    <stop offset="0" style="stop-color:#FFFFFF" id="stop10" />
    <stop offset="0.5" style="stop-color:#808080" id="stop1778" />
    <stop offset="1" style="stop-color:#000000" id="stop12" />
  </linearGradient>
  <linearGradient id="E30" gradientUnits="userSpaceOnUse" x1="480.37439" y1="17.4293" x2="501.10709" y2="49.180801">
    <stop offset="0" style="stop-color:#FFFFFF" id="stop16" />
    <stop offset="0.5" style="stop-color:#808080" id="stop1783" />
    <stop offset="1" style="stop-color:#000000" id="stop18" />
  </linearGradient>
  <linearGradient id="E31" gradientUnits="userSpaceOnUse" x1="493.92859" y1="41.5532" x2="485.5195" y2="21.8354">
    <stop offset="0" style="stop-color:#FFFFFF" id="stop22" />
    <stop offset="0.5" style="stop-color:#808080" id="stop1788" />
    <stop offset="1" style="stop-color:#000000" id="stop24" />
  </linearGradient>
  <linearGradient id="D00" gradientUnits="userSpaceOnUse" x1="471.21811" y1="41.283401" x2="445.63571" y2="30.3918">
    <stop offset="0" style="stop-color:#FFFFFF" id="stop28" />
    <stop offset="0.5" style="stop-color:#808080" id="stop1793" />
    <stop offset="1" style="stop-color:#000000" id="stop30" />
  </linearGradient>
  <linearGradient id="D01" gradientUnits="userSpaceOnUse" x1="441.04651" y1="32.437" x2="463.87161" y2="32.437">
    <stop offset="0" style="stop-color:#FFFFFF" id="stop34" />
    <stop offset="0.5" style="stop-color:#808080" id="stop1798" />
    <stop offset="1" style="stop-color:#000000" id="stop36" />
  </linearGradient>
  <linearGradient id="P00" gradientUnits="userSpaceOnUse" x1="428.45551" y1="41.323299" x2="435.8497" y2="50.457298">
    <stop offset="0" style="stop-color:#FFFFFF" id="stop40" />
    <stop offset="0.5" style="stop-color:#808080" id="stop1803" />
    <stop offset="1" style="stop-color:#000000" id="stop42" />
  </linearGradient>
  <linearGradient id="R11" gradientUnits="userSpaceOnUse" x1="418.2066" y1="20.7083" x2="397.78201" y2="30.574499">
    <stop offset="0" style="stop-color:#FFFFFF" id="stop46" />
    <stop offset="0.5" style="stop-color:#808080" id="stop1808" />
    <stop offset="1" style="stop-color:#000000" id="stop48" />
  </linearGradient>
  <linearGradient id="R10" gradientUnits="userSpaceOnUse" x1="395.58691" y1="17.8962" x2="420.88901" y2="53.144699">
    <stop offset="0" style="stop-color:#FFFFFF" id="stop52" />
    <stop offset="0.5" style="stop-color:#808080" id="stop1813" />
    <stop offset="1" style="stop-color:#000000" id="stop54" />
  </linearGradient>
  <linearGradient id="A10" gradientUnits="userSpaceOnUse" x1="373.5918" y1="15.2047" x2="372.9971" y2="41.371399">
    <stop offset="0" style="stop-color:#FFFFFF" id="stop58" />
    <stop offset="0.5" style="stop-color:#808080" id="stop1818" />
    <stop offset="1" style="stop-color:#000000" id="stop60" />
  </linearGradient>
  <linearGradient id="A11" gradientUnits="userSpaceOnUse" x1="355.0282" y1="48.003799" x2="391.6727" y2="40.4132">
    <stop offset="0" style="stop-color:#FFFFFF" id="stop64" />
    <stop offset="0.5" style="stop-color:#808080" id="stop1823" />
    <stop offset="1" style="stop-color:#000000" id="stop66" />
  </linearGradient>
  <linearGradient id="E21" gradientUnits="userSpaceOnUse" x1="344.55231" y1="16.8403" x2="338.01071" y2="32.698898">
    <stop offset="0" style="stop-color:#FFFFFF" id="stop70" />
    <stop offset="0.5" style="stop-color:#808080" id="stop1828" />
    <stop offset="1" style="stop-color:#000000" id="stop72" />
  </linearGradient>
  <linearGradient id="E20" gradientUnits="userSpaceOnUse" x1="330.58621" y1="25.6537" x2="358.14059" y2="42.900002">
    <stop offset="0" style="stop-color:#FFFFFF" id="stop76" />
    <stop offset="0.5" style="stop-color:#808080" id="stop1833" />
    <stop offset="1" style="stop-color:#000000" id="stop78" />
  </linearGradient>
  <linearGradient id="Y00" gradientUnits="userSpaceOnUse" x1="296.77841" y1="41.5219" x2="320.92459" y2="9.4734001">
    <stop offset="0" style="stop-color:#FFFFFF" id="stop82" />
    <stop offset="0.5" style="stop-color:#808080" id="stop1838" />
    <stop offset="1" style="stop-color:#000000" id="stop84" />
  </linearGradient>
  <linearGradient id="Y01" gradientUnits="userSpaceOnUse" x1="297.56049" y1="32.743099" x2="315.40149" y2="30.3643">
    <stop offset="0" style="stop-color:#FFFFFF" id="stop88" />
    <stop offset="0.5" style="stop-color:#808080" id="stop1843" />
    <stop offset="1" style="stop-color:#000000" id="stop90" />
  </linearGradient>
  <linearGradient id="L10" gradientUnits="userSpaceOnUse" x1="277.58679" y1="26.9683" x2="252.8727" y2="42.062199">
    <stop offset="0" style="stop-color:#FFFFFF" id="stop94" />
    <stop offset="0.5" style="stop-color:#808080" id="stop1848" />
    <stop offset="1" style="stop-color:#000000" id="stop96" />
  </linearGradient>
  <linearGradient id="L11" gradientUnits="userSpaceOnUse" x1="259.22" y1="39.993599" x2="265.68881" y2="18.099199">
    <stop offset="0" style="stop-color:#FFFFFF" id="stop100" />
    <stop offset="0.5" style="stop-color:#808080" id="stop1853" />
    <stop offset="1" style="stop-color:#000000" id="stop102" />
  </linearGradient>
  <linearGradient id="A00" gradientUnits="userSpaceOnUse" x1="191.3555" y1="31.4688" x2="224.42281" y2="35.046001">
    <stop offset="0" style="stop-color:#FFFFFF" id="stop106" />
    <stop offset="1" style="stop-color:#000000" id="stop108" />
  </linearGradient>
  <linearGradient id="A01" gradientUnits="userSpaceOnUse" x1="226.263" y1="46.805599" x2="194.74831" y2="33.204601">
    <stop offset="0" style="stop-color:#FFFFFF" id="stop112" />
    <stop offset="1" style="stop-color:#000000" id="stop114" />
  </linearGradient>
  <linearGradient id="R01" gradientUnits="userSpaceOnUse" x1="176.77769" y1="47.952801" x2="146.2131" y2="28.1854">
    <stop offset="0" style="stop-color:#FFFFFF" id="stop118" />
    <stop offset="1" style="stop-color:#000000" id="stop120" />
  </linearGradient>
  <linearGradient id="R00" gradientUnits="userSpaceOnUse" x1="144.1624" y1="18.112101" x2="164.3981" y2="40.8358">
    <stop offset="0" style="stop-color:#FFFFFF" id="stop124" />
    <stop offset="1" style="stop-color:#000000" id="stop126" />
  </linearGradient>
  <linearGradient id="E11" gradientUnits="userSpaceOnUse" x1="141.7942" y1="44.014999" x2="116.0169" y2="31.8216">
    <stop offset="0" style="stop-color:#FFFFFF" id="stop130" />
    <stop offset="1" style="stop-color:#000000" id="stop132" />
  </linearGradient>
  <linearGradient id="E10" gradientUnits="userSpaceOnUse" x1="138.9617" y1="24.190201" x2="116.8211" y2="42.052502">
    <stop offset="0" style="stop-color:#FFFFFF" id="stop136" />
    <stop offset="1" style="stop-color:#000000" id="stop138" />
  </linearGradient>
  <linearGradient id="E00" gradientUnits="userSpaceOnUse" x1="90.666496" y1="22.6194" x2="114.917" y2="47.899399">
    <stop offset="0" style="stop-color:#FFFFFF" id="stop142" />
    <stop offset="1" style="stop-color:#000000" id="stop144" />
  </linearGradient>
  <linearGradient id="E01" gradientUnits="userSpaceOnUse" x1="87.254097" y1="14.8513" x2="102.811" y2="45.622002">
    <stop offset="0" style="stop-color:#FFFFFF" id="stop148" />
    <stop offset="1" style="stop-color:#000000" id="stop150" />
  </linearGradient>
  <linearGradient id="U00" gradientUnits="userSpaceOnUse" x1="71.4533" y1="45.4328" x2="63.5509" y2="11.1892">
    <stop offset="0.2291" style="stop-color:#FFFFFF" id="stop154" />
    <stop offset="1" style="stop-color:#000000" id="stop156" />
  </linearGradient>
  <linearGradient id="U01" gradientUnits="userSpaceOnUse" x1="80.4142" y1="28.694401" x2="53.4184" y2="43.679401">
    <stop offset="0" style="stop-color:#FFFFFF" id="stop160" />
    <stop offset="1" style="stop-color:#000000" id="stop162" />
  </linearGradient>
  <linearGradient id="Q00" gradientUnits="userSpaceOnUse" x1="30.246901" y1="47.617199" x2="42.372101" y2="21.6509">
    <stop offset="0" style="stop-color:#FFFFFF" id="stop166" />
    <stop offset="1" style="stop-color:#000000" id="stop168" />
  </linearGradient>
  <linearGradient id="Q01" gradientUnits="userSpaceOnUse" x1="48.957298" y1="24.4107" x2="30.126301" y2="44.245201">
    <stop offset="0" style="stop-color:#FFFFFF" id="stop172" />
    <stop offset="0.1806" style="stop-color:#D6D6D6" id="stop174" />
    <stop offset="0.589" style="stop-color:#6E6E6E" id="stop176" />
    <stop offset="1" style="stop-color:#000000" id="stop178" />
  </linearGradient>
  <linearGradient id="Q02" gradientUnits="userSpaceOnUse" x1="53.364601" y1="48.670101" x2="14.3579" y2="52.101799">
    <stop offset="0" style="stop-color:#FFFFFF" id="stop182" />
    <stop offset="0.5" style="stop-color:#808080" id="stop1896" />
    <stop offset="1" style="stop-color:#000000" id="stop184" />
  </linearGradient>
  <g id="mainGroup" style="filter:url(#filterShadow)" transform="translate(29.041395,-5.6379999)">
    <g id="wordYEAR" transform="translate(-6)">
      <g id="letterR1">
        <path d="m 419.21,39.76 5.38,9.6 h -9.7 l -5.86,-10.8 c -0.74,-1.25 -1.9,-1.87 -3.5,-1.87 h -2.69 v 12.67 h -8.69 V 15.52 h 16.13 c 4.1,0 7.18,0.89 9.24,2.66 2.06,1.78 3.1,4.34 3.1,7.7 0,2.56 -0.7,4.73 -2.11,6.5 -1.02,1.29 -2.35,2.27 -3.99,2.95 m -3.43,-6.18 c 0.85,-0.61 1.27,-1.6 1.27,-2.98 0,-1.41 -0.42,-2.42 -1.27,-3.05 -0.85,-0.62 -2.25,-0.94 -4.2,-0.94 h -6.14 v 7.87 h 6.14 c 1.95,0.01 3.35,-0.29 4.2,-0.9 z" class="r10" id="path1914" style="fill:url(#R10)" inkscape:connector-curvature="0" />
        <path d="m 416.55,35.4 -0.04,-0.06 c 1.63,-0.67 2.96,-1.66 3.99,-2.95 1.41,-1.78 2.11,-3.94 2.11,-6.5 0,-3.36 -1.03,-5.93 -3.1,-7.7 -2.06,-1.78 -5.14,-2.66 -9.24,-2.66 H 400.2 c -1.91,2.26 -3.07,5.18 -3.07,8.37 0,7.16 5.81,12.97 12.97,12.97 2.25,-0.01 4.47,-0.53 6.45,-1.47 z m -13.81,-5.34 v -7.87 h 6.14 c 1.95,0 3.35,0.31 4.2,0.94 0.85,0.62 1.27,1.64 1.27,3.05 0,1.38 -0.42,2.37 -1.27,2.98 -0.85,0.61 -2.25,0.91 -4.2,0.91 h -6.14 z" class="r11" id="path1916" style="fill:url(#R11)" inkscape:connector-curvature="0" />
      </g>
      <g id="letterA1" transform="translate(0.82656805)">
        <path d="m 383.4,49.36 -3.02,-7.01 H 365.4 l -3.02,7.01 h -8.88 l 15.79,-33.84 h 7.01 l 15.84,33.84 z M 368.23,35.73 h 9.31 l -4.66,-10.85 z" class="a10" id="path1919" style="fill:url(#A10)" inkscape:connector-curvature="0" />
        <path d="m 390.03,44.86 c -3.74,-5.51 -10.05,-9.14 -17.22,-9.14 -7.17,0 -13.5,3.63 -17.23,9.16 l -2.09,4.47 h 8.88 l 3.02,-7.01 h 14.98 l 3.02,7.01 h 2.96 5.78 z" class="a11" id="path1921" style="fill:url(#A11)" inkscape:connector-curvature="0" />
      </g>
      <g id="letterE2">
        <path d="M 329.4,49.36 V 15.52 h 24.05 v 6.82 h -15.46 v 6.43 h 14.5 v 6.77 h -14.5 v 7.01 h 15.46 v 6.82 H 329.4 Z" class="e20" id="path1924" style="fill:url(#E20)" inkscape:connector-curvature="0" />
        <path d="m 329.45,15.65 c 0,10.57 9.67,19.21 21.89,19.88 h 1.15 v -6.77 h -14.5 v -6.43 h 15.46 v -6.82 h -24 c 0,0.05 0,0.1 0,0.14 z" class="e21" id="path1926" style="fill:url(#E21)" inkscape:connector-curvature="0" />
      </g>
      <g id="letterY0" transform="translate(-1.0650888)">
        <path d="m 329.45,15.52 -14.3,18.77 v 15.07 h -8.83 V 34.29 L 292.1,15.52 h 9.94 l 8.64,11.76 8.74,-11.76 z" class="y00" id="path1929" style="fill:url(#Y00)" inkscape:connector-curvature="0" />
        <path d="m 310.68,27.28 -8.64,-11.76 h -9.94 l 14.21,18.77 v 15.07 h 1.3 c 4.42,-2.09 7.49,-6.57 7.49,-11.78 0,-3.15 -1.12,-6.04 -2.98,-8.29" class="y01" id="path1931" style="fill:url(#Y01)" inkscape:connector-curvature="0" />
      </g>
    </g>
    <g id="woldALL">
      <g id="letterL0">
        <path d="M 229.56,49.36 V 15.52 h 8.83 v 26.69 h 14.4 v 7.15 z" class="l00" id="path1935" inkscape:connector-curvature="0" style="fill:url(#L00)" />
        <path d="M 252.73,42.21 H 238.39 V 25.58 c -5.09,1.44 -8.83,6.11 -8.83,11.66 0,6.7 5.43,12.12 12.12,12.12 4.93,0 9.15,-2.94 11.05,-7.15 z" class="l01" id="path1937" inkscape:connector-curvature="0" style="fill:url(#L01)" />
      </g>
      <g id="letterL1" transform="translate(-2.4852071)">
        <path d="M 257.02,49.36 V 15.52 h 8.83 v 26.69 h 14.4 v 7.15 z" class="l10" id="path1940" style="fill:url(#L10)" inkscape:connector-curvature="0" />
        <path d="m 257.02,38.36 c 2.13,2.36 5.19,3.84 8.62,3.84 0.07,0 0.14,-0.01 0.22,-0.01 V 18.98 c -0.07,0 -0.14,-0.01 -0.22,-0.01 -3.42,0 -6.49,1.49 -8.62,3.84 z" class="l11" id="path1942" style="fill:url(#L11)" inkscape:connector-curvature="0" />
      </g>
      <g id="letterA0">
        <path d="m 218.81,49.36 -3.02,-7.01 h -14.98 l -3.02,7.01 h -8.88 L 204.7,15.52 h 7.01 l 15.84,33.84 z M 203.64,35.73 h 9.31 l -4.66,-10.85 z" class="a00" id="path1945" inkscape:connector-curvature="0" style="fill:url(#A00)" />
        <path d="m 218.81,49.36 h 8.74 l -3.56,-7.62 c -3.16,-6.75 -7.52,-6.02 -11.03,-6.02 h -9.31 c -2.65,0.01 -4.99,-1.41 -6.83,-3.31 l -3.24,6.94 c 2.22,1.8 4.68,3 7.23,3 h 14.98 z" class="a01" id="path1947" inkscape:connector-curvature="0" style="fill:url(#A01)" />
      </g>
    </g>
    <g id="wordQUEER" transform="translate(6)">
      <g id="letterR0" transform="translate(-4)">
        <path d="m 170.43,39.76 5.38,9.6 h -9.7 l -5.86,-10.8 c -0.74,-1.25 -1.9,-1.87 -3.5,-1.87 h -2.69 v 12.67 h -8.69 V 15.52 h 16.13 c 4.1,0 7.18,0.89 9.24,2.66 2.06,1.78 3.1,4.34 3.1,7.7 0,2.56 -0.7,4.73 -2.11,6.5 -1.02,1.29 -2.35,2.27 -3.99,2.95 m -3.43,-6.18 c 0.85,-0.61 1.27,-1.6 1.27,-2.98 0,-1.41 -0.42,-2.42 -1.27,-3.05 -0.85,-0.62 -2.25,-0.94 -4.2,-0.94 h -6.14 v 7.87 h 6.14 c 1.95,0.01 3.35,-0.29 4.2,-0.9 z" class="r00" id="path1951" style="fill:url(#R00)" inkscape:connector-curvature="0" />
        <path d="m 154.06,36.63 h 2.69 c 1.6,0 2.77,0.63 3.5,1.88 l 5.86,10.85 h 9.7 l -5.38,-9.64 -2.69,-4.44 c -1.47,-2.09 -4.09,-5.3 -8.18,-5.3 h -5.59 c -4.05,0.03 -8.59,-2.69 -8.59,-5.1 v 9.84 c 2.36,1.11 5.22,1.85 8.68,1.91 z" class="r01" id="path1953" style="fill:url(#R01)" inkscape:connector-curvature="0" />
      </g>
      <g id="letterE1" transform="translate(-2)">
        <path d="M 116.72,49.36 V 15.52 h 24.05 v 6.82 h -15.46 v 6.43 h 14.5 v 6.77 h -14.5 v 7.01 h 15.46 v 6.82 h -24.05 z" class="e10" id="path1956" style="fill:url(#E10)" inkscape:connector-curvature="0" />
        <path d="m 127.16,42.54 c -0.08,0.01 -0.16,0.02 -0.24,0.02 -1.94,0 -3.52,-1.57 -3.52,-3.52 0,-1.95 1.57,-3.52 3.52,-3.52 0.08,0 0.15,0.02 0.22,0.02 v -0.02 h 12.66 v -6.77 h -14.5 c -7.55,0 -8.59,6.13 -8.59,8.74 v 3.12 c 0,2.49 0.89,8.73 8.59,8.73 h 15.46 v -6.82 h -13.6 z" class="e11" id="path1958" style="fill:url(#E11)" inkscape:connector-curvature="0" />
      </g>
      <g id="letterE0">
        <path d="M 88.06,49.36 V 15.52 h 24.05 v 6.82 H 96.65 v 6.43 h 14.5 v 6.77 h -14.5 v 7.01 h 15.46 v 6.82 H 88.06 Z" class="e00" id="path1961" inkscape:connector-curvature="0" style="fill:url(#E00)" />
        <path d="m 96.65,42.54 c -0.08,-3.27 0,-17.63 0,-20.21 0,-2.58 0.74,-6.82 7.58,-6.82 H 88.06 v 33.84 c 6.88,-0.01 8.67,-3.54 8.59,-6.81 z" class="e01" id="path1963" inkscape:connector-curvature="0" style="fill:url(#E01)" />
      </g>
      <g id="letterU0" transform="translate(2.9467456)">
        <path d="M 55.92,46.04 C 53.38,43.54 52.1,39.9 52.1,35.1 V 15.52 h 8.64 v 19.92 c 0,2.43 0.54,4.3 1.63,5.62 1.09,1.31 2.66,1.97 4.7,1.97 2.05,0 3.62,-0.66 4.7,-1.97 1.09,-1.31 1.63,-3.18 1.63,-5.62 V 15.52 h 8.69 V 35.1 c 0,4.77 -1.29,8.41 -3.86,10.92 -2.58,2.51 -6.3,3.77 -11.16,3.77 -4.88,0 -8.6,-1.25 -11.15,-3.75 z" class="u00" id="path1966" style="fill:url(#U00)" inkscape:connector-curvature="0" />
        <path d="m 55.92,46.04 c 2.54,2.5 6.26,3.74 11.16,3.74 4.86,0 8.58,-1.26 11.16,-3.77 2.58,-2.51 3.86,-6.15 3.86,-10.92 v -7.28 c 0,5.71 -7.28,14.41 -14.01,15.14 -0.33,0.04 -0.66,0.07 -1.01,0.07 -0.64,0 -1.22,-0.07 -1.77,-0.2 -6.5,-1.2 -13.21,-8.13 -13.21,-15 v 7.28 c 0.01,4.8 1.28,8.45 3.82,10.94 z" class="u01" id="path1968" style="fill:url(#U01)" inkscape:connector-curvature="0" />
      </g>
      <g id="letterQ0" transform="translate(5.5384615)">
        <path d="m 53.14,55.06 -5.74,4.55 -12.83,-8.3 c -1.26,-0.74 -2.64,-1.52 -4.4,-1.52 -3.46,0 -6.46,-0.71 -9,-2.14 -2.54,-1.42 -4.5,-3.44 -5.88,-6.05 -1.38,-2.61 -2.06,-5.67 -2.06,-9.19 0,-3.52 0.69,-6.58 2.06,-9.19 1.38,-2.61 3.34,-4.62 5.88,-6.02 2.54,-1.41 5.54,-2.11 9,-2.11 3.46,0 6.46,0.7 9,2.11 2.54,1.41 4.5,3.42 5.86,6.02 1.36,2.61 2.04,5.67 2.04,9.19 0,3.49 -0.69,6.54 -2.06,9.17 -1.38,2.62 -3.34,4.64 -5.9,6.05 m -2.94,-7.32 c 1.44,-1.81 2.16,-4.44 2.16,-7.9 0,-3.46 -0.73,-6.08 -2.18,-7.87 -1.46,-1.79 -3.45,-2.69 -5.98,-2.69 -2.56,0 -4.56,0.89 -6,2.66 -1.44,1.78 -2.16,4.41 -2.16,7.9 0,3.49 0.72,6.13 2.16,7.92 1.44,1.79 3.44,2.69 6,2.69 2.56,0 4.56,-0.9 6,-2.71 z" class="q00" id="path1971" style="fill:url(#Q00)" inkscape:connector-curvature="0" />
        <path d="M 50.88,53.86 39.1,47.63 c 2.56,-1.41 4.53,-3.42 5.9,-6.05 1.38,-2.62 2.06,-5.68 2.06,-9.17 0,-3.52 -0.68,-6.58 -2.04,-9.19 -1.36,-2.61 -3.31,-4.62 -5.86,-6.02 -2.54,-1.41 -5.54,-2.11 -9,-2.11 -2.13,0 -4.09,0.27 -5.88,0.81 7.08,1.44 14.15,5.44 14.04,16.52 0,1.07 -0.08,2.06 -0.22,2.97 -0.01,0.1 -0.03,0.2 -0.05,0.3 -0.03,0.15 -0.05,0.29 -0.08,0.44 -1.48,8.28 -7.66,11.53 -13.82,12.81 1.82,0.57 3.82,0.85 6,0.85 1.76,0 3.14,0.78 4.4,1.52 l 12.83,8.3 3.6,-2.85 z" class="q01" id="path1973" style="fill:url(#Q01)" inkscape:connector-curvature="0" />
        <path d="M 37.15,52.98 47.4,59.61 53.14,55.06 41.3,48.79 c -1.31,-0.62 -2.58,-1.22 -3.7,-1.76 -6.18,-3 -16.03,-6.07 -22.31,-5.43 1.38,2.61 3.34,4.62 5.88,6.05 1.59,0.89 3.36,1.47 5.3,1.84 2.75,0.51 5.31,0.3 10.68,3.49 z" class="q02" id="path1975" style="fill:url(#Q02)" inkscape:connector-curvature="0" />
      </g>
    </g>
    <g style="stroke-width:1.56534827" transform="matrix(0.63883543,0,0,0.63883543,135.84737,-5.9226141)" id="wordDEthin">
      <g aria-label=".de" style="font-style:normal;font-variant:normal;font-weight:300;font-stretch:normal;font-size:22.29867935px;line-height:1.25;font-family:'Gill Sans';-inkscape-font-specification:'Gill Sans, Light';font-variant-ligatures:normal;font-variant-caps:normal;font-variant-numeric:normal;font-feature-settings:normal;text-align:start;letter-spacing:0px;word-spacing:0px;writing-mode:lr-tb;text-anchor:start;fill:#000000;fill-opacity:1;stroke:none;stroke-width:5.92072439" id="text2941">
        <path d="m 447.84931,84.302406 v 2.166718 h -1.44811 v -2.166718 z" style="stroke-width:5.92072439" id="path3402" inkscape:connector-curvature="0" />
        <path d="m 459.12931,71.25855 v 15.210574 h -1.07792 v -0.783938 q -1.37189,0.979922 -2.96154,0.979922 -2.13406,0 -3.60394,-1.502547 -1.459,-1.513436 -1.459,-3.712818 0,-2.232045 1.43722,-3.712817 1.44811,-1.480772 3.62572,-1.480772 1.38278,0 2.96154,0.805714 V 71.25855 Z m -1.07792,13.446713 v -6.467488 q -1.43722,-0.93637 -2.91799,-0.93637 -1.7312,0 -2.85266,1.154131 -1.12147,1.143243 -1.12147,2.928879 0,1.818301 1.19768,3.026872 1.19769,1.208571 2.99421,1.208571 1.39367,0 2.70023,-0.914595 z" style="stroke-width:5.92072439" id="path3404" inkscape:connector-curvature="0" />
        <path d="m 470.39841,81.090438 h -7.89382 q -0.0327,0.261313 -0.0327,0.522626 0,1.676756 1.19768,2.841775 1.19768,1.165019 2.83089,1.165019 1.9054,0 3.7237,-1.49166 v 1.208571 q -1.7203,1.328339 -3.85436,1.328339 -2.16672,0 -3.58216,-1.502547 -1.41544,-1.502548 -1.41544,-3.821698 0,-2.199381 1.30656,-3.636601 1.30656,-1.448108 3.28819,-1.448108 1.86185,0 3.14664,1.306564 1.28478,1.295675 1.28478,3.52772 z m -7.75227,-0.860154 h 6.48926 q -0.56618,-2.928879 -3.16841,-2.928879 -1.23035,0 -2.13406,0.77305 -0.89282,0.762162 -1.18679,2.155829 z" style="stroke-width:5.92072439" id="path3406" inkscape:connector-curvature="0" />
      </g>
    </g>
    <g id="wordDE" transform="matrix(0.47424894,0,0,0.47424894,218.07035,25.636876)" style="stroke-width:2.10859704">
      <g id="g7007" style="stroke-width:2.10859704" transform="translate(-2.3862366,0.83912677)">
        <path d="M 478.15,49.36 V 15.52 h 24.05 v 6.82 h -15.46 v 6.43 h 14.5 v 6.77 h -14.5 v 7.01 h 15.46 v 6.82 h -24.05 z" class="e30" id="path7003" inkscape:connector-curvature="0" style="fill:url(#E30);stroke-width:2.10859704" />
        <path d="m 486.74,42.36 v -6.82 h 14.5 v -6.77 h -14.5 v -6.24 c -4.86,0.72 -8.59,4.88 -8.59,9.92 0,5.04 3.73,9.18 8.59,9.91 z" class="e31" id="path7005" inkscape:connector-curvature="0" style="fill:url(#E31);stroke-width:2.10859704" />
      </g>
      <g id="g7013" style="stroke-width:2.10859704" transform="translate(-1.4067318,0.59920714)">
        <path d="m 441.05,15.52 h 13.78 c 3.74,0 6.97,0.67 9.67,2.02 2.7,1.34 4.78,3.29 6.22,5.83 1.44,2.54 2.16,5.56 2.16,9.05 0,3.52 -0.71,6.55 -2.14,9.1 -1.43,2.55 -3.49,4.49 -6.19,5.83 -2.71,1.34 -5.95,2.02 -9.72,2.02 h -13.78 z m 13.15,26.73 c 3.33,0 5.81,-0.82 7.44,-2.45 1.63,-1.63 2.45,-4.1 2.45,-7.39 0,-3.3 -0.82,-5.75 -2.45,-7.37 -1.63,-1.62 -4.11,-2.42 -7.44,-2.42 h -4.32 v 19.63 z" class="d00" id="path7009" inkscape:connector-curvature="0" style="fill:url(#D00);stroke-width:2.10859704" />
        <path d="m 463.84,35.25 c -0.35,1.91 -1.08,3.44 -2.2,4.56 -1.63,1.63 -4.11,2.45 -7.44,2.45 h -4.32 V 22.62 h 4.32 c 3.33,0 5.81,0.81 7.44,2.42 1.16,1.15 1.9,2.73 2.23,4.72 -0.98,-6.64 -5.6,-12.08 -11.77,-14.25 h -11.05 v 33.84 h 10.83 c 6.21,-2.08 10.9,-7.48 11.96,-14.1 z" class="d01" id="path7011" inkscape:connector-curvature="0" style="fill:url(#D01);stroke-width:2.10859704" />
      </g>
      <g id="g7017" style="stroke-width:2.10859704" transform="translate(-0.80926972,0.74007565)">
        <path id="path7015" class="p00" d="m 426.98,40.62 h 8.88 v 8.74 h -8.88 z" inkscape:connector-curvature="0" style="fill:url(#P00);stroke-width:2.10859704" />
      </g>
    </g>
  </g>
</svg>