<?xml version="1.0" encoding="UTF-8" standalone="no"?>
<svg
   xmlns:dc="http://purl.org/dc/elements/1.1/"
   xmlns:cc="http://creativecommons.org/ns#"
   xmlns:rdf="http://www.w3.org/1999/02/22-rdf-syntax-ns#"
   xmlns:svg="http://www.w3.org/2000/svg"
   xmlns="http://www.w3.org/2000/svg"
   xmlns:sodipodi="http://sodipodi.sourceforge.net/DTD/sodipodi-0.dtd"
   xmlns:inkscape="http://www.inkscape.org/namespaces/inkscape"
   id="orig2"
   x="0"
   y="0"
   version="1.1"
   viewBox="0 0 195.2025 109.536"
   xml:space="preserve"
   sodipodi:docname="QueerAllYear_mono.svg"
   inkscape:version="0.92.2 5c3e80d, 2017-08-06"><metadata
     id="metadata209"><rdf:RDF><cc:Work
         rdf:about=""><dc:format>image/svg+xml</dc:format><dc:type
           rdf:resource="http://purl.org/dc/dcmitype/StillImage" /><dc:title /></cc:Work></rdf:RDF></metadata><sodipodi:namedview
     pagecolor="#ffffff"
     bordercolor="#666666"
     borderopacity="1"
     objecttolerance="10"
     gridtolerance="10"
     guidetolerance="10"
     inkscape:pageopacity="0"
     inkscape:pageshadow="2"
     inkscape:window-width="1638"
     inkscape:window-height="1005"
     id="namedview207"
     showgrid="false"
     inkscape:snap-global="false"
     inkscape:zoom="21.639067"
     inkscape:cx="72.006298"
     inkscape:cy="31.206869"
     inkscape:window-x="42"
     inkscape:window-y="1"
     inkscape:window-maximized="1"
     inkscape:current-layer="orig2" /><defs
     id="defs191"><filter
       id="filterShadow"
       color-interpolation-filters="sRGB"><feFlood
         id="feFlood1277"
         flood-color="#000"
         flood-opacity=".498"
         result="flood" /><feComposite
         id="feComposite1279"
         in="flood"
         in2="SourceGraphic"
         operator="in"
         result="composite1" /><feGaussianBlur
         id="feGaussianBlur1281"
         in="composite1"
         result="blur"
         stdDeviation="1.5" /><feOffset
         id="feOffset1283"
         dx="3"
         dy="3.4"
         result="offset" /><feComposite
         id="finalComposite"
         in="SourceGraphic"
         in2="offset"
         k1="0"
         k2="0"
         k3="1"
         k4="0"
         operator="over"
         result="composite2" /></filter></defs><linearGradient
     id="L00"
     x1="229.3883"
     x2="244.648"
     y1="18.3596"
     y2="53.8551"
     gradientUnits="userSpaceOnUse"
     gradientTransform="matrix(0.9806,0,0,0.9806,-173.43452,38.948056)"><stop
       id="stop4"
       offset="0"
       stop-color="#F48FBF" /><stop
       id="stop1773"
       offset=".5"
       stop-color="#EC3E90" /><stop
       id="stop6"
       offset="1"
       stop-color="#BE1363" /></linearGradient><linearGradient
     id="L01"
     x1="249.7042"
     x2="232.9516"
     y1="29.1336"
     y2="46.052"
     gradientUnits="userSpaceOnUse"
     gradientTransform="matrix(0.9806,0,0,0.9806,-170.16562,40.743356)"><stop
       id="stop10"
       offset="0"
       stop-color="#F48FBF" /><stop
       id="stop1778"
       offset=".5"
       stop-color="#EC3E90" /><stop
       id="stop12"
       offset="1"
       stop-color="#BE1363" /></linearGradient><linearGradient
     id="E30"
     x1="480.3744"
     x2="501.1071"
     y1="17.4293"
     y2="49.1808"
     gradientUnits="userSpaceOnUse"><stop
       id="stop16"
       offset="0"
       stop-color="#6B6B6B" /><stop
       id="stop1783"
       offset=".5"
       stop-color="#363636" /><stop
       id="stop18"
       offset="1"
       stop-color="#000000" /></linearGradient><linearGradient
     id="E31"
     x1="493.9286"
     x2="485.5195"
     y1="41.5532"
     y2="21.8354"
     gradientUnits="userSpaceOnUse"><stop
       id="stop22"
       offset="0"
       stop-color="#6B6B6B" /><stop
       id="stop1788"
       offset=".5"
       stop-color="#363636" /><stop
       id="stop24"
       offset="1"
       stop-color="#000000" /></linearGradient><linearGradient
     id="D00"
     x1="471.2181"
     x2="445.6357"
     y1="41.2834"
     y2="30.3918"
     gradientUnits="userSpaceOnUse"><stop
       id="stop28"
       offset="0"
       stop-color="#6B6B6B" /><stop
       id="stop1793"
       offset=".5"
       stop-color="#363636" /><stop
       id="stop30"
       offset="1"
       stop-color="#000000" /></linearGradient><linearGradient
     id="D01"
     x1="441.0465"
     x2="463.8716"
     y1="32.437"
     y2="32.437"
     gradientUnits="userSpaceOnUse"><stop
       id="stop34"
       offset="0"
       stop-color="#6B6B6B" /><stop
       id="stop1798"
       offset=".5"
       stop-color="#363636" /><stop
       id="stop36"
       offset="1"
       stop-color="#000000" /></linearGradient><linearGradient
     id="P00"
     x1="428.4555"
     x2="435.8497"
     y1="41.3233"
     y2="50.4573"
     gradientUnits="userSpaceOnUse"><stop
       id="stop40"
       offset="0"
       stop-color="#6B6B6B" /><stop
       id="stop1803"
       offset=".5"
       stop-color="#363636" /><stop
       id="stop42"
       offset="1"
       stop-color="#000000" /></linearGradient><linearGradient
     id="R11"
     x1="418.2066"
     x2="397.782"
     y1="20.7083"
     y2="30.5745"
     gradientUnits="userSpaceOnUse"
     gradientTransform="matrix(0.9806,0,0,0.9806,-238.31299,39.81603)"><stop
       id="stop46"
       offset="0"
       stop-color="#93D3FB" /><stop
       id="stop1808"
       offset=".5"
       stop-color="#3FB2F8" /><stop
       id="stop48"
       offset="1"
       stop-color="#0889D9" /></linearGradient><linearGradient
     id="R10"
     x1="395.5869"
     x2="420.889"
     y1="17.8962"
     y2="53.1447"
     gradientUnits="userSpaceOnUse"
     gradientTransform="matrix(0.9806,0,0,0.9806,-241.58189,38.02073)"><stop
       id="stop52"
       offset="0"
       stop-color="#93D3FB" /><stop
       id="stop1813"
       offset=".5"
       stop-color="#3FB2F8" /><stop
       id="stop54"
       offset="1"
       stop-color="#0889D9" /></linearGradient><linearGradient
     id="A10"
     x1="373.5918"
     x2="372.9971"
     y1="15.2047"
     y2="41.3714"
     gradientUnits="userSpaceOnUse"
     gradientTransform="matrix(0.9806,0,0,0.9806,-232.97321,32.424347)"><stop
       id="stop58"
       offset="0"
       stop-color="#93D3FB" /><stop
       id="stop1818"
       offset=".5"
       stop-color="#3FB2F8" /><stop
       id="stop60"
       offset="1"
       stop-color="#0889D9" /></linearGradient><linearGradient
     id="A11"
     x1="355.0282"
     x2="391.6727"
     y1="48.0038"
     y2="40.4132"
     gradientUnits="userSpaceOnUse"><stop
       id="stop64"
       offset="0"
       stop-color="#93D3FB" /><stop
       id="stop1823"
       offset=".5"
       stop-color="#3FB2F8" /><stop
       id="stop66"
       offset="1"
       stop-color="#0889D9" /></linearGradient><linearGradient
     id="E21"
     x1="344.5523"
     x2="338.0107"
     y1="16.8403"
     y2="32.6989"
     gradientUnits="userSpaceOnUse"
     gradientTransform="matrix(0.9806,0,0,0.9806,-223.2332,38.2042)"><stop
       id="stop70"
       offset="0"
       stop-color="#FCEA89" /><stop
       id="stop1828"
       offset=".5"
       stop-color="#F9DA32" /><stop
       id="stop72"
       offset="1"
       stop-color="#CCAD06" /></linearGradient><linearGradient
     id="E20"
     x1="330.5862"
     x2="358.1406"
     y1="25.6537"
     y2="42.9"
     gradientUnits="userSpaceOnUse"
     gradientTransform="matrix(0.9806,0,0,0.9806,-223.2332,38.2042)"><stop
       id="stop76"
       offset="0"
       stop-color="#FCEA89" /><stop
       id="stop1833"
       offset=".5"
       stop-color="#F9DA32" /><stop
       id="stop78"
       offset="1"
       stop-color="#CCAD06" /></linearGradient><linearGradient
     id="Y00"
     x1="296.7784"
     x2="320.9246"
     y1="41.5219"
     y2="9.4734"
     gradientUnits="userSpaceOnUse"
     gradientTransform="matrix(0.9806,0,0,0.9806,-209.04823,31.965623)"><stop
       id="stop82"
       offset="0"
       stop-color="#FCEA89" /><stop
       id="stop1838"
       offset=".5"
       stop-color="#F9DA32" /><stop
       id="stop84"
       offset="1"
       stop-color="#CCAD06" /></linearGradient><linearGradient
     id="Y01"
     x1="297.5605"
     x2="315.4015"
     y1="32.7431"
     y2="30.3643"
     gradientUnits="userSpaceOnUse"
     gradientTransform="matrix(0.9806,0,0,0.9806,-205.77933,33.760923)"><stop
       id="stop88"
       offset="0"
       stop-color="#FCEA89" /><stop
       id="stop1843"
       offset=".5"
       stop-color="#F9DA32" /><stop
       id="stop90"
       offset="1"
       stop-color="#CCAD06" /></linearGradient><linearGradient
     id="L10"
     x1="277.5868"
     x2="252.8727"
     y1="26.9683"
     y2="42.0622"
     gradientUnits="userSpaceOnUse"
     gradientTransform="matrix(0.9806,0,0,0.9806,-191.83489,31.9755)"><stop
       id="stop94"
       offset="0"
       stop-color="#F48FBF" /><stop
       id="stop1848"
       offset=".5"
       stop-color="#EC3E90" /><stop
       id="stop96"
       offset="1"
       stop-color="#BE1363" /></linearGradient><linearGradient
     id="L11"
     x1="259.22"
     x2="265.6888"
     y1="39.9936"
     y2="18.0992"
     gradientUnits="userSpaceOnUse"
     gradientTransform="matrix(0.9806,0,0,0.9806,-188.03566,33.814994)"><stop
       id="stop100"
       offset="0"
       stop-color="#F48FBF" /><stop
       id="stop1853"
       offset=".5"
       stop-color="#EC3E90" /><stop
       id="stop102"
       offset="1"
       stop-color="#BE1363" /></linearGradient><linearGradient
     id="A00"
     x1="191.3555"
     x2="224.4228"
     y1="31.4688"
     y2="35.046"
     gradientUnits="userSpaceOnUse"
     gradientTransform="matrix(0.9806,0,0,0.9806,-164.44359,31.79203)"><stop
       id="stop106"
       offset="0"
       stop-color="#F48FBF" /><stop
       offset=".5"
       stop-color="#EC3E90"
       id="stop79" /><stop
       id="stop108"
       offset="1"
       stop-color="#BE1363" /></linearGradient><linearGradient
     id="A01"
     x1="226.263"
     x2="194.7483"
     y1="46.8056"
     y2="33.2046"
     gradientUnits="userSpaceOnUse"><stop
       id="stop112"
       offset="0"
       stop-color="#F48FBF" /><stop
       offset=".5"
       stop-color="#EC3E90"
       id="stop85" /><stop
       id="stop114"
       offset="1"
       stop-color="#BE1363" /></linearGradient><linearGradient
     id="R01"
     x1="176.7777"
     x2="146.2131"
     y1="47.9528"
     y2="28.1854"
     gradientUnits="userSpaceOnUse"><stop
       id="stop118"
       offset="0"
       stop-color="#93D3FB" /><stop
       offset=".5"
       stop-color="#3FB2F8"
       id="stop91" /><stop
       id="stop120"
       offset="1"
       stop-color="#0889D9" /></linearGradient><linearGradient
     id="R00"
     x1="144.1624"
     x2="164.3981"
     y1="18.1121"
     y2="40.8358"
     gradientUnits="userSpaceOnUse"
     gradientTransform="translate(-22.3699,-1.6118)"><stop
       id="stop124"
       offset="0"
       stop-color="#93D3FB" /><stop
       offset=".5"
       stop-color="#3FB2F8"
       id="stop97" /><stop
       id="stop126"
       offset="1"
       stop-color="#0889D9" /></linearGradient><linearGradient
     id="E11"
     x1="141.7942"
     x2="116.0169"
     y1="44.015"
     y2="31.8216"
     gradientUnits="userSpaceOnUse"><stop
       id="stop130"
       offset="0"
       stop-color="#FCEA89" /><stop
       offset=".5"
       stop-color="#F9DA32"
       id="stop103" /><stop
       id="stop132"
       offset="1"
       stop-color="#CCAD06" /></linearGradient><linearGradient
     id="E10"
     x1="138.9617"
     x2="116.8211"
     y1="24.1902"
     y2="42.0525"
     gradientUnits="userSpaceOnUse"><stop
       id="stop136"
       offset="0"
       stop-color="#FCEA89" /><stop
       offset=".5"
       stop-color="#F9DA32"
       id="stop109" /><stop
       id="stop138"
       offset="1"
       stop-color="#CCAD06" /></linearGradient><linearGradient
     id="E00"
     x1="90.6665"
     x2="114.917"
     y1="22.6194"
     y2="47.8994"
     gradientUnits="userSpaceOnUse"
     gradientTransform="translate(-10.1129,-2.1623)"><stop
       id="stop142"
       offset="0"
       stop-color="#FCEA89" /><stop
       offset=".5"
       stop-color="#F9DA32"
       id="stop115" /><stop
       id="stop144"
       offset="1"
       stop-color="#CCAD06" /></linearGradient><linearGradient
     id="E01"
     x1="87.2541"
     x2="102.811"
     y1="14.8513"
     y2="45.622"
     gradientUnits="userSpaceOnUse"
     gradientTransform="translate(-12.844,-0.367)"><stop
       id="stop148"
       offset="0"
       stop-color="#FCEA89" /><stop
       offset=".5"
       stop-color="#F9DA32"
       id="stop121" /><stop
       id="stop150"
       offset="1"
       stop-color="#CCAD06" /></linearGradient><linearGradient
     id="U00"
     x1="71.4533"
     x2="63.5509"
     y1="45.4328"
     y2="11.1892"
     gradientUnits="userSpaceOnUse"><stop
       id="stop154"
       offset=".2291"
       stop-color="#F48FBF" /><stop
       offset=".5"
       stop-color="#EC3E90"
       id="stop127" /><stop
       id="stop156"
       offset="1"
       stop-color="#BE1363" /></linearGradient><linearGradient
     id="U01"
     x1="80.4142"
     x2="53.4184"
     y1="28.6944"
     y2="43.6794"
     gradientUnits="userSpaceOnUse"><stop
       id="stop160"
       offset="0"
       stop-color="#F48FBF" /><stop
       offset=".5"
       stop-color="#EC3E90"
       id="stop133" /><stop
       id="stop162"
       offset="1"
       stop-color="#BE1363" /></linearGradient><linearGradient
     id="Q00"
     x1="30.2469"
     x2="42.3721"
     y1="47.6172"
     y2="21.6509"
     gradientUnits="userSpaceOnUse"
     gradientTransform="translate(8.2696,-1.7953)"><stop
       id="stop166"
       offset="0"
       stop-color="#F48FBF" /><stop
       offset=".5"
       stop-color="#EC3E90"
       id="stop139" /><stop
       id="stop168"
       offset="1"
       stop-color="#BE1363" /></linearGradient><linearGradient
     id="Q01"
     x1="48.9573"
     x2="30.1263"
     y1="24.4107"
     y2="44.2452"
     gradientUnits="userSpaceOnUse"
     gradientTransform="translate(8.2696,-1.7953)"><stop
       id="stop172"
       offset="0"
       stop-color="#F48FBF" /><stop
       id="stop176"
       offset=".589"
       stop-color="#EB3389" /><stop
       id="stop178"
       offset="1"
       stop-color="#BE1363" /></linearGradient><linearGradient
     id="Q02"
     x1="53.3646"
     x2="14.3579"
     y1="48.6701"
     y2="52.1018"
     gradientUnits="userSpaceOnUse"
     gradientTransform="translate(8.2696,-1.7953)"><stop
       id="stop182"
       offset="0"
       stop-color="#F48FBF" /><stop
       id="stop1896"
       offset=".5"
       stop-color="#EC3E90" /><stop
       id="stop184"
       offset="1"
       stop-color="#BE1363" /></linearGradient><path
     sodipodi:nodetypes="ccccsccccccsccc"
     inkscape:connector-curvature="0"
     id="path1914"
     d="m 144.92188,53.240234 v 33.183594 h 8.52148 V 73.998047 h 2.63672 c 1.56896,0 2.70794,0.608234 3.43359,1.833984 l 5.7461,10.591797 h 9.51171 l -5.27539,-9.414062 c -0.74628,-1.233865 -2.30643,-3.584807 -2.89056,-4.525354 -1.94159,0.921764 -3.83662,1.400356 -6.04297,1.410156 -7.0211,0 -12.71875,-5.416404 -12.71875,-12.4375 0,-3.128114 1.13682,-5.990875 3.00977,-8.207031 0,0 -5.92245,-0.0641 -5.93164,-0.0098 z"
     style="fill:#000000;fill-opacity:1;stroke-width:1.00001585;stroke:none;stroke-opacity:1" /><path
     sodipodi:nodetypes="cscscsccccscssscc"
     inkscape:connector-curvature="0"
     style="fill:#000000;fill-opacity:1;stroke-width:1.00001585;stroke:none;stroke-opacity:1"
     d="m 171.13543,69.15736 c 1.38265,-1.745468 2.06907,-3.863564 2.06907,-6.3739 0,-3.294816 -1.01002,-5.814958 -3.03986,-7.55062 -2.02004,-1.745468 -5.35279,-1.920896 -9.37325,-1.920896 h -8.93714 c -1.87295,2.216156 -3.38544,4.829508 -3.38544,7.957622 0,7.021096 5.44728,12.280882 12.46838,12.280882 3.92125,-0.394661 7.7525,-1.390615 10.19824,-4.393088 z m -17.41548,-2.284794 v -7.717322 h 6.02089 c 1.91217,0 3.28501,0.303986 4.11852,0.921764 0.83351,0.607972 1.24536,1.608184 1.24536,2.99083 0,1.353228 -0.41185,2.324022 -1.24536,2.922188 -0.83351,0.598166 -2.20635,0.892346 -4.11852,0.892346 h -6.02089 z"
     id="path1916" /><path
     inkscape:connector-curvature="0"
     id="path1919"
     d="m 129.15234,47.642578 -13.41796,28.75586 c 3.60629,-5.322049 9.67211,-8.833923 16.55859,-8.9375 h -4.17969 l 4.56055,-10.638672 4.56836,10.638672 h -4.32617 c 6.90079,0.104293 12.9615,3.630662 16.57421,8.953124 l 2.0586,4.402344 h -5.66797 -2.89648 l 0.004,0.0098 h 8.57031 L 136.02734,47.642578 Z m -3.82422,26.300781 -2.96093,6.873047 h -8.69531 l -0.004,0.0098 h 8.70898 l 2.96094,-6.873047 h 14.68359 l -0.004,-0.0098 z"
     style="fill:#000000;fill-opacity:1;stroke-width:1.00001585;stroke:none;stroke-opacity:1" /><path
     sodipodi:nodetypes="csccccccccc"
     inkscape:connector-curvature="0"
     style="fill:#000000;fill-opacity:1;stroke-width:1.00001585;stroke:none;stroke-opacity:1"
     d="m 149.49021,76.414063 c -3.66745,-5.403106 -9.85503,-7.990412 -16.88593,-7.990412 -7.03091,0 -13.2381,2.587306 -16.89574,8.010024 l -2.04946,4.383282 h 8.70773 l 2.96141,-6.874006 h 14.68939 l 2.96141,6.874006 h 2.90258 5.66787 z"
     id="path1921" /><path
     style="fill:#000000;fill-opacity:1;stroke:none;stroke-width:1.00001585;stroke-opacity:1"
     d="m 99.924658,53.394365 v 33.183594 0.0098 h 23.582032 v -6.6875 h -15.16016 v -6.875 h 14.21875 v -0.0098 h -1.12695 C 109.4554,72.358457 99.973486,63.88626 99.973486,53.521318 v -0.126953 z m 8.421872,6.677734 v 0.0098 h 15.16016 v -0.0098 z"
     id="path1924"
     inkscape:connector-curvature="0" /><path
     inkscape:connector-curvature="0"
     style="fill:#000000;stroke-width:1.00001585;fill-opacity:1;stroke:none;stroke-opacity:1"
     d="m 99.82547,53.55059 c 0,9.97559 10.35111,17.756064 21.46533,19.494328 h 1.12769 v -6.638662 h -14.2187 v -6.305258 h 15.16008 v -6.687692 h -23.5344 z"
     id="path1926"
     sodipodi:nodetypes="sccccccccs" /><path
     sodipodi:nodetypes="cccsccccc"
     inkscape:connector-curvature="0"
     id="path1929"
     d="m 104.17578,47.183594 -8.526117,10.958679 1.618349,2.280062 c 1.82392,2.20635 2.671441,5.305181 2.671441,8.394071 0,5.108926 -3.011449,9.501328 -7.345703,11.550782 h 7.394531 V 65.589844 l 14.021489,-18.40625 z"
     style="fill:#000000;fill-opacity:1;stroke:none;stroke-width:1.00001585;stroke-opacity:1" /><path
     inkscape:connector-curvature="0"
     style="fill:#000000;fill-opacity:1;stroke:none;stroke-width:1.00001585;stroke-opacity:1"
     d="M 95.542078,58.716391 87.069694,47.184535 H 77.32253 l 13.934326,18.405862 v 14.777642 h 1.27478 c 4.334254,-2.049454 7.138455,-6.501468 7.138455,-11.610394 0,-3.08889 -0.892031,-5.863898 -2.715951,-8.070248"
     id="path1931"
     sodipodi:nodetypes="ccccccsc" /><g
     transform="translate(2.7311,-1.7953)"
     id="g1030"
     style="stroke:none;stroke-opacity:1;fill:#000000"><path
       transform="translate(-2.7311,1.7953)"
       sodipodi:nodetypes="cscccccccccccccccc"
       inkscape:connector-curvature="0"
       id="path1961"
       d="m 93.875,13.357422 c -6.605107,0.103601 -6.486568,4.262745 -6.486568,6.810547 v 0.0098 h 14.609618 v -6.820312 z m -6.486568,13.25 c -0.09759,1.293292 0,6.769531 0,6.769531 h 13.648678 v -6.769531 z m 0,13.752242 c 0.07545,3.266721 -2.569356,6.817848 -9.441166,6.827836 v 0.0098 l 0.851323,0.0098 h 23.199461 v -6.818359 z"
       style="fill:#000000;fill-opacity:1;stroke:none;stroke-opacity:1" /><path
       id="path1963"
       d="m 83.806,42.173 c -0.08,-3.27 0,-17.63 0,-20.21 0,-2.58 0.74,-6.82 7.58,-6.82 h -16.17 v 33.84 c 6.88,-0.01 8.67,-3.54 8.59,-6.81 z"
       style="fill:#000000;fill-opacity:1;stroke:none;stroke-opacity:1"
       inkscape:connector-curvature="0" /></g><g
     id="letterU0"
     transform="translate(-4.0469,-6.5659)"
     style="stroke:none;stroke-opacity:1;fill:#000000"><path
       style="fill:#000000;fill-opacity:1;stroke:none;stroke-opacity:1"
       d="m 52.099634,15.519025 v 12.300781 c 0,6.715369 6.411974,13.472271 12.771485,14.894532 -1.005904,-0.314834 -1.843825,-0.863336 -2.501953,-1.654297 -1.09,-1.32 -1.628907,-3.189141 -1.628907,-5.619141 V 15.519025 Z m 21.300782,0 V 35.4409 c 0,2.44 -0.54086,4.309141 -1.63086,5.619141 -0.68828,0.834858 -1.57644,1.402752 -2.660156,1.707031 6.375542,-1.417955 12.880691,-9.40668 12.980469,-14.828125 V 15.519025 Z M 52.099634,35.099103 c 0,3 0.500977,5.547852 1.496094,7.646485 -0.991849,-2.098387 -1.489847,-4.648327 -1.496094,-7.646485 z m 25.119141,11.792969 c -2.506875,1.922676 -5.886172,2.888672 -10.138672,2.888672 -3.0625,0 -5.664062,-0.485352 -7.804687,-1.458985 2.142548,0.978533 4.741846,1.46875 7.794922,1.46875 4.258697,0 7.640456,-0.970163 10.148437,-2.898437 z"
       id="path1966"
       inkscape:connector-curvature="0" /><path
       id="path1968"
       d="m 55.92,46.04 c 2.54,2.5 6.26,3.74 11.16,3.74 4.86,0 8.58,-1.26 11.16,-3.77 2.58,-2.51 3.976034,-5.453797 3.976034,-10.223797 v -7.28 c 0,5.71 -7.28,14.41 -14.01,15.14 -0.927269,0.05503 -2.05739,-0.04625 -2.78,-0.13 -6.5,-1.2 -13.21,-8.13 -13.21,-15 v 7.28 C 52.226034,40.596203 53.38,43.55 55.92,46.04 Z"
       style="fill:#000000;fill-opacity:1;stroke:none;stroke-opacity:1"
       inkscape:connector-curvature="0"
       sodipodi:nodetypes="cssscccccc" /></g><path
     style="fill:#000000;fill-opacity:1;stroke:none;stroke-opacity:1"
     d="m 29.439453,15.404295 c -2.54,1.4 -4.498906,3.409531 -5.878906,6.019531 -1.37,2.61 -2.060547,5.671406 -2.060547,9.191406 0,3.52 0.680547,6.579454 2.060547,9.189454 4.869169,-0.496222 11.691059,0.889338 17.47752,3.091759 2.242435,-1.844812 4.166509,-4.067034 4.997089,-7.638635 -0.359901,1.282742 -0.889764,2.370487 -1.595703,3.257813 -1.44,1.81 -3.44,2.708984 -6,2.708984 -2.56,0 -4.56,-0.899453 -6,-2.689453 -1.44,-1.79 -2.160156,-4.429922 -2.160156,-7.919922 0,-3.49 0.720156,-6.12039 2.160156,-7.90039 1.44,-1.77 3.44,-2.660157 6,-2.660156 2.53,-1e-6 4.520469,0.899453 5.980469,2.689453 1.228527,1.516595 1.932421,3.637015 2.121094,6.351562 C 46.0067,19.181984 38.450113,15.830067 31.709139,14.459022 c -0.02644,-0.01752 -1.056534,0.281319 -2.269686,0.945273 z"
     id="path1971"
     inkscape:connector-curvature="0"
     sodipodi:nodetypes="ccscccsssscscccc" /><path
     inkscape:connector-curvature="0"
     style="fill:#000000;fill-opacity:1;stroke:none;stroke-opacity:1"
     d="m 59.1496,52.0647 -11.78,-6.23 c 2.56,-1.41 4.53,-3.42 5.9,-6.05 1.38,-2.62 2.06,-5.68 2.06,-9.17 0,-3.52 -0.68,-6.58 -2.04,-9.19 -1.36,-2.61 -3.31,-4.62 -5.86,-6.02 -2.54,-1.41 -5.54,-2.11 -9,-2.11 -2.13,0 -4.09,0.27 -5.88,0.81 7.08,1.44 14.15,5.44 14.04,16.52 0,1.07 -0.08,2.06 -0.22,2.97 -1.305545,7.262026 -8.186708,12.277359 -13.95,13.55 1.82,0.57 3.82,0.85 6,0.85 1.76,0 3.14,0.78 4.4,1.52 l 12.83,8.3 3.6,-2.85 z"
     id="path1973"
     sodipodi:nodetypes="cccsscsccccscccc" /><path
     inkscape:connector-curvature="0"
     style="fill:#000000;fill-opacity:1;stroke:none;stroke-opacity:1"
     d="m 45.4196,51.1847 10.25,6.63 5.74,-4.55 -11.84,-6.27 c -1.31,-0.62 -2.58,-1.22 -3.7,-1.76 -6.18,-3 -15.676447,-5.583864 -21.956447,-4.943864 1.38,2.61 2.986447,4.133864 5.526447,5.563864 1.59,0.89 3.36,1.47 5.3,1.84 2.75,0.51 5.31,0.3 10.68,3.49 z"
     id="path1975"
     sodipodi:nodetypes="ccccccccc" /><g
     id="g1036"
     transform="translate(24.670797,-8.3804883)"
     style="stroke:none;stroke-opacity:1;fill:#000000"><path
       style="fill:#000000;fill-opacity:1;stroke:none;stroke-opacity:1"
       d="m 93.875,13.357422 c -6.605107,0.103601 -6.486568,4.262745 -6.486568,6.810547 v 0.0098 h 14.609618 v -6.820312 z m -6.486568,13.25 c -0.09759,1.293292 0,6.769531 0,6.769531 h 13.648678 v -6.769531 z m 0,13.752242 c 0.07545,3.266721 -2.569356,6.817848 -9.441166,6.827836 v 0.0098 l 0.851323,0.0098 h 23.199461 v -6.818359 z"
       id="path1032"
       inkscape:connector-curvature="0"
       sodipodi:nodetypes="cscccccccccccccccc"
       transform="translate(-2.7311,1.7953)" /><path
       inkscape:connector-curvature="0"
       style="fill:#000000;fill-opacity:1;stroke:none;stroke-opacity:1"
       d="m 83.806,42.173 c -0.08,-3.27 0,-17.63 0,-20.21 0,-2.58 0.74,-6.82 7.58,-6.82 h -16.17 v 33.84 c 6.88,-0.01 8.67,-3.54 8.59,-6.81 z"
       id="path1034" /></g><g
     id="letterR0"
     transform="translate(-22.3699,-1.6118)"
     style="stroke:none;stroke-opacity:1;fill:#000000"><path
       sodipodi:nodetypes="cccccscscccccscscccccccccccc"
       inkscape:connector-curvature="0"
       id="path1951"
       transform="translate(22.3699,1.6118)"
       d="m 123,13.908203 v 10.636719 l 0.01,-1.277344 c 0,2.41 4.53984,5.131563 8.58984,5.101563 v -7.800782 h 6.14062 c 1.95,0 3.34922,0.319453 4.19922,0.939453 0.85,0.63 1.27149,1.640782 1.27149,3.050782 0,1.38 -0.42149,2.370469 -1.27149,2.980468 -0.79718,0.572099 -2.09658,0.859968 -3.86133,0.886719 3.58354,0.420928 5.93069,3.308112 7.29102,5.242188 l 0.0234,0.03906 c 1.62864,-0.679582 2.95192,-1.655945 3.9668,-2.939453 1.40999,-1.77 2.11132,-3.94 2.11132,-6.5 0,-3.36 -1.04156,-5.919219 -3.10156,-7.699219 -2.06,-1.77 -5.13828,-2.660156 -9.23828,-2.660156 z m 0,10.636719 -0.0352,4.572266 H 123 Z m 0.0312,9.130859 c -0.0613,0.03031 0,0 0,0 z m 0,0 L 123,47.748047 h 8.68945 c -0.061,-4.128581 0.0695,-8.120921 -0.0703,-12.240235 -3.42752,-0.05944 -6.24117,-0.740252 -8.58789,-1.832031 z"
       style="fill:#000000;fill-opacity:1;stroke:none;stroke-opacity:1" /><path
       sodipodi:nodetypes="csccccscccc"
       id="path1953"
       d="m 154.06,36.63 h 2.69 c 1.6,0 2.77,0.63 3.5,1.88 l 5.86,10.85 h 9.7 c -3.56962,-5.533308 -5.11418,-9.283595 -8.30207,-13.557847 -1.47,-2.09 -3.85793,-5.3 -7.94793,-5.3 h -5.59 c -4.05,0.03 -8.64802,-2.806034 -8.64802,-5.216034 L 145.38,34.72 c 2.36,1.11 5.22,1.85 8.68,1.91 z"
       style="fill:#000000;fill-opacity:1;stroke:none;stroke-opacity:1"
       inkscape:connector-curvature="0" /></g><g
     id="letterA0"
     transform="matrix(0.9806,0,0,0.9806,-164.44359,31.79203)"
     style="fill:#000000;fill-opacity:1;stroke-width:1.01979995;stroke:none;stroke-opacity:1"><path
       sodipodi:nodetypes="ccccccscccccccc"
       inkscape:connector-curvature="0"
       id="path1945"
       transform="matrix(1.0197838,0,0,1.0197838,167.69691,-32.420997)"
       d="m 36.285156,47.011719 -10.230468,21.923828 2.660156,-5.705078 c 1.802934,1.861725 4.095251,3.251811 6.691406,3.24414 l 4.398438,-10.285156 4.722656,10.191406 h 0.01367 c 3.41173,0 7.484343,-0.254461 10.576172,6.179688 L 43.160156,47.011719 Z m -11.216797,23.835937 -4.267578,9.347656 h 8.708985 l 2.648437,-6.40625 c -2.50053,0 -4.912912,-1.176326 -7.089844,-2.941406 z"
       style="fill:#000000;fill-opacity:1;stroke-width:1.00001585;stroke:none;stroke-opacity:1" /><path
       id="path1947"
       d="m 218.81,49.36 h 8.74 l -3.56,-7.62 c -3.16,-6.75 -7.52,-6.02 -11.03,-6.02 h -9.31 c -2.65,0.01 -4.99,-1.41 -6.83,-3.31 l -3.24,6.94 c 2.22,1.8 4.68,3 7.23,3 h 14.98 z"
       style="fill:#000000;fill-opacity:1;stroke:none;stroke-opacity:1"
       inkscape:connector-curvature="0" /></g><path
     style="fill:#000000;fill-opacity:1;stroke:none;stroke-width:1.00001585;stroke-opacity:1"
     d="M 51.671875 54.166016 L 51.671875 75.597656 C 51.671875 70.121158 55.338824 65.514679 60.330078 64.09375 L 60.330078 54.166016 L 51.671875 54.166016 z M 51.671875 75.597656 L 51.671875 87.558594 L 63.556641 87.558594 C 56.996427 87.558594 51.671875 82.208924 51.671875 75.597656 z M 63.556641 87.558594 L 74.451172 87.558594 L 74.451172 80.869141 L 74.212891 80.869141 C 72.274828 84.824943 68.24644 87.558594 63.556641 87.558594 z "
     id="path1935" /><path
     sodipodi:nodetypes="cccssc"
     inkscape:connector-curvature="0"
     style="fill:#000000;fill-opacity:1;stroke:none;stroke-width:1.00001585;stroke-opacity:1"
     d="m 74.141765,80.855469 -13.811051,-0.01629 0.0625,-16.369878 c -4.991254,1.412064 -8.252448,5.585216 -8.252448,11.027546 0,6.57002 5.210075,11.758547 11.270289,11.758547 4.834358,0 8.337645,-2.263262 10.73071,-6.399928 z"
     id="path1937" /><path
     sodipodi:nodetypes="cssscccccc"
     inkscape:connector-curvature="0"
     id="path1154"
     d="m 68.857422,73.347656 c -0.07406,8.1e-4 -0.139552,0.0098 -0.205078,0.0098 -0.840865,0 -1.660334,-0.09145 -2.447266,-0.263672 -0.786931,-0.172218 -1.541974,-0.425904 -2.257812,-0.751953 -1.431676,-0.652099 -2.016208,-1.092892 -3.060547,-2.25 l -0.0625,10.285156 H 82.978516 V 73.367188 H 68.857422 Z"
     style="fill:#000000;fill-opacity:1;stroke-width:1.00001585;stroke:none;stroke-opacity:1" /><path
     inkscape:connector-curvature="0"
     id="path1940"
     d="m 60.199219,47.195312 v 7.148438 c 1.044339,-1.152205 2.319051,-2.094722 3.751953,-2.748047 0.716451,-0.326662 1.471341,-0.580922 2.257812,-0.753906 0.786472,-0.172984 1.604947,-0.263672 2.44336,-0.263672 0.07489,0 0.139532,0.009 0.205078,0.0098 v -3.392579 z"
     style="fill:#000000;fill-opacity:1;stroke-width:1.00001585;stroke:none;stroke-opacity:1" /><path
     sodipodi:nodetypes="csccscc"
     inkscape:connector-curvature="0"
     style="fill:#000000;fill-opacity:1;stroke-width:1.00001585;stroke:none;stroke-opacity:1"
     d="m 60.979252,69.57301 c 2.088678,2.314216 4.26479,3.474451 7.628248,3.474451 0.06864,0 0.137284,-0.0098 0.215732,-0.0098 V 50.896647 c -0.06864,0 -0.137284,-0.0098 -0.215732,-0.0098 -3.353652,0 -5.66457,1.320929 -7.753248,3.625339 z"
     id="path1942" /><g
     style="display:none;stroke-width:2.80789995"
     transform="matrix(0.35614,0,0,0.35614,17.0053,55.6867)"
     id="wordDEthin"><g
       word-spacing="0"
       letter-spacing="0"
       style="font-style:normal;font-variant:normal;font-weight:300;font-stretch:normal;font-size:22.29870033px;line-height:1.25;font-family:'Gill Sans';-inkscape-font-specification:'Gill Sans, Light';font-variant-ligatures:normal;font-variant-caps:normal;font-variant-numeric:normal;font-feature-settings:normal;text-align:start;letter-spacing:0;word-spacing:0;writing-mode:lr-tb;text-anchor:start;fill:#000000;fill-opacity:1;stroke:none;stroke-width:10.62049961"
       font-weight="300"
       font-variant="normal"
       font-style="normal"
       font-stretch="normal"
       font-size="22.2987"
       aria-label=".de"
       id="text2941"><path
         inkscape:connector-curvature="0"
         d="m 447.84931,84.302406 v 2.166718 h -1.44811 v -2.166718 z"
         id="path3402" /><path
         inkscape:connector-curvature="0"
         d="m 459.12931,71.25855 v 15.210574 h -1.07792 v -0.783938 q -1.37189,0.979922 -2.96154,0.979922 -2.13406,0 -3.60394,-1.502547 -1.459,-1.513436 -1.459,-3.712818 0,-2.232045 1.43722,-3.712817 1.44811,-1.480772 3.62572,-1.480772 1.38278,0 2.96154,0.805714 V 71.25855 Z m -1.07792,13.446713 v -6.467488 q -1.43722,-0.93637 -2.91799,-0.93637 -1.7312,0 -2.85266,1.154131 -1.12147,1.143243 -1.12147,2.928879 0,1.818301 1.19768,3.026872 1.19769,1.208571 2.99421,1.208571 1.39367,0 2.70023,-0.914595 z"
         id="path3404" /><path
         inkscape:connector-curvature="0"
         d="m 470.39841,81.090438 h -7.89382 q -0.0327,0.261313 -0.0327,0.522626 0,1.676756 1.19768,2.841775 1.19768,1.165019 2.83089,1.165019 1.9054,0 3.7237,-1.49166 v 1.208571 q -1.7203,1.328339 -3.85436,1.328339 -2.16672,0 -3.58216,-1.502547 -1.41544,-1.502548 -1.41544,-3.821698 0,-2.199381 1.30656,-3.636601 1.30656,-1.448108 3.28819,-1.448108 1.86185,0 3.14664,1.306564 1.28478,1.295675 1.28478,3.52772 z m -7.75227,-0.860154 h 6.48926 q -0.56618,-2.928879 -3.16841,-2.928879 -1.23035,0 -2.13406,0.77305 -0.89282,0.762162 -1.18679,2.155829 z"
         id="path3406" /></g></g><g
     style="display:none;stroke-width:3.78239989"
     transform="matrix(0.26438,0,0,0.26438,62.8431,73.2805)"
     id="wordDE"><g
       transform="translate(-17.2115,6.8707)"
       id="letterE3"><path
         inkscape:connector-curvature="0"
         style="fill:url(#E30)"
         d="M 478.15,49.36 V 15.52 h 24.05 v 6.82 h -15.46 v 6.43 h 14.5 v 6.77 h -14.5 v 7.01 h 15.46 v 6.82 h -24.05 z"
         id="path10786" /><path
         inkscape:connector-curvature="0"
         style="fill:url(#E31)"
         d="m 486.74,42.36 v -6.82 h 14.5 v -6.77 h -14.5 v -6.24 c -4.86,0.72 -8.59,4.88 -8.59,9.92 0,5.04 3.73,9.18 8.59,9.91 z"
         id="path10788" /></g><g
       transform="translate(-7.5647)"
       id="letterD0"><path
         inkscape:connector-curvature="0"
         style="fill:url(#D00)"
         d="m 441.05,15.52 h 13.78 c 3.74,0 6.97,0.67 9.67,2.02 2.7,1.34 4.78,3.29 6.22,5.83 1.44,2.54 2.16,5.56 2.16,9.05 0,3.52 -0.71,6.55 -2.14,9.1 -1.43,2.55 -3.49,4.49 -6.19,5.83 -2.71,1.34 -5.95,2.02 -9.72,2.02 h -13.78 z m 13.15,26.73 c 3.33,0 5.81,-0.82 7.44,-2.45 1.63,-1.63 2.45,-4.1 2.45,-7.39 0,-3.3 -0.82,-5.75 -2.45,-7.37 -1.63,-1.62 -4.11,-2.42 -7.44,-2.42 h -4.32 v 19.63 z"
         id="path10792" /><path
         inkscape:connector-curvature="0"
         style="fill:url(#D01)"
         d="m 463.84,35.25 c -0.35,1.91 -1.08,3.44 -2.2,4.56 -1.63,1.63 -4.11,2.45 -7.44,2.45 h -4.32 V 22.62 h 4.32 c 3.33,0 5.81,0.81 7.44,2.42 1.16,1.15 1.9,2.73 2.23,4.72 -0.98,-6.64 -5.6,-12.08 -11.77,-14.25 h -11.05 v 33.84 h 10.83 c 6.21,-2.08 10.9,-7.48 11.96,-14.1 z"
         id="path10794" /></g><g
       id="letterP0"><path
         inkscape:connector-curvature="0"
         style="fill:url(#P00);stroke-width:3.78239989"
         d="m 426.98,40.62 h 8.88 v 8.74 h -8.88 z"
         id="path10798" /></g></g></svg>