<?xml version="1.0" encoding="UTF-8" standalone="no"?>
<svg xmlns:dc="http://purl.org/dc/elements/1.1/" 
   xmlns:cc="http://creativecommons.org/ns#" 
   xmlns:rdf="http://www.w3.org/1999/02/22-rdf-syntax-ns#" 
   xmlns:svg="http://www.w3.org/2000/svg" 
   xmlns="http://www.w3.org/2000/svg" 
   xmlns:xlink="http://www.w3.org/1999/xlink" 
   xmlns:sodipodi="http://sodipodi.sourceforge.net/DTD/sodipodi-0.dtd" 
   xmlns:inkscape="http://www.inkscape.org/namespaces/inkscape" id="Ebene_1" data-name="Ebene 1" viewBox="0 0 498.69603 248.73601" version="1.1" sodipodi:docname="logo.svg" inkscape:version="0.92.2 5c3e80d, 2017-08-06" width="498.69601" height="248.73601">
   <metadata id="metadata293">
      <rdf:RDF>
         <cc:Work rdf:about="">
            <dc:format>image/svg+xml</dc:format>
            <dc:type rdf:resource="http://purl.org/dc/dcmitype/StillImage" />
            <dc:title>Queer All Year Ohne Schatten Linear</dc:title>
         </cc:Work>
      </rdf:RDF>
   </metadata>
   <sodipodi:namedview pagecolor="#ffffff" bordercolor="#666666" borderopacity="1" objecttolerance="10" gridtolerance="10" guidetolerance="10" inkscape:pageopacity="0" inkscape:pageshadow="2" inkscape:window-width="1680" inkscape:window-height="1006" id="namedview291" showgrid="false" inkscape:zoom="2.8284271" inkscape:cx="227.8804" inkscape:cy="120.47593" inkscape:window-x="35" inkscape:window-y="0" inkscape:window-maximized="0" inkscape:current-layer="Ebene_1" fit-margin-top="0" fit-margin-left="0" fit-margin-right="0" fit-margin-bottom="0" />
   <defs id="defs226">
      <linearGradient gradientUnits="userSpaceOnUse" y2="292.53" x2="505.12" y1="200.71001" x1="452.10999" id="E13">
         <stop id="stop1144" stop-color="#2198d5" offset="0.08" />
         <stop id="stop1146" stop-color="#0067ab" offset="0.34" />
         <stop id="stop1148" stop-color="#0c478b" offset="0.66" />
      </linearGradient>
      <linearGradient gradientUnits="userSpaceOnUse" y2="208.50999" x2="438.60999" y1="300.32001" x1="491.62" id="E12">
         <stop id="stop1118" stop-color="#0575ba" offset="0.34" />
         <stop id="stop1120" stop-color="#065da4" offset="0.65" />
         <stop id="stop1122" stop-color="#183e72" offset="0.89" />
      </linearGradient>
      <linearGradient gradientUnits="userSpaceOnUse" y2="296.13" x2="506.39001" y1="259.62" x1="443.14999" id="E11">
         <stop id="stop1111" stop-color="#4ab1e5" offset="0.13" />
         <stop id="stop1113" stop-color="#015a9a" offset="0.6" />
         <stop id="stop1115" stop-color="#153f72" offset="0.89" />
      </linearGradient>
      <style id="style2">.cls-1{fill:url(#Unbenannter_Verlauf_160);}.cls-2{fill:url(#Unbenannter_Verlauf_164);}.cls-3{fill:url(#Unbenannter_Verlauf_51);}.cls-4{fill:url(#Unbenannter_Verlauf_55);}.cls-5{fill:url(#Unbenannter_Verlauf_58);}.cls-6{fill:url(#Unbenannter_Verlauf_51-2);}.cls-7{fill:url(#Unbenannter_Verlauf_55-2);}.cls-8{fill:url(#Unbenannter_Verlauf_58-2);}.cls-9{fill:url(#Unbenannter_Verlauf_22);}.cls-10{fill:url(#Unbenannter_Verlauf_8);}.cls-11{fill:url(#Unbenannter_Verlauf_90);}.cls-12{fill:url(#Unbenannter_Verlauf_83);}.cls-13{fill:url(#Unbenannter_Verlauf_77);}.cls-14{fill:url(#Unbenannter_Verlauf_119);}.cls-15{fill:url(#Unbenannter_Verlauf_127);}.cls-16{fill:url(#Unbenannter_Verlauf_104);}.cls-17{fill:url(#Unbenannter_Verlauf_105);}.cls-18{fill:url(#Unbenannter_Verlauf_71);}.cls-19{fill:url(#Unbenannter_Verlauf_68);}.cls-20{fill:url(#Unbenannter_Verlauf_35);}.cls-21{fill:url(#Unbenannter_Verlauf_39);}.cls-22{fill:url(#Unbenannter_Verlauf_46);}.cls-23{fill:url(#Unbenannter_Verlauf_28);}.cls-24{fill:url(#Unbenannter_Verlauf_11);}.cls-25{fill:url(#Unbenannter_Verlauf_16);}.cls-26{fill:url(#Unbenannter_Verlauf_108);}.cls-27{fill:url(#Unbenannter_Verlauf_113);}.cls-28{fill:url(#Unbenannter_Verlauf_133);}.cls-29{fill:url(#Unbenannter_Verlauf_151);}.cls-30{fill:url(#Unbenannter_Verlauf_155);}</style>
      <linearGradient id="R12" x1="571.62" y1="195.10001" x2="627.02002" y2="291.06" gradientUnits="userSpaceOnUse" gradientTransform="translate(-182.722,-62.631999)">
         <stop offset="0.17" stop-color="#ee739f" id="stop4" />
         <stop offset="0.52" stop-color="#ad1f46" id="stop6" />
         <stop offset="0.77" stop-color="#e31327" id="stop8" />
      </linearGradient>
      <linearGradient id="R11" x1="574.27002" y1="257.29001" x2="641.21002" y2="218.64" gradientUnits="userSpaceOnUse" gradientTransform="translate(-182.722,-62.631999)">
         <stop offset="0.02" stop-color="#ea556e" id="stop11" />
         <stop offset="0.07" stop-color="#e94f6e" id="stop13" />
         <stop offset="0.25" stop-color="#e83e6d" id="stop15" />
         <stop offset="0.44" stop-color="#e7346c" id="stop17" />
         <stop offset="0.69" stop-color="#e7316c" id="stop19" />
         <stop offset="0.97" stop-color="#ad1a4c" id="stop21" />
      </linearGradient>
      <linearGradient id="E23" x1="452.10999" y1="200.71001" x2="505.12" y2="292.53" gradientUnits="userSpaceOnUse">
         <stop offset="0.08" stop-color="#2198d5" id="stop24" />
         <stop offset="0.34" stop-color="#0067ab" id="stop26" />
         <stop offset="0.66" stop-color="#0c478b" id="stop28" />
      </linearGradient>
      <linearGradient id="E22" x1="491.62" y1="300.32001" x2="438.60999" y2="208.50999" gradientUnits="userSpaceOnUse" gradientTransform="translate(-182.722,-62.631999)">
         <stop offset="0.34" stop-color="#0575ba" id="stop31" />
         <stop offset="0.65" stop-color="#065da4" id="stop33" />
         <stop offset="0.89" stop-color="#183e72" id="stop35" />
      </linearGradient>
      <linearGradient id="E21" x1="443.14999" y1="259.62" x2="506.39001" y2="296.13" gradientUnits="userSpaceOnUse" gradientTransform="translate(-182.722,-62.631999)">
         <stop offset="0.13" stop-color="#4ab1e5" id="stop38" />
         <stop offset="0.6" stop-color="#015a9a" id="stop40" />
         <stop offset="0.89" stop-color="#153f72" id="stop42" />
      </linearGradient>
      <linearGradient id="Unbenannter_Verlauf_51-2" x1="424.78" y1="82.760002" x2="477.79001" y2="174.57001" xlink:href="#E13" gradientTransform="translate(-182.722,-62.631999)" />
      <linearGradient id="Unbenannter_Verlauf_55-2" x1="464.29001" y1="182.37" x2="411.28" y2="90.550003" xlink:href="#E12" gradientTransform="translate(-182.722,-62.631999)" />
      <linearGradient id="Unbenannter_Verlauf_58-2" x1="415.82001" y1="141.67" x2="479.04999" y2="178.17" xlink:href="#E11" gradientTransform="translate(-182.722,-62.631999)" />
      <linearGradient id="U02" x1="293.42999" y1="161.48" x2="367.45999" y2="87.459999" gradientUnits="userSpaceOnUse">
         <stop offset="0.19" stop-color="#967219" id="stop48" />
         <stop offset="0.22" stop-color="#b38a18" id="stop50" />
         <stop offset="0.27" stop-color="#cea217" id="stop52" />
         <stop offset="0.32" stop-color="#e2b316" id="stop54" />
         <stop offset="0.36" stop-color="#eebe15" id="stop56" />
         <stop offset="0.41" stop-color="#f2c115" id="stop58" />
         <stop offset="0.5" stop-color="#f6c619" id="stop60" />
         <stop offset="0.57" stop-color="#fcce20" id="stop62" />
         <stop offset="0.74" stop-color="#f8d732" id="stop64" />
         <stop offset="0.98" stop-color="#f0e753" id="stop66" />
      </linearGradient>
      <linearGradient id="U01" x1="323.60999" y1="92.779999" x2="323.60999" y2="192.55" gradientUnits="userSpaceOnUse" xlink:href="#U02" gradientTransform="translate(-182.722,-62.631999)">
         <stop offset="0.04" stop-color="#e7ce00" id="stop69" />
         <stop offset="0.65" stop-color="#f0e74a" id="stop71" />
      </linearGradient>
      <linearGradient id="A03" x1="51.380001" y1="151.41" x2="67.089996" y2="210.05" gradientUnits="userSpaceOnUse" xlink:href="#A02">
         <stop offset="0.29" stop-color="#5f143b" id="stop74" />
         <stop offset="0.61" stop-color="#bf3155" id="stop76" />
         <stop offset="0.91" stop-color="#d63528" id="stop78" />
      </linearGradient>
      <linearGradient id="A02" x1="264.10001" y1="207.94" x2="307.01999" y2="250.86" gradientUnits="userSpaceOnUse">
         <stop offset="0.49" stop-color="#ca284a" id="stop81" />
         <stop offset="0.7" stop-color="#9e2d50" id="stop83" />
         <stop offset="0.91" stop-color="#701b43" id="stop85" />
      </linearGradient>
      <linearGradient id="A01" x1="266.23999" y1="205.8" x2="310.17001" y2="249.73" gradientUnits="userSpaceOnUse" xlink:href="#A02" gradientTransform="translate(-182.722,-62.631999)">
         <stop offset="0.22" stop-color="#cb2a4c" id="stop88" />
         <stop offset="0.67" stop-color="#ca2441" id="stop90" />
         <stop offset="0.91" stop-color="#d7292a" id="stop92" />
      </linearGradient>
      <linearGradient id="Y02" x1="407.03" y1="263.17001" x2="458.31" y2="174.36" gradientUnits="userSpaceOnUse">
         <stop offset="0.03" stop-color="#bacd11" id="stop95" />
         <stop offset="0.56" stop-color="#2f692d" id="stop97" />
         <stop offset="0.9" stop-color="#76b62c" id="stop99" />
      </linearGradient>
      <linearGradient id="Y01" x1="395.39999" y1="195.25999" x2="456.79001" y2="230.7" gradientUnits="userSpaceOnUse" xlink:href="#Y02" gradientTransform="translate(-182.722,-62.631999)">
         <stop offset="0.16" stop-color="#00552a" id="stop102" />
         <stop offset="0.56" stop-color="#73a82d" id="stop104" />
         <stop offset="0.9" stop-color="#afca1b" id="stop106" />
      </linearGradient>
      <linearGradient id="L02" x1="303.92999" y1="216.33" x2="377.56" y2="289.95999" gradientUnits="userSpaceOnUse">
         <stop offset="0.29" stop-color="#f49412" id="stop109" />
         <stop offset="0.61" stop-color="#ed6914" id="stop111" />
         <stop offset="0.91" stop-color="#aa4a1a" id="stop113" />
      </linearGradient>
      <linearGradient id="L01" x1="331.59" y1="273.84" x2="331.59" y2="202.33" gradientUnits="userSpaceOnUse" xlink:href="#L02" gradientTransform="translate(-182.722,-62.631999)">
         <stop offset="0.03" stop-color="#ab4917" id="stop116" />
         <stop offset="0.42" stop-color="#ec7d21" id="stop118" />
         <stop offset="0.57" stop-color="#f4960e" id="stop120" />
      </linearGradient>
      <linearGradient id="R02" x1="484.35999" y1="99.669998" x2="538.40002" y2="193.25999" gradientUnits="userSpaceOnUse">
         <stop offset="0.22" stop-color="#b94b8e" id="stop123" />
         <stop offset="0.52" stop-color="#611d49" id="stop125" />
         <stop offset="0.77" stop-color="#ab3d89" id="stop127" />
      </linearGradient>
      <linearGradient id="R01" x1="497.14001" y1="121.07" x2="544.34003" y2="148.33" gradientUnits="userSpaceOnUse" xlink:href="#R02" gradientTransform="translate(-182.722,-62.631999)">
         <stop offset="0" stop-color="#b14187" id="stop130" />
         <stop offset="0.12" stop-color="#b9488d" id="stop132" />
         <stop offset="0.37" stop-color="#c35095" id="stop134" />
         <stop offset="0.69" stop-color="#c65397" id="stop136" />
         <stop offset="0.97" stop-color="#561b4c" id="stop138" />
      </linearGradient>
      <linearGradient id="E03" x1="371.41" y1="99.910004" x2="424.42001" y2="191.72" gradientUnits="userSpaceOnUse" spreadMethod="pad">
         <stop offset="0.08" stop-color="#d8da05" id="stop141" />
         <stop offset="0.35" stop-color="#9dbe1f" id="stop143" />
         <stop offset="0.66" stop-color="#49ab34" id="stop145" />
      </linearGradient>
      <linearGradient id="E02" x1="410.92001" y1="199.52" x2="357.91" y2="107.7" gradientUnits="userSpaceOnUse" spreadMethod="pad" xlink:href="#E03" gradientTransform="translate(-182.722,-62.631999)">
         <stop offset="0.34" stop-color="#d8da05" id="stop148" />
         <stop offset="0.65" stop-color="#9dbe1f" id="stop150" />
         <stop offset="0.89" stop-color="#2a7231" id="stop152" />
      </linearGradient>
      <linearGradient id="E01" x1="362.45001" y1="158.82001" x2="425.67999" y2="195.32001" gradientUnits="userSpaceOnUse" gradientTransform="translate(-182.722,-62.631999)">
         <stop offset="0.13" stop-color="#adca19" id="stop155" />
         <stop offset="0.6" stop-color="#378434" id="stop157" />
         <stop offset="0.89" stop-color="#296a2e" id="stop159" />
      </linearGradient>
      <linearGradient id="Q03" x1="235.88" y1="108.49" x2="322.41" y2="195.00999" gradientUnits="userSpaceOnUse" xlink:href="#Q02" gradientTransform="translate(-182.722,-62.631999)">
         <stop offset="0" stop-color="#a4421a" id="stop162" />
         <stop offset="0.37" stop-color="#a6471b" id="stop164" />
         <stop offset="0.5" stop-color="#ed6d1b" id="stop166" />
         <stop offset="0.66" stop-color="#c64b1a" id="stop168" />
         <stop offset="0.79" stop-color="#f4990e" id="stop170" />
      </linearGradient>
      <linearGradient id="Q02" x1="230.86" y1="158.39999" x2="321.10001" y2="158.39999" gradientUnits="userSpaceOnUse">
         <stop offset="0" stop-color="#f4950f" id="stop173" />
         <stop offset="0.52" stop-color="#dd6b13" id="stop175" />
         <stop offset="0.85" stop-color="#c53f1a" id="stop177" />
         <stop offset="1" stop-color="#b2301a" id="stop179" />
      </linearGradient>
      <linearGradient id="Q01" x1="242.81" y1="156.88" x2="294.14999" y2="105.55" gradientUnits="userSpaceOnUse" xlink:href="#Q02" gradientTransform="translate(-182.722,-62.631999)">
         <stop offset="0" stop-color="#ec6716" id="stop182" />
         <stop offset="1" stop-color="#f4960e" id="stop184" />
      </linearGradient>
      <linearGradient id="L12" x1="330.54001" y1="198.83" x2="404.17001" y2="272.45999" gradientUnits="userSpaceOnUse">
         <stop offset="0.29" stop-color="#ffea35" id="stop187" />
         <stop offset="0.61" stop-color="#fdc80f" id="stop189" />
         <stop offset="0.91" stop-color="#fcbc04" id="stop191" />
      </linearGradient>
      <linearGradient id="L11" x1="358.20001" y1="256.34" x2="358.20001" y2="184.83" gradientUnits="userSpaceOnUse" xlink:href="#L12" gradientTransform="translate(-182.722,-62.631999)">
         <stop offset="0.03" stop-color="#b18612" id="stop194" />
         <stop offset="0.42" stop-color="#ffd220" id="stop196" />
         <stop offset="0.57" stop-color="#fdeb36" id="stop198" />
      </linearGradient>
      <linearGradient id="A13" x1="301.19" y1="142.61" x2="316.89999" y2="201.25" gradientUnits="userSpaceOnUse">
         <stop offset="0.29" stop-color="#621533" id="stop201" />
         <stop offset="0.62" stop-color="#972366" id="stop203" />
         <stop offset="0.94" stop-color="#c64994" id="stop205" />
      </linearGradient>
      <linearGradient id="A12" x1="513.90997" y1="199.14" x2="556.83002" y2="242.06" gradientUnits="userSpaceOnUse" gradientTransform="translate(-182.722,-62.631999)">
         <stop offset="0.49" stop-color="#79194a" id="stop208" />
         <stop offset="0.7" stop-color="#983471" id="stop210" />
         <stop offset="0.92" stop-color="#62103a" id="stop212" />
      </linearGradient>
      <linearGradient id="A11" x1="516.04999" y1="197" x2="559.97998" y2="240.92999" gradientUnits="userSpaceOnUse" gradientTransform="translate(-182.722,-62.631999)">
         <stop offset="0.09" stop-color="#973673" id="stop215" />
         <stop offset="0.28" stop-color="#7a194b" id="stop217" />
         <stop offset="0.47" stop-color="#79194a" id="stop219"/>
         <stop offset="0.67" stop-color="#9d3471" id="stop221" />
         <stop offset="0.91" stop-color="#df62a0" id="stop223" />
      </linearGradient>
      <linearGradient inkscape:collect="always" xlink:href="#A02" id="linearGradient1100" gradientUnits="userSpaceOnUse" x1="264.10001" y1="207.94" x2="307.01999" y2="250.86" gradientTransform="translate(-182.722,-62.631999)" />
      <linearGradient inkscape:collect="always" xlink:href="#E23" id="linearGradient1102" gradientUnits="userSpaceOnUse" x1="452.10999" y1="200.71001" x2="505.12" y2="292.53" gradientTransform="translate(-182.722,-62.631999)" />
      <filter style="color-interpolation-filters:sRGB" inkscape:label="Drop Shadow" id="filter6343">
         <feFlood flood-opacity="0.364706" flood-color="rgb(0,0,0)" result="flood" id="feFlood6333" />
         <feComposite in="flood" in2="SourceGraphic" operator="in" result="composite1" id="feComposite6335" />
         <feGaussianBlur in="composite1" stdDeviation="3" result="blur" id="feGaussianBlur6337" />
         <feOffset dx="3.7" dy="4.3" result="offset" id="feOffset6339" />
         <feComposite in="SourceGraphic" in2="offset" operator="over" result="composite2" id="feComposite6341" />
      </filter>
      <linearGradient inkscape:collect="always" xlink:href="#U02" id="linearGradient6357" gradientUnits="userSpaceOnUse" x1="293.42999" y1="161.48" x2="367.45999" y2="87.459999" gradientTransform="translate(-182.722,-62.631999)" />
      <linearGradient inkscape:collect="always" xlink:href="#Y02" id="linearGradient6359" gradientUnits="userSpaceOnUse" x1="407.03" y1="263.17001" x2="458.31" y2="174.36" gradientTransform="translate(-182.722,-62.631999)" />
      <linearGradient inkscape:collect="always" xlink:href="#L02" id="linearGradient6361" gradientUnits="userSpaceOnUse" x1="303.92999" y1="216.33" x2="377.56" y2="289.95999" gradientTransform="translate(-182.722,-62.631999)" />
      <linearGradient inkscape:collect="always" xlink:href="#R02" id="linearGradient6363" gradientUnits="userSpaceOnUse" x1="484.35999" y1="99.669998" x2="538.40002" y2="193.25999" gradientTransform="translate(-182.722,-62.631999)" />
      <linearGradient inkscape:collect="always" xlink:href="#E03" id="linearGradient6365" gradientUnits="userSpaceOnUse" x1="371.41" y1="99.910004" x2="424.42001" y2="191.72" spreadMethod="pad" gradientTransform="translate(-182.722,-62.631999)" />
      <linearGradient inkscape:collect="always" xlink:href="#Q02" id="linearGradient6367" gradientUnits="userSpaceOnUse" x1="230.86" y1="158.39999" x2="321.10001" y2="158.39999" gradientTransform="translate(-182.722,-62.631999)" />
      <linearGradient inkscape:collect="always" xlink:href="#L12" id="linearGradient6369" gradientUnits="userSpaceOnUse" x1="330.54001" y1="198.83" x2="404.17001" y2="272.45999" gradientTransform="translate(-182.722,-62.631999)" />
   </defs>
   <title id="title228">Queer All Year</title>
   <path inkscape:connector-curvature="0" class="cls-1" d="m 457.138,221.018 -26.78,4.48 -12,-37.11 h -6.83 v 34.57 h -26.38 v -88.32 h 34.32 a 137.44,137.44 0 0 1 14,0.5 30.75,30.75 0 0 1 13,4.55 q 9.81,6.68 9.81,20.18 0,16 -16.28,24.36 z m -25.81,-59.5 q 0,-6.83 -4.17,-9.47 -3,-1.89 -10.72,-1.89 h -4.92 v 24 h 4.67 q 8.33,0 11.73,-3.21 3.4,-3.21 3.41,-9.43 z" id="path230" style="fill:url(#R12)" />
   <path inkscape:connector-curvature="0" class="cls-2" d="m 449.538,142.118 c 0.06,0.93 0.11,1.87 0.11,2.82 0,23.21 -20,42 -44.58,42 a 46.44,46.44 0 0 1 -19.92,-4.47 v 1.06 c 7.64,5.29 17.89,8.54 29.16,8.54 23.66,0 42.83,-14.26 42.83,-31.86 0,-6.7 -2.81,-12.94 -7.6,-18.09 z" id="path232" style="fill:url(#R11)" />
   <path inkscape:connector-curvature="0" class="cls-3" d="m 327.408,227.008 h -59.05 v -88.33 h 53.75 v 16.78 h -27.38 v 16.91 h 26.75 v 16.91 h -26.75 v 20.94 h 32.68 z" id="path234" style="fill:url(#linearGradient1102);fill-opacity:1" />
   <path inkscape:connector-curvature="0" class="cls-4" d="m 294.728,210.218 v -20.94 h 0.55 c -8.35,0 -15.11,-14.21 -15.11,-31.73 a 57.66,57.66 0 0 1 3,-18.87 h -14.81 v 88.33 h 59.05 v -16.79 z" id="path236" style="fill:url(#E22)" />
   <path inkscape:connector-curvature="0" class="cls-5" d="m 294.728,210.218 v -0.08 c -14.71,-0.88 -26.37,-12.56 -26.37,-26.88 v 43.75 h 59.05 v -16.79 z" id="path238" style="fill:url(#E21)" />
   <path inkscape:connector-curvature="0" class="cls-6" d="m 300.078,109.048 h -59.05 V 20.728001 h 53.75 v 16.78 h -27.38 v 16.91 h 26.75 v 16.95 h -26.75 v 21 h 32.68 z" id="path240" style="fill:url(#Unbenannter_Verlauf_51-2);fill-opacity:1" />
   <path inkscape:connector-curvature="0" class="cls-7" d="m 267.398,92.268001 v -20.9 h 0.5 c -8.34,0 -15.1,-14.2 -15.1,-31.72 a 57.66,57.66 0 0 1 3,-18.87 h -14.77 V 109.098 h 59.05 V 92.268001 Z" id="path242" style="fill:url(#Unbenannter_Verlauf_55-2);fill-opacity:1" />
   <path inkscape:connector-curvature="0" class="cls-8" d="m 267.398,92.268001 v -0.09 c -14.72,-0.88 -26.37,-12.55 -26.37,-26.87 V 109.048 h 59.05 V 92.268001 Z" id="path244" style="fill:url(#Unbenannter_Verlauf_58-2);fill-opacity:1" />
   <path inkscape:connector-curvature="0" class="cls-9" d="m 187.708,73.598001 q 0,14.27 -2.65,20.94 -7.95,20.329999 -36.21,20.319999 -23,0 -32.68,-14 a 29.69,29.69 0 0 1 -4.89,-13.629999 139.72,139.72 0 0 1 -0.5,-14.64 v -47.57 h 26.37 v 43.15 q 0,16.27 2,21.08 3,7.19 11,7.19 10.47,0 13.37,-10.48 1.4,-4.92 1.39,-18.42 v -42.52 h 22.84 z" id="path246" style="fill:url(#linearGradient6357)" />
   <path inkscape:connector-curvature="0" class="cls-10" d="m 161.588,112.618 c -13.52,0 -24.48,-13.509999 -24.48,-30.169999 v -57.43 h -26.37 v 47.57 a 139.72,139.72 0 0 0 0.5,14.64 29.69,29.69 0 0 0 4.93,13.619999 q 9.71,14 32.68,14 c 8.92,0 16.3,-1.54 22.19,-4.57 a 20.51,20.51 0 0 1 -9.45,2.34 z" id="path248" style="fill:url(#U01);fill-opacity:1" />
   <polygon class="cls-11" points="18.16,198.58 38.85,198.58 47.43,177.38 74.81,177.38 81.75,198.58 109.89,198.58 92.63,152.98 66.7,171.61 49.39,171.39 35.64,155.63 " id="polygon250" style="fill:url(#A03);fill-opacity:1" transform="translate(41.598002,20.728001)" />
   <path inkscape:connector-curvature="0" class="cls-12" d="m 118.048,130.978 h -22.34 l -20.16,49.53 a 13.55,13.55 0 0 0 0.77,10 c 5.2,9.76 23.6,10.11 41.1,0.79 a 55.44,55.44 0 0 0 17.92,-14.67 z m -5.95,52.3 c 0,3.56 -4.15,7.78 -9.27,7.78 -5.12,0 -9.27,-4.22 -9.27,-7.78 0,-1.78 9.85,-26.69 9.85,-26.69 0,0 8.69,25.12 8.69,26.69 z" id="path252" style="fill:url(#linearGradient1100);fill-opacity:1" />
   <path inkscape:connector-curvature="0" class="cls-13" d="m 118.048,130.978 h -22.34 l -17.43,42.94 a 30.15,30.15 0 0 1 12.6,-2.62 32.89,32.89 0 0 1 6.63,0.67 c 2.75,-7.29 5.95,-15.38 5.95,-15.38 0,0 8.69,25.12 8.69,26.69 v 1.42 c 0,7.21 -9.05,13.08 -20.39,13.37 7.55,0.27 20,-1 29,-5.81 7.6,-4 10.54,-10.2 14.67,-15.6 z" id="path254" style="fill:url(#A01);fill-opacity:1" />
   <path inkscape:connector-curvature="0" class="cls-14" d="m 296.538,123.818 -27.51,53 v 34.32 h -26.37 v -34.32 l -25.62,-51.74 28.24,-3.53 13.62,34.95 16.15,-34.95 z" id="path256" style="fill:url(#linearGradient6359)" />
   <path inkscape:connector-curvature="0" class="cls-15" d="m 259.028,157.158 q -0.3,-0.85 -0.51,-1.71 l -13.24,-33.9 -28.27,3.53 25.51,51.52 h 0.14 c 3,5.43 7.82,9 13.22,9 5.4,0 10.18,-3.53 13.21,-9 v 0 l 4.81,-9.27 a 15.57,15.57 0 0 1 -14.87,-10.17 z" id="path258" style="fill:url(#Y01);fill-opacity:1" />
   <path inkscape:connector-curvature="0" class="cls-16" d="m 194.158,228.008 h -48.88 a 10,10 0 0 1 -10,-10 v -78.33 h 26.38 v 71.54 h 32.55 z" id="path260" style="fill:url(#linearGradient6361)" />
   <path inkscape:connector-curvature="0" class="cls-17" d="m 161.608,211.208 v -71.51 c -14.11,0.33 -25.48,16.2 -25.48,35.75 0,19.55 11.37,35.43 25.48,35.76 z" id="path262" style="fill:url(#L01);fill-opacity:1" />
   <path inkscape:connector-curvature="0" class="cls-18" d="m 368.838,123.038 -24.77,10 -13,-40.079999 h -6.79 V 127.528 h -26.39 V 39.208001 h 34.32 a 137.44,137.44 0 0 1 14,0.5 30.88,30.88 0 0 1 13,4.54 q 9.84,6.69 9.84,20.19 0,16 -16.27,24.35 z m -24.77,-56.999999 q 0,-6.81 -4.17,-9.46 -3,-1.89 -10.72,-1.89 h -4.9 v 24 h 4.67 q 8.33,0 11.73,-3.22 3.4,-3.22 3.39,-9.39 z" id="path264" style="fill:url(#linearGradient6363)" />
   <path inkscape:connector-curvature="0" class="cls-19" d="m 362.278,46.688001 c 0.06,0.93 0.11,1.87 0.11,2.82 0,23.21 -20,42 -44.58,42 a 46.44,46.44 0 0 1 -19.92,-4.46 v 1.05 c 7.64,5.3 17.89,8.55 29.16,8.55 23.66,0 42.84,-14.27 42.84,-31.86 0,-6.72 -2.82,-12.96 -7.61,-18.1 z" id="path266" style="fill:url(#R01);fill-opacity:1" />
   <path inkscape:connector-curvature="0" class="cls-20" d="m 246.708,126.198 h -59.05 V 37.878001 h 53.75 v 16.78 h -27.38 v 16.91 h 26.75 v 16.9 h -26.75 V 109.468 h 32.68 z" id="path268" style="fill:url(#linearGradient6365);fill-opacity:1" />
   <path inkscape:connector-curvature="0" class="cls-21" d="M 214.028,109.418 V 88.418001 h 0.5 c -8.34,0 -15.1,-14.2 -15.1,-31.72 a 57.66,57.66 0 0 1 3,-18.87 h -14.77 V 126.148 h 59.05 v -16.73 z" id="path270" style="fill:url(#E02);fill-opacity:1" />
   <path inkscape:connector-curvature="0" class="cls-22" d="m 214.028,109.418 v -0.05 c -14.71,-0.88 -26.37,-12.549999 -26.37,-26.869999 V 126.238 h 59.05 v -16.82 z" id="path272" style="fill:url(#E01)" />
   <path inkscape:connector-curvature="0" class="cls-23" d="m 138.378,127.638 -9.21,15.27 -38.89,-19.44 h -3.4 q -21.33,0 -33.32,-12.36 -11.99,-12.359999 -12,-33.689999 0,-19.82 12.55,-32.56 12.55,-12.74 31.74,-12.74 19.54,0 31.67,13.38 11.76,12.87 11.76,32.55 a 48,48 0 0 1 -4.41,21.2 q -4.43,9.089999 -14.14,17.279999 z m -36.85,-49.459999 q 0,-27.65 -16.27,-27.64 -16,0 -16,27.26 0,27.259999 16.15,27.249999 16.13,0 16.12,-26.869999 z" id="path274" style="fill:url(#Q03);fill-opacity:1" />
   <path inkscape:connector-curvature="0" class="cls-24" d="m 107.898,115.298 v 0 l -29.67,-12 -12.95,-5.879999 -7.87,-45.41 -1.3,-3.38 a 42.06,42.06 0 0 0 -3.75,6.3 c -10.9,22.56 -0.09,50.339999 24.14,62.049999 l 52.64,25.93 9.21,-15.27 z" id="path276" style="fill:url(#linearGradient6367)" />
   <path inkscape:connector-curvature="0" class="cls-25" d="m 121.898,68.588001 a 36.31,36.31 0 0 0 -36.08,-36.47 h -0.66 A 36.46,36.46 0 0 0 85.048,105.008 q -15.77,-0.26 -15.77,-27.209999 0,-27.25 16,-27.26 16.27,0 16.27,27.64 0,26.759999 -16,26.869999 h 0.26 a 36.3,36.3 0 0 0 36.09,-36.459999 z" id="path278" style="fill:url(#Q01);fill-opacity:1" />
   <path inkscape:connector-curvature="0" class="cls-26" d="m 220.768,210.508 h -48.91 a 10,10 0 0 1 -10,-10 v -78.33 h 26.38 v 71.54 h 32.55 z" id="path280" style="fill:url(#linearGradient6369)" />
   <path inkscape:connector-curvature="0" class="cls-27" d="m 188.218,193.708 v -71.51 c -14.11,0.33 -25.48,16.2 -25.48,35.75 0,19.55 11.37,35.42 25.48,35.76 z" id="path282" style="fill:url(#L11);fill-opacity:1" />
   <polygon class="cls-28" points="267.96,189.78 288.65,189.78 297.23,168.58 324.62,168.58 331.56,189.78 359.69,189.78 342.43,144.18 316.51,162.81 299.2,162.59 285.45,146.83 " id="polygon284" style="fill:url(#A13)" transform="translate(41.598002,20.728001)" />
   <path inkscape:connector-curvature="0" class="cls-29" d="m 367.848,122.178 h -22.33 l -20.17,49.53 a 13.55,13.55 0 0 0 0.77,10 c 5.21,9.76 23.61,10.11 41.11,0.79 a 55.66,55.66 0 0 0 17.92,-14.67 z m -6,52.3 c 0,3.56 -4.15,7.78 -9.27,7.78 -5.12,0 -9.26,-4.22 -9.26,-7.78 0,-1.78 9.85,-26.69 9.85,-26.69 0,0 8.73,25.12 8.73,26.69 z" id="path286" style="fill:url(#A12)" />
   <path inkscape:connector-curvature="0" class="cls-30" d="m 367.848,122.178 h -22.33 l -17.48,42.94 a 30.09,30.09 0 0 1 12.6,-2.62 33,33 0 0 1 6.63,0.67 c 2.75,-7.29 6,-15.38 6,-15.38 0,0 8.68,25.12 8.68,26.69 v 1.42 c 0,7.21 -9,13.08 -20.38,13.37 7.54,0.27 20,-1 29,-5.81 7.61,-4.05 10.54,-10.2 14.68,-15.6 z" id="path288" style="fill:url(#A11)" />
</svg>
