<?xml version="1.0" encoding="UTF-8" standalone="no"?>
<!-- Generator: Adobe Illustrator 23.0.3, SVG Export Plug-In . SVG Version: 6.00 Build 0)  -->

<svg
   xmlns:dc="http://purl.org/dc/elements/1.1/"
   xmlns:cc="http://creativecommons.org/ns#"
   xmlns:rdf="http://www.w3.org/1999/02/22-rdf-syntax-ns#"
   xmlns:svg="http://www.w3.org/2000/svg"
   xmlns="http://www.w3.org/2000/svg"
   xmlns:sodipodi="http://sodipodi.sourceforge.net/DTD/sodipodi-0.dtd"
   xmlns:inkscape="http://www.inkscape.org/namespaces/inkscape"
   version="1.1"
   id="svgdocument"
   x="0px"
   y="0px"
   viewBox="0 0 134.33975 63.424006"
   xml:space="preserve"
   sodipodi:docname="logo_qay1_shadow.svg"
   inkscape:version="0.92.2 5c3e80d, 2017-08-06"
   width="134.33975"
   height="63.424004"><metadata
     id="metadata193"><rdf:RDF><cc:Work
         rdf:about=""><dc:format>image/svg+xml</dc:format><dc:type
           rdf:resource="http://purl.org/dc/dcmitype/StillImage" /><dc:title></dc:title></cc:Work></rdf:RDF></metadata><defs
     id="defs191"><filter
       style="color-interpolation-filters:sRGB"
       inkscape:label="Drop Shadow"
       id="filterShadow"><feFlood
         flood-opacity="0.498039"
         flood-color="rgb(0,0,0)"
         result="flood"
         id="feFlood1277" /><feComposite
         in="flood"
         in2="SourceGraphic"
         operator="in"
         result="composite1"
         id="feComposite1279" /><feGaussianBlur
         in="composite1"
         stdDeviation="1.5"
         result="blur"
         id="feGaussianBlur1281" /><feOffset
         dx="3"
         dy="3.4"
         result="offset"
         id="feOffset1283" /><feComposite
         in="SourceGraphic"
         in2="offset"
         operator="over"
         result="composite2"
         id="finalComposite" /></filter></defs><sodipodi:namedview
     pagecolor="#ffffff"
     bordercolor="#666666"
     borderopacity="1"
     objecttolerance="10"
     gridtolerance="10"
     guidetolerance="10"
     inkscape:pageopacity="0"
     inkscape:pageshadow="2"
     inkscape:window-width="2573"
     inkscape:window-height="1232"
     id="namedview189"
     showgrid="false"
     inkscape:zoom="3.45"
     inkscape:cx="132.7102"
     inkscape:cy="16.098282"
     inkscape:window-x="1170"
     inkscape:window-y="813"
     inkscape:window-maximized="0"
     inkscape:current-layer="mainGroup"
     inkscape:snap-global="false"
     fit-margin-left="5"
     fit-margin-top="5"
     fit-margin-right="5"
     fit-margin-bottom="5"
     units="px"
     showguides="true"
     inkscape:guide-bbox="true"><sodipodi:guide
       position="273.03878,19.702603"
       orientation="0,1"
       id="guide7566"
       inkscape:locked="false" /></sodipodi:namedview><style
     type="text/css"
     id="style2">
	.l00{fill:url(#L00);}
	.l01{fill:url(#L01);}
	.e30{fill:url(#E30);}
	.e31{fill:url(#E31);}
	.d00{fill:url(#D00);}
	.d01{fill:url(#D01);}
	.p00{fill:url(#P00);}
	.r11{fill:url(#R11);}
	.r10{fill:url(#R10);}
	.a10{fill:url(#A10);}
	.a11{fill:url(#A11);}
	.e21{fill:url(#E21);}
	.e20{fill:url(#E20);}
	.y00{fill:url(#Y00);}
	.y01{fill:url(#Y01);}
	.l10{fill:url(#L10);}
	.l11{fill:url(#L11);}
	.a00{fill:url(#A00);}
	.a01{fill:url(#A01);}
	.r01{fill:url(#R01);}
	.r00{fill:url(#R00);}
	.e01{fill:url(#E01);}
	.e00{fill:url(#E00);}
	.e10{fill:url(#E10);}
	.e11{fill:url(#E11);}
	.u00{fill:url(#U00);}
	.u01{fill:url(#U01);}
	.q00{fill:url(#Q00);}
	.q01{fill:url(#Q01);}
	.q02{fill:url(#Q02);}
	</style><linearGradient
     id="L00"
     gradientUnits="userSpaceOnUse"
     x1="229.38831"
     y1="18.3596"
     x2="244.64799"
     y2="53.855099"><stop
       offset="0"
       style="stop-color:#FFFFFF"
       id="stop4" /><stop
       offset="0.5"
       style="stop-color:#808080"
       id="stop1773" /><stop
       offset="1"
       style="stop-color:#000000"
       id="stop6" /></linearGradient><linearGradient
     id="L01"
     gradientUnits="userSpaceOnUse"
     x1="249.70419"
     y1="29.1336"
     x2="232.9516"
     y2="46.051998"><stop
       offset="0"
       style="stop-color:#FFFFFF"
       id="stop10" /><stop
       offset="0.5"
       style="stop-color:#808080"
       id="stop1778" /><stop
       offset="1"
       style="stop-color:#000000"
       id="stop12" /></linearGradient><linearGradient
     id="E30"
     gradientUnits="userSpaceOnUse"
     x1="480.37439"
     y1="17.4293"
     x2="501.10709"
     y2="49.180801"><stop
       offset="0"
       style="stop-color:#FFFFFF"
       id="stop16" /><stop
       offset="0.5"
       style="stop-color:#808080"
       id="stop1783" /><stop
       offset="1"
       style="stop-color:#000000"
       id="stop18" /></linearGradient><linearGradient
     id="E31"
     gradientUnits="userSpaceOnUse"
     x1="493.92859"
     y1="41.5532"
     x2="485.5195"
     y2="21.8354"><stop
       offset="0"
       style="stop-color:#FFFFFF"
       id="stop22" /><stop
       offset="0.5"
       style="stop-color:#808080"
       id="stop1788" /><stop
       offset="1"
       style="stop-color:#000000"
       id="stop24" /></linearGradient><linearGradient
     id="D00"
     gradientUnits="userSpaceOnUse"
     x1="471.21811"
     y1="41.283401"
     x2="445.63571"
     y2="30.3918"><stop
       offset="0"
       style="stop-color:#FFFFFF"
       id="stop28" /><stop
       offset="0.5"
       style="stop-color:#808080"
       id="stop1793" /><stop
       offset="1"
       style="stop-color:#000000"
       id="stop30" /></linearGradient><linearGradient
     id="D01"
     gradientUnits="userSpaceOnUse"
     x1="441.04651"
     y1="32.437"
     x2="463.87161"
     y2="32.437"><stop
       offset="0"
       style="stop-color:#FFFFFF"
       id="stop34" /><stop
       offset="0.5"
       style="stop-color:#808080"
       id="stop1798" /><stop
       offset="1"
       style="stop-color:#000000"
       id="stop36" /></linearGradient><linearGradient
     id="P00"
     gradientUnits="userSpaceOnUse"
     x1="428.45551"
     y1="41.323299"
     x2="435.8497"
     y2="50.457298"><stop
       offset="0"
       style="stop-color:#FFFFFF"
       id="stop40" /><stop
       offset="0.5"
       style="stop-color:#808080"
       id="stop1803" /><stop
       offset="1"
       style="stop-color:#000000"
       id="stop42" /></linearGradient><linearGradient
     id="R11"
     gradientUnits="userSpaceOnUse"
     x1="418.2066"
     y1="20.7083"
     x2="397.78201"
     y2="30.574499"><stop
       offset="0"
       style="stop-color:#FFFFFF"
       id="stop46" /><stop
       offset="0.5"
       style="stop-color:#808080"
       id="stop1808" /><stop
       offset="1"
       style="stop-color:#000000"
       id="stop48" /></linearGradient><linearGradient
     id="R10"
     gradientUnits="userSpaceOnUse"
     x1="395.58691"
     y1="17.8962"
     x2="420.88901"
     y2="53.144699"><stop
       offset="0"
       style="stop-color:#FFFFFF"
       id="stop52" /><stop
       offset="0.5"
       style="stop-color:#808080"
       id="stop1813" /><stop
       offset="1"
       style="stop-color:#000000"
       id="stop54" /></linearGradient><linearGradient
     id="A10"
     gradientUnits="userSpaceOnUse"
     x1="373.5918"
     y1="15.2047"
     x2="372.9971"
     y2="41.371399"><stop
       offset="0"
       style="stop-color:#FFFFFF"
       id="stop58" /><stop
       offset="0.5"
       style="stop-color:#808080"
       id="stop1818" /><stop
       offset="1"
       style="stop-color:#000000"
       id="stop60" /></linearGradient><linearGradient
     id="A11"
     gradientUnits="userSpaceOnUse"
     x1="355.0282"
     y1="48.003799"
     x2="391.6727"
     y2="40.4132"><stop
       offset="0"
       style="stop-color:#FFFFFF"
       id="stop64" /><stop
       offset="0.5"
       style="stop-color:#808080"
       id="stop1823" /><stop
       offset="1"
       style="stop-color:#000000"
       id="stop66" /></linearGradient><linearGradient
     id="E21"
     gradientUnits="userSpaceOnUse"
     x1="344.55231"
     y1="16.8403"
     x2="338.01071"
     y2="32.698898"><stop
       offset="0"
       style="stop-color:#FFFFFF"
       id="stop70" /><stop
       offset="0.5"
       style="stop-color:#808080"
       id="stop1828" /><stop
       offset="1"
       style="stop-color:#000000"
       id="stop72" /></linearGradient><linearGradient
     id="E20"
     gradientUnits="userSpaceOnUse"
     x1="330.58621"
     y1="25.6537"
     x2="358.14059"
     y2="42.900002"><stop
       offset="0"
       style="stop-color:#FFFFFF"
       id="stop76" /><stop
       offset="0.5"
       style="stop-color:#808080"
       id="stop1833" /><stop
       offset="1"
       style="stop-color:#000000"
       id="stop78" /></linearGradient><linearGradient
     id="Y00"
     gradientUnits="userSpaceOnUse"
     x1="296.77841"
     y1="41.5219"
     x2="320.92459"
     y2="9.4734001"><stop
       offset="0"
       style="stop-color:#FFFFFF"
       id="stop82" /><stop
       offset="0.5"
       style="stop-color:#808080"
       id="stop1838" /><stop
       offset="1"
       style="stop-color:#000000"
       id="stop84" /></linearGradient><linearGradient
     id="Y01"
     gradientUnits="userSpaceOnUse"
     x1="297.56049"
     y1="32.743099"
     x2="315.40149"
     y2="30.3643"><stop
       offset="0"
       style="stop-color:#FFFFFF"
       id="stop88" /><stop
       offset="0.5"
       style="stop-color:#808080"
       id="stop1843" /><stop
       offset="1"
       style="stop-color:#000000"
       id="stop90" /></linearGradient><linearGradient
     id="L10"
     gradientUnits="userSpaceOnUse"
     x1="277.58679"
     y1="26.9683"
     x2="252.8727"
     y2="42.062199"><stop
       offset="0"
       style="stop-color:#FFFFFF"
       id="stop94" /><stop
       offset="0.5"
       style="stop-color:#808080"
       id="stop1848" /><stop
       offset="1"
       style="stop-color:#000000"
       id="stop96" /></linearGradient><linearGradient
     id="L11"
     gradientUnits="userSpaceOnUse"
     x1="259.22"
     y1="39.993599"
     x2="265.68881"
     y2="18.099199"><stop
       offset="0"
       style="stop-color:#FFFFFF"
       id="stop100" /><stop
       offset="0.5"
       style="stop-color:#808080"
       id="stop1853" /><stop
       offset="1"
       style="stop-color:#000000"
       id="stop102" /></linearGradient><linearGradient
     id="A00"
     gradientUnits="userSpaceOnUse"
     x1="191.3555"
     y1="31.4688"
     x2="224.42281"
     y2="35.046001"><stop
       offset="0"
       style="stop-color:#FFFFFF"
       id="stop106" /><stop
       offset="1"
       style="stop-color:#000000"
       id="stop108" /></linearGradient><linearGradient
     id="A01"
     gradientUnits="userSpaceOnUse"
     x1="226.263"
     y1="46.805599"
     x2="194.74831"
     y2="33.204601"><stop
       offset="0"
       style="stop-color:#FFFFFF"
       id="stop112" /><stop
       offset="1"
       style="stop-color:#000000"
       id="stop114" /></linearGradient><linearGradient
     id="R01"
     gradientUnits="userSpaceOnUse"
     x1="176.77769"
     y1="47.952801"
     x2="146.2131"
     y2="28.1854"><stop
       offset="0"
       style="stop-color:#FFFFFF"
       id="stop118" /><stop
       offset="1"
       style="stop-color:#000000"
       id="stop120" /></linearGradient><linearGradient
     id="R00"
     gradientUnits="userSpaceOnUse"
     x1="144.1624"
     y1="18.112101"
     x2="164.3981"
     y2="40.8358"><stop
       offset="0"
       style="stop-color:#FFFFFF"
       id="stop124" /><stop
       offset="1"
       style="stop-color:#000000"
       id="stop126" /></linearGradient><linearGradient
     id="E11"
     gradientUnits="userSpaceOnUse"
     x1="141.7942"
     y1="44.014999"
     x2="116.0169"
     y2="31.8216"><stop
       offset="0"
       style="stop-color:#FFFFFF"
       id="stop130" /><stop
       offset="1"
       style="stop-color:#000000"
       id="stop132" /></linearGradient><linearGradient
     id="E10"
     gradientUnits="userSpaceOnUse"
     x1="138.9617"
     y1="24.190201"
     x2="116.8211"
     y2="42.052502"><stop
       offset="0"
       style="stop-color:#FFFFFF"
       id="stop136" /><stop
       offset="1"
       style="stop-color:#000000"
       id="stop138" /></linearGradient><linearGradient
     id="E00"
     gradientUnits="userSpaceOnUse"
     x1="90.666496"
     y1="22.6194"
     x2="114.917"
     y2="47.899399"><stop
       offset="0"
       style="stop-color:#FFFFFF"
       id="stop142" /><stop
       offset="1"
       style="stop-color:#000000"
       id="stop144" /></linearGradient><linearGradient
     id="E01"
     gradientUnits="userSpaceOnUse"
     x1="87.254097"
     y1="14.8513"
     x2="102.811"
     y2="45.622002"><stop
       offset="0"
       style="stop-color:#FFFFFF"
       id="stop148" /><stop
       offset="1"
       style="stop-color:#000000"
       id="stop150" /></linearGradient><linearGradient
     id="U00"
     gradientUnits="userSpaceOnUse"
     x1="71.4533"
     y1="45.4328"
     x2="63.5509"
     y2="11.1892"><stop
       offset="0.2291"
       style="stop-color:#FFFFFF"
       id="stop154" /><stop
       offset="1"
       style="stop-color:#000000"
       id="stop156" /></linearGradient><linearGradient
     id="U01"
     gradientUnits="userSpaceOnUse"
     x1="80.4142"
     y1="28.694401"
     x2="53.4184"
     y2="43.679401"><stop
       offset="0"
       style="stop-color:#FFFFFF"
       id="stop160" /><stop
       offset="1"
       style="stop-color:#000000"
       id="stop162" /></linearGradient><linearGradient
     id="Q00"
     gradientUnits="userSpaceOnUse"
     x1="30.246901"
     y1="47.617199"
     x2="42.372101"
     y2="21.6509"><stop
       offset="0"
       style="stop-color:#FFFFFF"
       id="stop166" /><stop
       offset="1"
       style="stop-color:#000000"
       id="stop168" /></linearGradient><linearGradient
     id="Q01"
     gradientUnits="userSpaceOnUse"
     x1="48.957298"
     y1="24.4107"
     x2="30.126301"
     y2="44.245201"><stop
       offset="0"
       style="stop-color:#FFFFFF"
       id="stop172" /><stop
       offset="0.1806"
       style="stop-color:#D6D6D6"
       id="stop174" /><stop
       offset="0.589"
       style="stop-color:#6E6E6E"
       id="stop176" /><stop
       offset="1"
       style="stop-color:#000000"
       id="stop178" /></linearGradient><linearGradient
     id="Q02"
     gradientUnits="userSpaceOnUse"
     x1="53.364601"
     y1="48.670101"
     x2="14.3579"
     y2="52.101799"><stop
       offset="0"
       style="stop-color:#FFFFFF"
       id="stop182" /><stop
       offset="0.5"
       style="stop-color:#808080"
       id="stop1896" /><stop
       offset="1"
       style="stop-color:#000000"
       id="stop184" /></linearGradient><g
     id="mainGroup"
     style="filter:url(#filterShadow)"
     transform="translate(-139.40681,-5.6379999)"><g
       transform="translate(-71.065089)"
       id="letterY0"><path
         inkscape:connector-curvature="0"
         style="fill:url(#Y00)"
         id="path1929"
         class="y00"
         d="m 329.45,15.52 -14.3,18.77 v 15.07 h -8.83 V 34.29 L 292.1,15.52 h 9.94 l 8.64,11.76 8.74,-11.76 z" /><path
         inkscape:connector-curvature="0"
         style="fill:url(#Y01)"
         id="path1931"
         class="y01"
         d="m 310.68,27.28 -8.64,-11.76 h -9.94 l 14.21,18.77 v 15.07 h 1.3 c 4.42,-2.09 7.49,-6.57 7.49,-11.78 0,-3.15 -1.12,-6.04 -2.98,-8.29" /></g><g
       id="letterA0"><path
         style="fill:url(#A00)"
         inkscape:connector-curvature="0"
         id="path1945"
         class="a00"
         d="m 218.81,49.36 -3.02,-7.01 h -14.98 l -3.02,7.01 h -8.88 L 204.7,15.52 h 7.01 l 15.84,33.84 z M 203.64,35.73 h 9.31 l -4.66,-10.85 z" /><path
         style="fill:url(#A01)"
         inkscape:connector-curvature="0"
         id="path1947"
         class="a01"
         d="m 218.81,49.36 h 8.74 l -3.56,-7.62 c -3.16,-6.75 -7.52,-6.02 -11.03,-6.02 h -9.31 c -2.65,0.01 -4.99,-1.41 -6.83,-3.31 l -3.24,6.94 c 2.22,1.8 4.68,3 7.23,3 h 14.98 z" /></g><g
       transform="translate(141.53846)"
       id="letterQ0"><path
         inkscape:connector-curvature="0"
         style="fill:url(#Q00)"
         id="path1971"
         class="q00"
         d="m 53.14,55.06 -5.74,4.55 -12.83,-8.3 c -1.26,-0.74 -2.64,-1.52 -4.4,-1.52 -3.46,0 -6.46,-0.71 -9,-2.14 -2.54,-1.42 -4.5,-3.44 -5.88,-6.05 -1.38,-2.61 -2.06,-5.67 -2.06,-9.19 0,-3.52 0.69,-6.58 2.06,-9.19 1.38,-2.61 3.34,-4.62 5.88,-6.02 2.54,-1.41 5.54,-2.11 9,-2.11 3.46,0 6.46,0.7 9,2.11 2.54,1.41 4.5,3.42 5.86,6.02 1.36,2.61 2.04,5.67 2.04,9.19 0,3.49 -0.69,6.54 -2.06,9.17 -1.38,2.62 -3.34,4.64 -5.9,6.05 m -2.94,-7.32 c 1.44,-1.81 2.16,-4.44 2.16,-7.9 0,-3.46 -0.73,-6.08 -2.18,-7.87 -1.46,-1.79 -3.45,-2.69 -5.98,-2.69 -2.56,0 -4.56,0.89 -6,2.66 -1.44,1.78 -2.16,4.41 -2.16,7.9 0,3.49 0.72,6.13 2.16,7.92 1.44,1.79 3.44,2.69 6,2.69 2.56,0 4.56,-0.9 6,-2.71 z" /><path
         inkscape:connector-curvature="0"
         style="fill:url(#Q01)"
         id="path1973"
         class="q01"
         d="M 50.88,53.86 39.1,47.63 c 2.56,-1.41 4.53,-3.42 5.9,-6.05 1.38,-2.62 2.06,-5.68 2.06,-9.17 0,-3.52 -0.68,-6.58 -2.04,-9.19 -1.36,-2.61 -3.31,-4.62 -5.86,-6.02 -2.54,-1.41 -5.54,-2.11 -9,-2.11 -2.13,0 -4.09,0.27 -5.88,0.81 7.08,1.44 14.15,5.44 14.04,16.52 0,1.07 -0.08,2.06 -0.22,2.97 -0.01,0.1 -0.03,0.2 -0.05,0.3 -0.03,0.15 -0.05,0.29 -0.08,0.44 -1.48,8.28 -7.66,11.53 -13.82,12.81 1.82,0.57 3.82,0.85 6,0.85 1.76,0 3.14,0.78 4.4,1.52 l 12.83,8.3 3.6,-2.85 z" /><path
         inkscape:connector-curvature="0"
         style="fill:url(#Q02)"
         id="path1975"
         class="q02"
         d="M 37.15,52.98 47.4,59.61 53.14,55.06 41.3,48.79 c -1.31,-0.62 -2.58,-1.22 -3.7,-1.76 -6.18,-3 -16.03,-6.07 -22.31,-5.43 1.38,2.61 3.34,4.62 5.88,6.05 1.59,0.89 3.36,1.47 5.3,1.84 2.75,0.51 5.31,0.3 10.68,3.49 z" /></g></g></svg>