<svg xmlns="http://www.w3.org/2000/svg" id="vert1" x="0" y="0" version="1.1" viewBox="0 0 523.7183 63.424" xml:space="preserve"><defs id="defs191"><filter id="filterShadow" color-interpolation-filters="sRGB"><feFlood id="feFlood1277" flood-color="#000" flood-opacity=".498" result="flood"></feFlood><feComposite id="feComposite1279" in="flood" in2="SourceGraphic" operator="in" result="composite1"></feComposite><feGaussianBlur id="feGaussianBlur1281" in="composite1" result="blur" stdDeviation="1.5"></feGaussianBlur><feOffset id="feOffset1283" dx="3" dy="3.4" result="offset"></feOffset><feComposite id="finalComposite" in="SourceGraphic" in2="offset" operator="over" result="composite2"></feComposite></filter></defs><linearGradient id="L00" x1="229.3883" x2="244.648" y1="18.3596" y2="53.8551" gradientUnits="userSpaceOnUse"><stop id="stop4" offset="0" stop-color="#A8DF6E"></stop><stop id="stop1773" offset=".5" stop-color="#77BF2A"></stop><stop id="stop6" offset="1" stop-color="#436C18"></stop></linearGradient><linearGradient id="L01" x1="249.7042" x2="232.9516" y1="29.1336" y2="46.052" gradientUnits="userSpaceOnUse"><stop id="stop10" offset="0" stop-color="#A8DF6E"></stop><stop id="stop1778" offset=".5" stop-color="#77BF2A"></stop><stop id="stop12" offset="1" stop-color="#436C18"></stop></linearGradient><linearGradient id="E30" x1="480.3744" x2="501.1071" y1="17.4293" y2="49.1808" gradientUnits="userSpaceOnUse"><stop id="stop16" offset="0" stop-color="#6B6B6B"></stop><stop id="stop1783" offset=".5" stop-color="#363636"></stop><stop id="stop18" offset="1" stop-color="#000000"></stop></linearGradient><linearGradient id="E31" x1="493.9286" x2="485.5195" y1="41.5532" y2="21.8354" gradientUnits="userSpaceOnUse"><stop id="stop22" offset="0" stop-color="#6B6B6B"></stop><stop id="stop1788" offset=".5" stop-color="#363636"></stop><stop id="stop24" offset="1" stop-color="#000000"></stop></linearGradient><linearGradient id="D00" x1="471.2181" x2="445.6357" y1="41.2834" y2="30.3918" gradientUnits="userSpaceOnUse"><stop id="stop28" offset="0" stop-color="#6B6B6B"></stop><stop id="stop1793" offset=".5" stop-color="#363636"></stop><stop id="stop30" offset="1" stop-color="#000000"></stop></linearGradient><linearGradient id="D01" x1="441.0465" x2="463.8716" y1="32.437" y2="32.437" gradientUnits="userSpaceOnUse"><stop id="stop34" offset="0" stop-color="#6B6B6B"></stop><stop id="stop1798" offset=".5" stop-color="#363636"></stop><stop id="stop36" offset="1" stop-color="#000000"></stop></linearGradient><linearGradient id="P00" x1="428.4555" x2="435.8497" y1="41.3233" y2="50.4573" gradientUnits="userSpaceOnUse"><stop id="stop40" offset="0" stop-color="#6B6B6B"></stop><stop id="stop1803" offset=".5" stop-color="#363636"></stop><stop id="stop42" offset="1" stop-color="#000000"></stop></linearGradient><linearGradient id="R11" x1="418.2066" x2="397.782" y1="20.7083" y2="30.5745" gradientUnits="userSpaceOnUse"><stop id="stop46" offset="0" stop-color="#FF54B2"></stop><stop id="stop1808" offset=".5" stop-color="#EF0083"></stop><stop id="stop48" offset="1" stop-color="#8A004C"></stop></linearGradient><linearGradient id="R10" x1="395.5869" x2="420.889" y1="17.8962" y2="53.1447" gradientUnits="userSpaceOnUse"><stop id="stop52" offset="0" stop-color="#FF54B2"></stop><stop id="stop1813" offset=".5" stop-color="#EF0083"></stop><stop id="stop54" offset="1" stop-color="#8A004C"></stop></linearGradient><linearGradient id="A10" x1="373.5918" x2="372.9971" y1="15.2047" y2="41.3714" gradientUnits="userSpaceOnUse"><stop id="stop58" offset="0" stop-color="#CD74B1"></stop><stop id="stop1818" offset=".5" stop-color="#A13A80"></stop><stop id="stop60" offset="1" stop-color="#551E43"></stop></linearGradient><linearGradient id="A11" x1="355.0282" x2="391.6727" y1="48.0038" y2="40.4132" gradientUnits="userSpaceOnUse"><stop id="stop64" offset="0" stop-color="#CD74B1"></stop><stop id="stop1823" offset=".5" stop-color="#A13A80"></stop><stop id="stop66" offset="1" stop-color="#551E43"></stop></linearGradient><linearGradient id="E21" x1="344.5523" x2="338.0107" y1="16.8403" y2="32.6989" gradientUnits="userSpaceOnUse"><stop id="stop70" offset="0" stop-color="#CD74B1"></stop><stop id="stop1828" offset=".5" stop-color="#A13A80"></stop><stop id="stop72" offset="1" stop-color="#551E43"></stop></linearGradient><linearGradient id="E20" x1="330.5862" x2="358.1406" y1="25.6537" y2="42.9" gradientUnits="userSpaceOnUse"><stop id="stop76" offset="0" stop-color="#CD74B1"></stop><stop id="stop1833" offset=".5" stop-color="#A13A80"></stop><stop id="stop78" offset="1" stop-color="#551E43"></stop></linearGradient><linearGradient id="Y00" x1="296.7784" x2="320.9246" y1="41.5219" y2="9.4734" gradientUnits="userSpaceOnUse"><stop id="stop82" offset="0" stop-color="#3287F4"></stop><stop id="stop1838" offset=".5" stop-color="#0953B3"></stop><stop id="stop84" offset="1" stop-color="#04244E"></stop></linearGradient><linearGradient id="Y01" x1="297.5605" x2="315.4015" y1="32.7431" y2="30.3643" gradientUnits="userSpaceOnUse"><stop id="stop88" offset="0" stop-color="#3287F4"></stop><stop id="stop1843" offset=".5" stop-color="#0953B3"></stop><stop id="stop90" offset="1" stop-color="#04244E"></stop></linearGradient><linearGradient id="L10" x1="277.5868" x2="252.8727" y1="26.9683" y2="42.0622" gradientUnits="userSpaceOnUse"><stop id="stop94" offset="0" stop-color="#3287F4"></stop><stop id="stop1848" offset=".5" stop-color="#0953B3"></stop><stop id="stop96" offset="1" stop-color="#04244E"></stop></linearGradient><linearGradient id="L11" x1="259.22" x2="265.6888" y1="39.9936" y2="18.0992" gradientUnits="userSpaceOnUse"><stop id="stop100" offset="0" stop-color="#3287F4"></stop><stop id="stop1853" offset=".5" stop-color="#0953B3"></stop><stop id="stop102" offset="1" stop-color="#04244E"></stop></linearGradient><linearGradient id="A00" x1="191.3555" x2="224.4228" y1="31.4688" y2="35.046" gradientUnits="userSpaceOnUse"><stop id="stop106" offset="0" stop-color="#FFEB5E"></stop><stop offset=".5" stop-color="#FCDC00"></stop><stop id="stop108" offset="1" stop-color="#998600"></stop></linearGradient><linearGradient id="A01" x1="226.263" x2="194.7483" y1="46.8056" y2="33.2046" gradientUnits="userSpaceOnUse"><stop id="stop112" offset="0" stop-color="#FFEB5E"></stop><stop offset=".5" stop-color="#FCDC00"></stop><stop id="stop114" offset="1" stop-color="#998600"></stop></linearGradient><linearGradient id="R01" x1="176.7777" x2="146.2131" y1="47.9528" y2="28.1854" gradientUnits="userSpaceOnUse"><stop id="stop118" offset="0" stop-color="#FFEB5E"></stop><stop offset=".5" stop-color="#FCDC00"></stop><stop id="stop120" offset="1" stop-color="#998600"></stop></linearGradient><linearGradient id="R00" x1="144.1624" x2="164.3981" y1="18.1121" y2="40.8358" gradientUnits="userSpaceOnUse"><stop id="stop124" offset="0" stop-color="#FFEB5E"></stop><stop offset=".5" stop-color="#FCDC00"></stop><stop id="stop126" offset="1" stop-color="#998600"></stop></linearGradient><linearGradient id="E11" x1="141.7942" x2="116.0169" y1="44.015" y2="31.8216" gradientUnits="userSpaceOnUse"><stop id="stop130" offset="0" stop-color="#FAA961"></stop><stop offset=".5" stop-color="#F07608"></stop><stop id="stop132" offset="1" stop-color="#914705"></stop></linearGradient><linearGradient id="E10" x1="138.9617" x2="116.8211" y1="24.1902" y2="42.0525" gradientUnits="userSpaceOnUse"><stop id="stop136" offset="0" stop-color="#FAA961"></stop><stop offset=".5" stop-color="#F07608"></stop><stop id="stop138" offset="1" stop-color="#914705"></stop></linearGradient><linearGradient id="E00" x1="90.6665" x2="114.917" y1="22.6194" y2="47.8994" gradientUnits="userSpaceOnUse"><stop id="stop142" offset="0" stop-color="#FAA961"></stop><stop offset=".5" stop-color="#F07608"></stop><stop id="stop144" offset="1" stop-color="#914705"></stop></linearGradient><linearGradient id="E01" x1="87.2541" x2="102.811" y1="14.8513" y2="45.622" gradientUnits="userSpaceOnUse"><stop id="stop148" offset="0" stop-color="#FAA961"></stop><stop offset=".5" stop-color="#F07608"></stop><stop id="stop150" offset="1" stop-color="#914705"></stop></linearGradient><linearGradient id="U00" x1="71.4533" x2="63.5509" y1="45.4328" y2="11.1892" gradientUnits="userSpaceOnUse"><stop id="stop154" offset=".2291" stop-color="#F4596D"></stop><stop offset=".5" stop-color="#D90F29"></stop><stop id="stop156" offset="1" stop-color="#7A0817"></stop></linearGradient><linearGradient id="U01" x1="80.4142" x2="53.4184" y1="28.6944" y2="43.6794" gradientUnits="userSpaceOnUse"><stop id="stop160" offset="0" stop-color="#F4596D"></stop><stop offset=".5" stop-color="#D90F29"></stop><stop id="stop162" offset="1" stop-color="#7A0817"></stop></linearGradient><linearGradient id="Q00" x1="30.2469" x2="42.3721" y1="47.6172" y2="21.6509" gradientUnits="userSpaceOnUse"><stop id="stop166" offset="0" stop-color="#F4596D"></stop><stop offset=".5" stop-color="#D90F29"></stop><stop id="stop168" offset="1" stop-color="#7A0817"></stop></linearGradient><linearGradient id="Q01" x1="48.9573" x2="30.1263" y1="24.4107" y2="44.2452" gradientUnits="userSpaceOnUse"><stop id="stop172" offset="0" stop-color="#F4596D"></stop><stop id="stop176" offset=".589" stop-color="#CB0E26"></stop><stop id="stop178" offset="1" stop-color="#7A0817"></stop></linearGradient><linearGradient id="Q02" x1="53.3646" x2="14.3579" y1="48.6701" y2="52.1018" gradientUnits="userSpaceOnUse"><stop id="stop182" offset="0" stop-color="#F4596D"></stop><stop id="stop1896" offset=".5" stop-color="#D90F29"></stop><stop id="stop184" offset="1" stop-color="#7A0817"></stop></linearGradient><g id="mainGroup" filter="url(#filterShadow)" transform="translate(29.0414 -5.638)"><g id="wordYEAR" transform="translate(-6)"><g id="letterR1"><path id="path1914" fill="url(#R10)" d="m 419.21,39.76 5.38,9.6 h -9.7 l -5.86,-10.8 c -0.74,-1.25 -1.9,-1.87 -3.5,-1.87 h -2.69 v 12.67 h -8.69 V 15.52 h 16.13 c 4.1,0 7.18,0.89 9.24,2.66 2.06,1.78 3.1,4.34 3.1,7.7 0,2.56 -0.7,4.73 -2.11,6.5 -1.02,1.29 -2.35,2.27 -3.99,2.95 m -3.43,-6.18 c 0.85,-0.61 1.27,-1.6 1.27,-2.98 0,-1.41 -0.42,-2.42 -1.27,-3.05 -0.85,-0.62 -2.25,-0.94 -4.2,-0.94 h -6.14 v 7.87 h 6.14 c 1.95,0.01 3.35,-0.29 4.2,-0.9 z"></path><path id="path1916" fill="url(#R11)" d="m 416.55,35.4 -0.04,-0.06 c 1.63,-0.67 2.96,-1.66 3.99,-2.95 1.41,-1.78 2.11,-3.94 2.11,-6.5 0,-3.36 -1.03,-5.93 -3.1,-7.7 -2.06,-1.78 -5.14,-2.66 -9.24,-2.66 H 400.2 c -1.91,2.26 -3.07,5.18 -3.07,8.37 0,7.16 5.81,12.97 12.97,12.97 2.25,-0.01 4.47,-0.53 6.45,-1.47 z m -13.81,-5.34 v -7.87 h 6.14 c 1.95,0 3.35,0.31 4.2,0.94 0.85,0.62 1.27,1.64 1.27,3.05 0,1.38 -0.42,2.37 -1.27,2.98 -0.85,0.61 -2.25,0.91 -4.2,0.91 h -6.14 z"></path></g><g id="letterA1" transform="translate(.8266)"><path id="path1919" fill="url(#A10)" d="m 383.4,49.36 -3.02,-7.01 H 365.4 l -3.02,7.01 h -8.88 l 15.79,-33.84 h 7.01 l 15.84,33.84 z M 368.23,35.73 h 9.31 l -4.66,-10.85 z"></path><path id="path1921" fill="url(#A11)" d="m 390.03,44.86 c -3.74,-5.51 -10.05,-9.14 -17.22,-9.14 -7.17,0 -13.5,3.63 -17.23,9.16 l -2.09,4.47 h 8.88 l 3.02,-7.01 h 14.98 l 3.02,7.01 h 2.96 5.78 z"></path></g><g id="letterE2"><path id="path1924" fill="url(#E20)" d="M 329.4,49.36 V 15.52 h 24.05 v 6.82 h -15.46 v 6.43 h 14.5 v 6.77 h -14.5 v 7.01 h 15.46 v 6.82 H 329.4 Z"></path><path id="path1926" fill="url(#E21)" d="m 329.45,15.65 c 0,10.57 9.67,19.21 21.89,19.88 h 1.15 v -6.77 h -14.5 v -6.43 h 15.46 v -6.82 h -24 c 0,0.05 0,0.1 0,0.14 z"></path></g><g id="letterY0" transform="translate(-1.065)"><path id="path1929" fill="url(#Y00)" d="m 329.45,15.52 -14.3,18.77 v 15.07 h -8.83 V 34.29 L 292.1,15.52 h 9.94 l 8.64,11.76 8.74,-11.76 z"></path><path id="path1931" fill="url(#Y01)" d="m 310.68,27.28 -8.64,-11.76 h -9.94 l 14.21,18.77 v 15.07 h 1.3 c 4.42,-2.09 7.49,-6.57 7.49,-11.78 0,-3.15 -1.12,-6.04 -2.98,-8.29"></path></g></g><g id="woldALL"><g id="letterL0"><path id="path1935" fill="url(#L00)" d="M 229.56,49.36 V 15.52 h 8.83 v 26.69 h 14.4 v 7.15 z"></path><path id="path1937" fill="url(#L01)" d="M 252.73,42.21 H 238.39 V 25.58 c -5.09,1.44 -8.83,6.11 -8.83,11.66 0,6.7 5.43,12.12 12.12,12.12 4.93,0 9.15,-2.94 11.05,-7.15 z"></path></g><g id="letterL1" transform="translate(-2.4852)"><path id="path1940" fill="url(#L10)" d="M 257.02,49.36 V 15.52 h 8.83 v 26.69 h 14.4 v 7.15 z"></path><path id="path1942" fill="url(#L11)" d="m 257.02,38.36 c 2.13,2.36 5.19,3.84 8.62,3.84 0.07,0 0.14,-0.01 0.22,-0.01 V 18.98 c -0.07,0 -0.14,-0.01 -0.22,-0.01 -3.42,0 -6.49,1.49 -8.62,3.84 z"></path></g><g id="letterA0"><path id="path1945" fill="url(#A00)" d="m 218.81,49.36 -3.02,-7.01 h -14.98 l -3.02,7.01 h -8.88 L 204.7,15.52 h 7.01 l 15.84,33.84 z M 203.64,35.73 h 9.31 l -4.66,-10.85 z"></path><path id="path1947" fill="url(#A01)" d="m 218.81,49.36 h 8.74 l -3.56,-7.62 c -3.16,-6.75 -7.52,-6.02 -11.03,-6.02 h -9.31 c -2.65,0.01 -4.99,-1.41 -6.83,-3.31 l -3.24,6.94 c 2.22,1.8 4.68,3 7.23,3 h 14.98 z"></path></g></g><g id="wordQUEER" transform="translate(6)"><g id="letterR0" transform="translate(-4)"><path id="path1951" fill="url(#R00)" d="m 170.43,39.76 5.38,9.6 h -9.7 l -5.86,-10.8 c -0.74,-1.25 -1.9,-1.87 -3.5,-1.87 h -2.69 v 12.67 h -8.69 V 15.52 h 16.13 c 4.1,0 7.18,0.89 9.24,2.66 2.06,1.78 3.1,4.34 3.1,7.7 0,2.56 -0.7,4.73 -2.11,6.5 -1.02,1.29 -2.35,2.27 -3.99,2.95 m -3.43,-6.18 c 0.85,-0.61 1.27,-1.6 1.27,-2.98 0,-1.41 -0.42,-2.42 -1.27,-3.05 -0.85,-0.62 -2.25,-0.94 -4.2,-0.94 h -6.14 v 7.87 h 6.14 c 1.95,0.01 3.35,-0.29 4.2,-0.9 z"></path><path id="path1953" fill="url(#R01)" d="m 154.06,36.63 h 2.69 c 1.6,0 2.77,0.63 3.5,1.88 l 5.86,10.85 h 9.7 l -5.38,-9.64 -2.69,-4.44 c -1.47,-2.09 -4.09,-5.3 -8.18,-5.3 h -5.59 c -4.05,0.03 -8.59,-2.69 -8.59,-5.1 v 9.84 c 2.36,1.11 5.22,1.85 8.68,1.91 z"></path></g><g id="letterE1" transform="translate(-2)"><path id="path1956" fill="url(#E10)" d="M 116.72,49.36 V 15.52 h 24.05 v 6.82 h -15.46 v 6.43 h 14.5 v 6.77 h -14.5 v 7.01 h 15.46 v 6.82 h -24.05 z"></path><path id="path1958" fill="url(#E11)" d="m 127.16,42.54 c -0.08,0.01 -0.16,0.02 -0.24,0.02 -1.94,0 -3.52,-1.57 -3.52,-3.52 0,-1.95 1.57,-3.52 3.52,-3.52 0.08,0 0.15,0.02 0.22,0.02 v -0.02 h 12.66 v -6.77 h -14.5 c -7.55,0 -8.59,6.13 -8.59,8.74 v 3.12 c 0,2.49 0.89,8.73 8.59,8.73 h 15.46 v -6.82 h -13.6 z"></path></g><g id="letterE0"><path id="path1961" fill="url(#E00)" d="M 88.06,49.36 V 15.52 h 24.05 v 6.82 H 96.65 v 6.43 h 14.5 v 6.77 h -14.5 v 7.01 h 15.46 v 6.82 H 88.06 Z"></path><path id="path1963" fill="url(#E01)" d="m 96.65,42.54 c -0.08,-3.27 0,-17.63 0,-20.21 0,-2.58 0.74,-6.82 7.58,-6.82 H 88.06 v 33.84 c 6.88,-0.01 8.67,-3.54 8.59,-6.81 z"></path></g><g id="letterU0" transform="translate(2.9467)"><path id="path1966" fill="url(#U00)" d="M 55.92,46.04 C 53.38,43.54 52.1,39.9 52.1,35.1 V 15.52 h 8.64 v 19.92 c 0,2.43 0.54,4.3 1.63,5.62 1.09,1.31 2.66,1.97 4.7,1.97 2.05,0 3.62,-0.66 4.7,-1.97 1.09,-1.31 1.63,-3.18 1.63,-5.62 V 15.52 h 8.69 V 35.1 c 0,4.77 -1.29,8.41 -3.86,10.92 -2.58,2.51 -6.3,3.77 -11.16,3.77 -4.88,0 -8.6,-1.25 -11.15,-3.75 z"></path><path id="path1968" fill="url(#U01)" d="m 55.92,46.04 c 2.54,2.5 6.26,3.74 11.16,3.74 4.86,0 8.58,-1.26 11.16,-3.77 2.58,-2.51 3.86,-6.15 3.86,-10.92 v -7.28 c 0,5.71 -7.28,14.41 -14.01,15.14 -0.33,0.04 -0.66,0.07 -1.01,0.07 -0.64,0 -1.22,-0.07 -1.77,-0.2 -6.5,-1.2 -13.21,-8.13 -13.21,-15 v 7.28 c 0.01,4.8 1.28,8.45 3.82,10.94 z"></path></g><g id="letterQ0" transform="translate(5.5385)"><path id="path1971" fill="url(#Q00)" d="m 53.14,55.06 -5.74,4.55 -12.83,-8.3 c -1.26,-0.74 -2.64,-1.52 -4.4,-1.52 -3.46,0 -6.46,-0.71 -9,-2.14 -2.54,-1.42 -4.5,-3.44 -5.88,-6.05 -1.38,-2.61 -2.06,-5.67 -2.06,-9.19 0,-3.52 0.69,-6.58 2.06,-9.19 1.38,-2.61 3.34,-4.62 5.88,-6.02 2.54,-1.41 5.54,-2.11 9,-2.11 3.46,0 6.46,0.7 9,2.11 2.54,1.41 4.5,3.42 5.86,6.02 1.36,2.61 2.04,5.67 2.04,9.19 0,3.49 -0.69,6.54 -2.06,9.17 -1.38,2.62 -3.34,4.64 -5.9,6.05 m -2.94,-7.32 c 1.44,-1.81 2.16,-4.44 2.16,-7.9 0,-3.46 -0.73,-6.08 -2.18,-7.87 -1.46,-1.79 -3.45,-2.69 -5.98,-2.69 -2.56,0 -4.56,0.89 -6,2.66 -1.44,1.78 -2.16,4.41 -2.16,7.9 0,3.49 0.72,6.13 2.16,7.92 1.44,1.79 3.44,2.69 6,2.69 2.56,0 4.56,-0.9 6,-2.71 z"></path><path id="path1973" fill="url(#Q01)" d="M 50.88,53.86 39.1,47.63 c 2.56,-1.41 4.53,-3.42 5.9,-6.05 1.38,-2.62 2.06,-5.68 2.06,-9.17 0,-3.52 -0.68,-6.58 -2.04,-9.19 -1.36,-2.61 -3.31,-4.62 -5.86,-6.02 -2.54,-1.41 -5.54,-2.11 -9,-2.11 -2.13,0 -4.09,0.27 -5.88,0.81 7.08,1.44 14.15,5.44 14.04,16.52 0,1.07 -0.08,2.06 -0.22,2.97 -0.01,0.1 -0.03,0.2 -0.05,0.3 -0.03,0.15 -0.05,0.29 -0.08,0.44 -1.48,8.28 -7.66,11.53 -13.82,12.81 1.82,0.57 3.82,0.85 6,0.85 1.76,0 3.14,0.78 4.4,1.52 l 12.83,8.3 3.6,-2.85 z"></path><path id="path1975" fill="url(#Q02)" d="M 37.15,52.98 47.4,59.61 53.14,55.06 41.3,48.79 c -1.31,-0.62 -2.58,-1.22 -3.7,-1.76 -6.18,-3 -16.03,-6.07 -22.31,-5.43 1.38,2.61 3.34,4.62 5.88,6.05 1.59,0.89 3.36,1.47 5.3,1.84 2.75,0.51 5.31,0.3 10.68,3.49 z"></path></g></g><g id="wordDEthin" stroke-width="1.5653" transform="matrix(.63884 0 0 .63884 135.8474 -5.9226)" style="display: none;"><g id="text2941" fill="#000" fill-opacity="1" stroke="none" stroke-width="5.9207" aria-label=".de" font-family="Gill Sans" font-size="22.2987" font-stretch="normal" font-style="normal" font-variant="normal" font-weight="300" style="line-height:1.25;-inkscape-font-specification:'Gill Sans, Light';font-variant-ligatures:normal;font-variant-caps:normal;font-variant-numeric:normal;font-feature-settings:normal;text-align:start" letter-spacing="0" text-anchor="start" word-spacing="0" writing-mode="lr-tb"><path id="path3402" d="m 447.84931,84.302406 v 2.166718 h -1.44811 v -2.166718 z"></path><path id="path3404" d="m 459.12931,71.25855 v 15.210574 h -1.07792 v -0.783938 q -1.37189,0.979922 -2.96154,0.979922 -2.13406,0 -3.60394,-1.502547 -1.459,-1.513436 -1.459,-3.712818 0,-2.232045 1.43722,-3.712817 1.44811,-1.480772 3.62572,-1.480772 1.38278,0 2.96154,0.805714 V 71.25855 Z m -1.07792,13.446713 v -6.467488 q -1.43722,-0.93637 -2.91799,-0.93637 -1.7312,0 -2.85266,1.154131 -1.12147,1.143243 -1.12147,2.928879 0,1.818301 1.19768,3.026872 1.19769,1.208571 2.99421,1.208571 1.39367,0 2.70023,-0.914595 z"></path><path id="path3406" d="m 470.39841,81.090438 h -7.89382 q -0.0327,0.261313 -0.0327,0.522626 0,1.676756 1.19768,2.841775 1.19768,1.165019 2.83089,1.165019 1.9054,0 3.7237,-1.49166 v 1.208571 q -1.7203,1.328339 -3.85436,1.328339 -2.16672,0 -3.58216,-1.502547 -1.41544,-1.502548 -1.41544,-3.821698 0,-2.199381 1.30656,-3.636601 1.30656,-1.448108 3.28819,-1.448108 1.86185,0 3.14664,1.306564 1.28478,1.295675 1.28478,3.52772 z m -7.75227,-0.860154 h 6.48926 q -0.56618,-2.928879 -3.16841,-2.928879 -1.23035,0 -2.13406,0.77305 -0.89282,0.762162 -1.18679,2.155829 z"></path></g></g><g id="wordDE" stroke-width="2.1086" transform="matrix(.47425 0 0 .47425 218.0703 25.6369)" style="display: none;"><g id="letterE3" transform="translate(-2.3862 .8391)"><path id="path7003" fill="url(#E30)" d="M 478.15,49.36 V 15.52 h 24.05 v 6.82 h -15.46 v 6.43 h 14.5 v 6.77 h -14.5 v 7.01 h 15.46 v 6.82 h -24.05 z"></path><path id="path7005" fill="url(#E31)" d="m 486.74,42.36 v -6.82 h 14.5 v -6.77 h -14.5 v -6.24 c -4.86,0.72 -8.59,4.88 -8.59,9.92 0,5.04 3.73,9.18 8.59,9.91 z"></path></g><g id="letterD0" transform="translate(-1.4067 .5992)"><path id="path7009" fill="url(#D00)" d="m 441.05,15.52 h 13.78 c 3.74,0 6.97,0.67 9.67,2.02 2.7,1.34 4.78,3.29 6.22,5.83 1.44,2.54 2.16,5.56 2.16,9.05 0,3.52 -0.71,6.55 -2.14,9.1 -1.43,2.55 -3.49,4.49 -6.19,5.83 -2.71,1.34 -5.95,2.02 -9.72,2.02 h -13.78 z m 13.15,26.73 c 3.33,0 5.81,-0.82 7.44,-2.45 1.63,-1.63 2.45,-4.1 2.45,-7.39 0,-3.3 -0.82,-5.75 -2.45,-7.37 -1.63,-1.62 -4.11,-2.42 -7.44,-2.42 h -4.32 v 19.63 z"></path><path id="path7011" fill="url(#D01)" d="m 463.84,35.25 c -0.35,1.91 -1.08,3.44 -2.2,4.56 -1.63,1.63 -4.11,2.45 -7.44,2.45 h -4.32 V 22.62 h 4.32 c 3.33,0 5.81,0.81 7.44,2.42 1.16,1.15 1.9,2.73 2.23,4.72 -0.98,-6.64 -5.6,-12.08 -11.77,-14.25 h -11.05 v 33.84 h 10.83 c 6.21,-2.08 10.9,-7.48 11.96,-14.1 z"></path></g><g id="letterP0" transform="translate(-.8093 .74)"><path id="path7015" fill="url(#P00)" stroke-width="2.1086" d="m 426.98,40.62 h 8.88 v 8.74 h -8.88 z"></path></g></g></g></svg>